<?xml version="1.0" encoding="UTF-8"?><svg xmlns="http://www.w3.org/2000/svg" xmlns:xlink="http://www.w3.org/1999/xlink" fill-opacity="1" color-rendering="auto" color-interpolation="auto" text-rendering="auto" stroke="black" stroke-linecap="square" width="731" stroke-miterlimit="10" shape-rendering="auto" stroke-opacity="1" fill="black" stroke-dasharray="none" font-weight="normal" stroke-width="1" height="765" font-family="'Dialog'" font-style="normal" stroke-linejoin="miter" font-size="12px" stroke-dashoffset="0" image-rendering="auto">
  <!--Generated by ySVG 2.5-->
  <defs id="genericDefs"/>
  <g>
    <defs id="defs1">
      <clipPath clipPathUnits="userSpaceOnUse" id="clipPath1">
        <path d="M0 0 L731 0 L731 765 L0 765 L0 0 Z"/>
      </clipPath>
      <clipPath clipPathUnits="userSpaceOnUse" id="clipPath2">
        <path d="M252 78 L983 78 L983 843 L252 843 L252 78 Z"/>
      </clipPath>
    </defs>
    <g fill="rgb(255,204,0)" text-rendering="geometricPrecision" shape-rendering="geometricPrecision" transform="matrix(1,0,0,1,-252,-78)" stroke="rgb(255,204,0)">
      <rect x="267" y="123" clip-path="url(#clipPath2)" width="97" rx="4" ry="4" height="42" stroke="none"/>
    </g>
    <g text-rendering="geometricPrecision" stroke-miterlimit="1.45" shape-rendering="geometricPrecision" transform="matrix(1,0,0,1,-252,-78)" stroke-linecap="butt">
      <rect x="267" y="123" clip-path="url(#clipPath2)" fill="none" width="97" rx="4" ry="4" height="42"/>
      <text x="282.9365" xml:space="preserve" y="141.1699" clip-path="url(#clipPath2)" font-family="sans-serif" stroke="none">grpc-demo</text>
      <text x="294.3389" xml:space="preserve" y="155.1387" clip-path="url(#clipPath2)" font-family="sans-serif" stroke="none">(client)</text>
    </g>
    <g fill="rgb(255,204,0)" text-rendering="geometricPrecision" shape-rendering="geometricPrecision" transform="matrix(1,0,0,1,-252,-78)" stroke="rgb(255,204,0)">
      <rect x="486" y="123" clip-path="url(#clipPath2)" width="97" rx="4" ry="4" height="42" stroke="none"/>
    </g>
    <g text-rendering="geometricPrecision" stroke-miterlimit="1.45" shape-rendering="geometricPrecision" transform="matrix(1,0,0,1,-252,-78)" stroke-linecap="butt">
      <rect x="486" y="123" clip-path="url(#clipPath2)" fill="none" width="97" rx="4" ry="4" height="42"/>
      <text x="501.9365" xml:space="preserve" y="141.1699" clip-path="url(#clipPath2)" font-family="sans-serif" stroke="none">grpc-demo</text>
      <text x="510.8252" xml:space="preserve" y="155.1387" clip-path="url(#clipPath2)" font-family="sans-serif" stroke="none">(server)</text>
    </g>
    <g fill="rgb(255,204,0)" text-rendering="geometricPrecision" shape-rendering="geometricPrecision" transform="matrix(1,0,0,1,-252,-78)" stroke="rgb(255,204,0)">
      <rect x="306.5" y="190" clip-path="url(#clipPath2)" width="18" rx="4" ry="4" height="230" stroke="none"/>
    </g>
    <g text-rendering="geometricPrecision" stroke-miterlimit="1.45" shape-rendering="geometricPrecision" transform="matrix(1,0,0,1,-252,-78)" stroke-linecap="butt">
      <rect x="306.5" y="190" clip-path="url(#clipPath2)" fill="none" width="18" rx="4" ry="4" height="230"/>
    </g>
    <g fill="rgb(255,204,0)" text-rendering="geometricPrecision" shape-rendering="geometricPrecision" transform="matrix(1,0,0,1,-252,-78)" stroke="rgb(255,204,0)">
      <rect x="525.5" y="190" clip-path="url(#clipPath2)" width="18" rx="4" ry="4" height="230" stroke="none"/>
    </g>
    <g text-rendering="geometricPrecision" stroke-miterlimit="1.45" shape-rendering="geometricPrecision" transform="matrix(1,0,0,1,-252,-78)" stroke-linecap="butt">
      <rect x="525.5" y="190" clip-path="url(#clipPath2)" fill="none" width="18" rx="4" ry="4" height="230"/>
    </g>
    <g fill="white" text-rendering="geometricPrecision" shape-rendering="geometricPrecision" transform="matrix(1,0,0,1,-252,-78)" stroke="white">
      <path d="M375 204 L460 204 L460 219 L475 219 L475 232 L375 232 Z" stroke="none" clip-path="url(#clipPath2)"/>
      <path d="M460 204 L460 219 L475 219 Z" clip-path="url(#clipPath2)" fill-rule="evenodd" stroke="none"/>
    </g>
    <g text-rendering="geometricPrecision" stroke-miterlimit="1.45" shape-rendering="geometricPrecision" transform="matrix(1,0,0,1,-252,-78)" stroke-linecap="butt">
      <path fill="none" d="M375 204 L460 204 L460 219 L475 219 L475 232 L375 232 Z" clip-path="url(#clipPath2)"/>
      <path fill="none" d="M460 204 L460 219 L475 219 Z" clip-path="url(#clipPath2)" fill-rule="evenodd"/>
      <text x="398.0352" xml:space="preserve" y="215.1699" clip-path="url(#clipPath2)" font-family="sans-serif" stroke="none">message</text>
      <text x="397.3789" xml:space="preserve" y="229.1387" clip-path="url(#clipPath2)" font-family="sans-serif" stroke="none">(request)</text>
    </g>
    <g fill="white" text-rendering="geometricPrecision" shape-rendering="geometricPrecision" transform="matrix(1,0,0,1,-252,-78)" stroke="white">
      <path d="M375 247 L460 247 L460 262 L475 262 L475 275 L375 275 Z" stroke="none" clip-path="url(#clipPath2)"/>
      <path d="M460 247 L460 262 L475 262 Z" clip-path="url(#clipPath2)" fill-rule="evenodd" stroke="none"/>
    </g>
    <g text-rendering="geometricPrecision" stroke-miterlimit="1.45" shape-rendering="geometricPrecision" transform="matrix(1,0,0,1,-252,-78)" stroke-linecap="butt">
      <path fill="none" d="M375 247 L460 247 L460 262 L475 262 L475 275 L375 275 Z" clip-path="url(#clipPath2)"/>
      <path fill="none" d="M460 247 L460 262 L475 262 Z" clip-path="url(#clipPath2)" fill-rule="evenodd"/>
      <text x="398.0352" xml:space="preserve" y="258.1699" clip-path="url(#clipPath2)" font-family="sans-serif" stroke="none">message</text>
      <text x="392.9346" xml:space="preserve" y="272.1387" clip-path="url(#clipPath2)" font-family="sans-serif" stroke="none">(response)</text>
    </g>
    <g fill="white" text-rendering="geometricPrecision" shape-rendering="geometricPrecision" transform="matrix(1,0,0,1,-252,-78)" stroke="white">
      <path d="M375 291 L460 291 L460 306 L475 306 L475 319 L375 319 Z" stroke="none" clip-path="url(#clipPath2)"/>
      <path d="M460 291 L460 306 L475 306 Z" clip-path="url(#clipPath2)" fill-rule="evenodd" stroke="none"/>
    </g>
    <g text-rendering="geometricPrecision" stroke-miterlimit="1.45" shape-rendering="geometricPrecision" transform="matrix(1,0,0,1,-252,-78)" stroke-linecap="butt">
      <path fill="none" d="M375 291 L460 291 L460 306 L475 306 L475 319 L375 319 Z" clip-path="url(#clipPath2)"/>
      <path fill="none" d="M460 291 L460 306 L475 306 Z" clip-path="url(#clipPath2)" fill-rule="evenodd"/>
      <text x="398.0352" xml:space="preserve" y="302.1699" clip-path="url(#clipPath2)" font-family="sans-serif" stroke="none">message</text>
      <text x="397.3789" xml:space="preserve" y="316.1387" clip-path="url(#clipPath2)" font-family="sans-serif" stroke="none">(request)</text>
    </g>
    <g fill="white" text-rendering="geometricPrecision" shape-rendering="geometricPrecision" transform="matrix(1,0,0,1,-252,-78)" stroke="white">
      <path d="M375 330 L460 330 L460 345 L475 345 L475 358 L375 358 Z" stroke="none" clip-path="url(#clipPath2)"/>
      <path d="M460 330 L460 345 L475 345 Z" clip-path="url(#clipPath2)" fill-rule="evenodd" stroke="none"/>
    </g>
    <g text-rendering="geometricPrecision" stroke-miterlimit="1.45" shape-rendering="geometricPrecision" transform="matrix(1,0,0,1,-252,-78)" stroke-linecap="butt">
      <path fill="none" d="M375 330 L460 330 L460 345 L475 345 L475 358 L375 358 Z" clip-path="url(#clipPath2)"/>
      <path fill="none" d="M460 330 L460 345 L475 345 Z" clip-path="url(#clipPath2)" fill-rule="evenodd"/>
      <text x="398.0352" xml:space="preserve" y="341.1699" clip-path="url(#clipPath2)" font-family="sans-serif" stroke="none">message</text>
      <text x="392.9346" xml:space="preserve" y="355.1387" clip-path="url(#clipPath2)" font-family="sans-serif" stroke="none">(response)</text>
    </g>
    <g fill="rgb(255,204,0)" text-rendering="geometricPrecision" shape-rendering="geometricPrecision" transform="matrix(1,0,0,1,-252,-78)" stroke="rgb(255,204,0)">
      <rect x="652" y="123" clip-path="url(#clipPath2)" width="97" rx="4" ry="4" height="42" stroke="none"/>
    </g>
    <g text-rendering="geometricPrecision" stroke-miterlimit="1.45" shape-rendering="geometricPrecision" transform="matrix(1,0,0,1,-252,-78)" stroke-linecap="butt">
      <rect x="652" y="123" clip-path="url(#clipPath2)" fill="none" width="97" rx="4" ry="4" height="42"/>
      <text x="667.9365" xml:space="preserve" y="141.1699" clip-path="url(#clipPath2)" font-family="sans-serif" stroke="none">grpc-demo</text>
      <text x="679.3389" xml:space="preserve" y="155.1387" clip-path="url(#clipPath2)" font-family="sans-serif" stroke="none">(client)</text>
    </g>
    <g fill="rgb(255,204,0)" text-rendering="geometricPrecision" shape-rendering="geometricPrecision" transform="matrix(1,0,0,1,-252,-78)" stroke="rgb(255,204,0)">
      <rect x="871" y="123" clip-path="url(#clipPath2)" width="97" rx="4" ry="4" height="42" stroke="none"/>
    </g>
    <g text-rendering="geometricPrecision" stroke-miterlimit="1.45" shape-rendering="geometricPrecision" transform="matrix(1,0,0,1,-252,-78)" stroke-linecap="butt">
      <rect x="871" y="123" clip-path="url(#clipPath2)" fill="none" width="97" rx="4" ry="4" height="42"/>
      <text x="886.9365" xml:space="preserve" y="141.1699" clip-path="url(#clipPath2)" font-family="sans-serif" stroke="none">grpc-demo</text>
      <text x="895.8252" xml:space="preserve" y="155.1387" clip-path="url(#clipPath2)" font-family="sans-serif" stroke="none">(server)</text>
    </g>
    <g fill="rgb(255,204,0)" text-rendering="geometricPrecision" shape-rendering="geometricPrecision" transform="matrix(1,0,0,1,-252,-78)" stroke="rgb(255,204,0)">
      <rect x="691.5" y="190" clip-path="url(#clipPath2)" width="18" rx="4" ry="4" height="230" stroke="none"/>
    </g>
    <g text-rendering="geometricPrecision" stroke-miterlimit="1.45" shape-rendering="geometricPrecision" transform="matrix(1,0,0,1,-252,-78)" stroke-linecap="butt">
      <rect x="691.5" y="190" clip-path="url(#clipPath2)" fill="none" width="18" rx="4" ry="4" height="230"/>
    </g>
    <g fill="rgb(255,204,0)" text-rendering="geometricPrecision" shape-rendering="geometricPrecision" transform="matrix(1,0,0,1,-252,-78)" stroke="rgb(255,204,0)">
      <rect x="910.5" y="190" clip-path="url(#clipPath2)" width="18" rx="4" ry="4" height="230" stroke="none"/>
    </g>
    <g text-rendering="geometricPrecision" stroke-miterlimit="1.45" shape-rendering="geometricPrecision" transform="matrix(1,0,0,1,-252,-78)" stroke-linecap="butt">
      <rect x="910.5" y="190" clip-path="url(#clipPath2)" fill="none" width="18" rx="4" ry="4" height="230"/>
    </g>
    <g fill="white" text-rendering="geometricPrecision" shape-rendering="geometricPrecision" transform="matrix(1,0,0,1,-252,-78)" stroke="white">
      <path d="M760 204 L845 204 L845 219 L860 219 L860 232 L760 232 Z" stroke="none" clip-path="url(#clipPath2)"/>
      <path d="M845 204 L845 219 L860 219 Z" clip-path="url(#clipPath2)" fill-rule="evenodd" stroke="none"/>
    </g>
    <g text-rendering="geometricPrecision" stroke-miterlimit="1.45" shape-rendering="geometricPrecision" transform="matrix(1,0,0,1,-252,-78)" stroke-linecap="butt">
      <path fill="none" d="M760 204 L845 204 L845 219 L860 219 L860 232 L760 232 Z" clip-path="url(#clipPath2)"/>
      <path fill="none" d="M845 204 L845 219 L860 219 Z" clip-path="url(#clipPath2)" fill-rule="evenodd"/>
      <text x="783.0352" xml:space="preserve" y="215.1699" clip-path="url(#clipPath2)" font-family="sans-serif" stroke="none">message</text>
      <text x="782.3789" xml:space="preserve" y="229.1387" clip-path="url(#clipPath2)" font-family="sans-serif" stroke="none">(request)</text>
    </g>
    <g fill="white" text-rendering="geometricPrecision" shape-rendering="geometricPrecision" transform="matrix(1,0,0,1,-252,-78)" stroke="white">
      <path d="M760 245 L845 245 L845 260 L860 260 L860 273 L760 273 Z" stroke="none" clip-path="url(#clipPath2)"/>
      <path d="M845 245 L845 260 L860 260 Z" clip-path="url(#clipPath2)" fill-rule="evenodd" stroke="none"/>
    </g>
    <g text-rendering="geometricPrecision" stroke-miterlimit="1.45" shape-rendering="geometricPrecision" transform="matrix(1,0,0,1,-252,-78)" stroke-linecap="butt">
      <path fill="none" d="M760 245 L845 245 L845 260 L860 260 L860 273 L760 273 Z" clip-path="url(#clipPath2)"/>
      <path fill="none" d="M845 245 L845 260 L860 260 Z" clip-path="url(#clipPath2)" fill-rule="evenodd"/>
      <text x="783.0352" xml:space="preserve" y="256.1699" clip-path="url(#clipPath2)" font-family="sans-serif" stroke="none">message</text>
      <text x="782.3789" xml:space="preserve" y="270.1387" clip-path="url(#clipPath2)" font-family="sans-serif" stroke="none">(request)</text>
    </g>
    <g fill="white" text-rendering="geometricPrecision" shape-rendering="geometricPrecision" transform="matrix(1,0,0,1,-252,-78)" stroke="white">
      <path d="M760 310 L845 310 L845 325 L860 325 L860 338 L760 338 Z" stroke="none" clip-path="url(#clipPath2)"/>
      <path d="M845 310 L845 325 L860 325 Z" clip-path="url(#clipPath2)" fill-rule="evenodd" stroke="none"/>
    </g>
    <g text-rendering="geometricPrecision" stroke-miterlimit="1.45" shape-rendering="geometricPrecision" transform="matrix(1,0,0,1,-252,-78)" stroke-linecap="butt">
      <path fill="none" d="M760 310 L845 310 L845 325 L860 325 L860 338 L760 338 Z" clip-path="url(#clipPath2)"/>
      <path fill="none" d="M845 310 L845 325 L860 325 Z" clip-path="url(#clipPath2)" fill-rule="evenodd"/>
      <text x="783.0352" xml:space="preserve" y="321.1699" clip-path="url(#clipPath2)" font-family="sans-serif" stroke="none">message</text>
      <text x="777.9346" xml:space="preserve" y="335.1387" clip-path="url(#clipPath2)" font-family="sans-serif" stroke="none">(response)</text>
    </g>
    <g fill="white" text-rendering="geometricPrecision" shape-rendering="geometricPrecision" transform="matrix(1,0,0,1,-252,-78)" stroke="white">
      <path d="M760 348 L845 348 L845 363 L860 363 L860 376 L760 376 Z" stroke="none" clip-path="url(#clipPath2)"/>
      <path d="M845 348 L845 363 L860 363 Z" clip-path="url(#clipPath2)" fill-rule="evenodd" stroke="none"/>
    </g>
    <g text-rendering="geometricPrecision" stroke-miterlimit="1.45" shape-rendering="geometricPrecision" transform="matrix(1,0,0,1,-252,-78)" stroke-linecap="butt">
      <path fill="none" d="M760 348 L845 348 L845 363 L860 363 L860 376 L760 376 Z" clip-path="url(#clipPath2)"/>
      <path fill="none" d="M845 348 L845 363 L860 363 Z" clip-path="url(#clipPath2)" fill-rule="evenodd"/>
      <text x="783.0352" xml:space="preserve" y="359.1699" clip-path="url(#clipPath2)" font-family="sans-serif" stroke="none">message</text>
      <text x="777.9346" xml:space="preserve" y="373.1387" clip-path="url(#clipPath2)" font-family="sans-serif" stroke="none">(response)</text>
    </g>
    <g fill="rgb(255,204,0)" text-rendering="geometricPrecision" shape-rendering="geometricPrecision" transform="matrix(1,0,0,1,-252,-78)" stroke="rgb(255,204,0)">
      <rect x="267" y="518" clip-path="url(#clipPath2)" width="97" rx="4" ry="4" height="42" stroke="none"/>
    </g>
    <g text-rendering="geometricPrecision" stroke-miterlimit="1.45" shape-rendering="geometricPrecision" transform="matrix(1,0,0,1,-252,-78)" stroke-linecap="butt">
      <rect x="267" y="518" clip-path="url(#clipPath2)" fill="none" width="97" rx="4" ry="4" height="42"/>
      <text x="282.9365" xml:space="preserve" y="536.1699" clip-path="url(#clipPath2)" font-family="sans-serif" stroke="none">grpc-demo</text>
      <text x="294.3389" xml:space="preserve" y="550.1387" clip-path="url(#clipPath2)" font-family="sans-serif" stroke="none">(client)</text>
    </g>
    <g fill="rgb(255,204,0)" text-rendering="geometricPrecision" shape-rendering="geometricPrecision" transform="matrix(1,0,0,1,-252,-78)" stroke="rgb(255,204,0)">
      <rect x="486" y="518" clip-path="url(#clipPath2)" width="97" rx="4" ry="4" height="42" stroke="none"/>
    </g>
    <g text-rendering="geometricPrecision" stroke-miterlimit="1.45" shape-rendering="geometricPrecision" transform="matrix(1,0,0,1,-252,-78)" stroke-linecap="butt">
      <rect x="486" y="518" clip-path="url(#clipPath2)" fill="none" width="97" rx="4" ry="4" height="42"/>
      <text x="501.9365" xml:space="preserve" y="536.1699" clip-path="url(#clipPath2)" font-family="sans-serif" stroke="none">grpc-demo</text>
      <text x="510.8252" xml:space="preserve" y="550.1387" clip-path="url(#clipPath2)" font-family="sans-serif" stroke="none">(server)</text>
    </g>
    <g fill="rgb(255,204,0)" text-rendering="geometricPrecision" shape-rendering="geometricPrecision" transform="matrix(1,0,0,1,-252,-78)" stroke="rgb(255,204,0)">
      <rect x="306.5" y="585" clip-path="url(#clipPath2)" width="18" rx="4" ry="4" height="230" stroke="none"/>
    </g>
    <g text-rendering="geometricPrecision" stroke-miterlimit="1.45" shape-rendering="geometricPrecision" transform="matrix(1,0,0,1,-252,-78)" stroke-linecap="butt">
      <rect x="306.5" y="585" clip-path="url(#clipPath2)" fill="none" width="18" rx="4" ry="4" height="230"/>
    </g>
    <g fill="rgb(255,204,0)" text-rendering="geometricPrecision" shape-rendering="geometricPrecision" transform="matrix(1,0,0,1,-252,-78)" stroke="rgb(255,204,0)">
      <rect x="525.5" y="585" clip-path="url(#clipPath2)" width="18" rx="4" ry="4" height="230" stroke="none"/>
    </g>
    <g text-rendering="geometricPrecision" stroke-miterlimit="1.45" shape-rendering="geometricPrecision" transform="matrix(1,0,0,1,-252,-78)" stroke-linecap="butt">
      <rect x="525.5" y="585" clip-path="url(#clipPath2)" fill="none" width="18" rx="4" ry="4" height="230"/>
    </g>
    <g fill="white" text-rendering="geometricPrecision" shape-rendering="geometricPrecision" transform="matrix(1,0,0,1,-252,-78)" stroke="white">
      <path d="M375 579 L460 579 L460 594 L475 594 L475 607 L375 607 Z" stroke="none" clip-path="url(#clipPath2)"/>
      <path d="M460 579 L460 594 L475 594 Z" clip-path="url(#clipPath2)" fill-rule="evenodd" stroke="none"/>
    </g>
    <g text-rendering="geometricPrecision" stroke-miterlimit="1.45" shape-rendering="geometricPrecision" transform="matrix(1,0,0,1,-252,-78)" stroke-linecap="butt">
      <path fill="none" d="M375 579 L460 579 L460 594 L475 594 L475 607 L375 607 Z" clip-path="url(#clipPath2)"/>
      <path fill="none" d="M460 579 L460 594 L475 594 Z" clip-path="url(#clipPath2)" fill-rule="evenodd"/>
      <text x="398.0352" xml:space="preserve" y="590.1699" clip-path="url(#clipPath2)" font-family="sans-serif" stroke="none">message</text>
      <text x="397.3789" xml:space="preserve" y="604.1387" clip-path="url(#clipPath2)" font-family="sans-serif" stroke="none">(request)</text>
    </g>
    <g fill="white" text-rendering="geometricPrecision" shape-rendering="geometricPrecision" transform="matrix(1,0,0,1,-252,-78)" stroke="white">
      <path d="M375 642 L460 642 L460 657 L475 657 L475 670 L375 670 Z" stroke="none" clip-path="url(#clipPath2)"/>
      <path d="M460 642 L460 657 L475 657 Z" clip-path="url(#clipPath2)" fill-rule="evenodd" stroke="none"/>
    </g>
    <g text-rendering="geometricPrecision" stroke-miterlimit="1.45" shape-rendering="geometricPrecision" transform="matrix(1,0,0,1,-252,-78)" stroke-linecap="butt">
      <path fill="none" d="M375 642 L460 642 L460 657 L475 657 L475 670 L375 670 Z" clip-path="url(#clipPath2)"/>
      <path fill="none" d="M460 642 L460 657 L475 657 Z" clip-path="url(#clipPath2)" fill-rule="evenodd"/>
      <text x="398.0352" xml:space="preserve" y="653.1699" clip-path="url(#clipPath2)" font-family="sans-serif" stroke="none">message</text>
      <text x="392.9346" xml:space="preserve" y="667.1387" clip-path="url(#clipPath2)" font-family="sans-serif" stroke="none">(response)</text>
    </g>
    <g fill="white" text-rendering="geometricPrecision" shape-rendering="geometricPrecision" transform="matrix(1,0,0,1,-252,-78)" stroke="white">
      <path d="M375 771 L460 771 L460 786 L475 786 L475 799 L375 799 Z" stroke="none" clip-path="url(#clipPath2)"/>
      <path d="M460 771 L460 786 L475 786 Z" clip-path="url(#clipPath2)" fill-rule="evenodd" stroke="none"/>
    </g>
    <g text-rendering="geometricPrecision" stroke-miterlimit="1.45" shape-rendering="geometricPrecision" transform="matrix(1,0,0,1,-252,-78)" stroke-linecap="butt">
      <path fill="none" d="M375 771 L460 771 L460 786 L475 786 L475 799 L375 799 Z" clip-path="url(#clipPath2)"/>
      <path fill="none" d="M460 771 L460 786 L475 786 Z" clip-path="url(#clipPath2)" fill-rule="evenodd"/>
      <text x="398.0352" xml:space="preserve" y="782.1699" clip-path="url(#clipPath2)" font-family="sans-serif" stroke="none">message</text>
      <text x="392.9346" xml:space="preserve" y="796.1387" clip-path="url(#clipPath2)" font-family="sans-serif" stroke="none">(response)</text>
    </g>
    <g fill="rgb(255,204,0)" text-rendering="geometricPrecision" shape-rendering="geometricPrecision" transform="matrix(1,0,0,1,-252,-78)" stroke="rgb(255,204,0)">
      <rect x="652" y="518" clip-path="url(#clipPath2)" width="97" rx="4" ry="4" height="42" stroke="none"/>
    </g>
    <g text-rendering="geometricPrecision" stroke-miterlimit="1.45" shape-rendering="geometricPrecision" transform="matrix(1,0,0,1,-252,-78)" stroke-linecap="butt">
      <rect x="652" y="518" clip-path="url(#clipPath2)" fill="none" width="97" rx="4" ry="4" height="42"/>
      <text x="667.9365" xml:space="preserve" y="536.1699" clip-path="url(#clipPath2)" font-family="sans-serif" stroke="none">grpc-demo</text>
      <text x="679.3389" xml:space="preserve" y="550.1387" clip-path="url(#clipPath2)" font-family="sans-serif" stroke="none">(client)</text>
    </g>
    <g fill="rgb(255,204,0)" text-rendering="geometricPrecision" shape-rendering="geometricPrecision" transform="matrix(1,0,0,1,-252,-78)" stroke="rgb(255,204,0)">
      <rect x="871" y="518" clip-path="url(#clipPath2)" width="97" rx="4" ry="4" height="42" stroke="none"/>
    </g>
    <g text-rendering="geometricPrecision" stroke-miterlimit="1.45" shape-rendering="geometricPrecision" transform="matrix(1,0,0,1,-252,-78)" stroke-linecap="butt">
      <rect x="871" y="518" clip-path="url(#clipPath2)" fill="none" width="97" rx="4" ry="4" height="42"/>
      <text x="886.9365" xml:space="preserve" y="536.1699" clip-path="url(#clipPath2)" font-family="sans-serif" stroke="none">grpc-demo</text>
      <text x="895.8252" xml:space="preserve" y="550.1387" clip-path="url(#clipPath2)" font-family="sans-serif" stroke="none">(server)</text>
    </g>
    <g fill="rgb(255,204,0)" text-rendering="geometricPrecision" shape-rendering="geometricPrecision" transform="matrix(1,0,0,1,-252,-78)" stroke="rgb(255,204,0)">
      <rect x="691.5" y="585" clip-path="url(#clipPath2)" width="18" rx="4" ry="4" height="230" stroke="none"/>
    </g>
    <g text-rendering="geometricPrecision" stroke-miterlimit="1.45" shape-rendering="geometricPrecision" transform="matrix(1,0,0,1,-252,-78)" stroke-linecap="butt">
      <rect x="691.5" y="585" clip-path="url(#clipPath2)" fill="none" width="18" rx="4" ry="4" height="230"/>
    </g>
    <g fill="rgb(255,204,0)" text-rendering="geometricPrecision" shape-rendering="geometricPrecision" transform="matrix(1,0,0,1,-252,-78)" stroke="rgb(255,204,0)">
      <rect x="910.5" y="585" clip-path="url(#clipPath2)" width="18" rx="4" ry="4" height="230" stroke="none"/>
    </g>
    <g text-rendering="geometricPrecision" stroke-miterlimit="1.45" shape-rendering="geometricPrecision" transform="matrix(1,0,0,1,-252,-78)" stroke-linecap="butt">
      <rect x="910.5" y="585" clip-path="url(#clipPath2)" fill="none" width="18" rx="4" ry="4" height="230"/>
    </g>
    <g fill="white" text-rendering="geometricPrecision" shape-rendering="geometricPrecision" transform="matrix(1,0,0,1,-252,-78)" stroke="white">
      <path d="M760 575 L845 575 L845 590 L860 590 L860 603 L760 603 Z" stroke="none" clip-path="url(#clipPath2)"/>
      <path d="M845 575 L845 590 L860 590 Z" clip-path="url(#clipPath2)" fill-rule="evenodd" stroke="none"/>
    </g>
    <g text-rendering="geometricPrecision" stroke-miterlimit="1.45" shape-rendering="geometricPrecision" transform="matrix(1,0,0,1,-252,-78)" stroke-linecap="butt">
      <path fill="none" d="M760 575 L845 575 L845 590 L860 590 L860 603 L760 603 Z" clip-path="url(#clipPath2)"/>
      <path fill="none" d="M845 575 L845 590 L860 590 Z" clip-path="url(#clipPath2)" fill-rule="evenodd"/>
      <text x="783.0352" xml:space="preserve" y="586.1699" clip-path="url(#clipPath2)" font-family="sans-serif" stroke="none">message</text>
      <text x="782.3789" xml:space="preserve" y="600.1387" clip-path="url(#clipPath2)" font-family="sans-serif" stroke="none">(request)</text>
    </g>
    <g fill="white" text-rendering="geometricPrecision" shape-rendering="geometricPrecision" transform="matrix(1,0,0,1,-252,-78)" stroke="white">
      <path d="M760 640 L845 640 L845 655 L860 655 L860 668 L760 668 Z" stroke="none" clip-path="url(#clipPath2)"/>
      <path d="M845 640 L845 655 L860 655 Z" clip-path="url(#clipPath2)" fill-rule="evenodd" stroke="none"/>
    </g>
    <g text-rendering="geometricPrecision" stroke-miterlimit="1.45" shape-rendering="geometricPrecision" transform="matrix(1,0,0,1,-252,-78)" stroke-linecap="butt">
      <path fill="none" d="M760 640 L845 640 L845 655 L860 655 L860 668 L760 668 Z" clip-path="url(#clipPath2)"/>
      <path fill="none" d="M845 640 L845 655 L860 655 Z" clip-path="url(#clipPath2)" fill-rule="evenodd"/>
      <text x="783.0352" xml:space="preserve" y="651.1699" clip-path="url(#clipPath2)" font-family="sans-serif" stroke="none">message</text>
      <text x="782.3789" xml:space="preserve" y="665.1387" clip-path="url(#clipPath2)" font-family="sans-serif" stroke="none">(request)</text>
    </g>
    <g fill="white" text-rendering="geometricPrecision" shape-rendering="geometricPrecision" transform="matrix(1,0,0,1,-252,-78)" stroke="white">
      <path d="M760 705.5 L845 705.5 L845 720.5 L860 720.5 L860 733.5 L760 733.5 Z" stroke="none" clip-path="url(#clipPath2)"/>
      <path d="M845 705.5 L845 720.5 L860 720.5 Z" clip-path="url(#clipPath2)" fill-rule="evenodd" stroke="none"/>
    </g>
    <g text-rendering="geometricPrecision" stroke-miterlimit="1.45" shape-rendering="geometricPrecision" transform="matrix(1,0,0,1,-252,-78)" stroke-linecap="butt">
      <path fill="none" d="M760 705.5 L845 705.5 L845 720.5 L860 720.5 L860 733.5 L760 733.5 Z" clip-path="url(#clipPath2)"/>
      <path fill="none" d="M845 705.5 L845 720.5 L860 720.5 Z" clip-path="url(#clipPath2)" fill-rule="evenodd"/>
      <text x="783.0352" xml:space="preserve" y="716.6699" clip-path="url(#clipPath2)" font-family="sans-serif" stroke="none">message</text>
      <text x="777.9346" xml:space="preserve" y="730.6387" clip-path="url(#clipPath2)" font-family="sans-serif" stroke="none">(response)</text>
    </g>
    <g fill="white" text-rendering="geometricPrecision" shape-rendering="geometricPrecision" transform="matrix(1,0,0,1,-252,-78)" stroke="white">
      <path d="M760 771 L845 771 L845 786 L860 786 L860 799 L760 799 Z" stroke="none" clip-path="url(#clipPath2)"/>
      <path d="M845 771 L845 786 L860 786 Z" clip-path="url(#clipPath2)" fill-rule="evenodd" stroke="none"/>
    </g>
    <g text-rendering="geometricPrecision" stroke-miterlimit="1.45" shape-rendering="geometricPrecision" transform="matrix(1,0,0,1,-252,-78)" stroke-linecap="butt">
      <path fill="none" d="M760 771 L845 771 L845 786 L860 786 L860 799 L760 799 Z" clip-path="url(#clipPath2)"/>
      <path fill="none" d="M845 771 L845 786 L860 786 Z" clip-path="url(#clipPath2)" fill-rule="evenodd"/>
      <text x="783.0352" xml:space="preserve" y="782.1699" clip-path="url(#clipPath2)" font-family="sans-serif" stroke="none">message</text>
      <text x="777.9346" xml:space="preserve" y="796.1387" clip-path="url(#clipPath2)" font-family="sans-serif" stroke="none">(response)</text>
    </g>
    <g fill="white" text-rendering="geometricPrecision" shape-rendering="geometricPrecision" transform="matrix(1,0,0,1,-252,-78)" stroke="white">
      <path d="M375 606 L460 606 L460 621 L475 621 L475 634 L375 634 Z" stroke="none" clip-path="url(#clipPath2)"/>
      <path d="M460 606 L460 621 L475 621 Z" clip-path="url(#clipPath2)" fill-rule="evenodd" stroke="none"/>
    </g>
    <g text-rendering="geometricPrecision" stroke-miterlimit="1.45" shape-rendering="geometricPrecision" transform="matrix(1,0,0,1,-252,-78)" stroke-linecap="butt">
      <path fill="none" d="M375 606 L460 606 L460 621 L475 621 L475 634 L375 634 Z" clip-path="url(#clipPath2)"/>
      <path fill="none" d="M460 606 L460 621 L475 621 Z" clip-path="url(#clipPath2)" fill-rule="evenodd"/>
      <text x="398.0352" xml:space="preserve" y="617.1699" clip-path="url(#clipPath2)" font-family="sans-serif" stroke="none">message</text>
      <text x="397.3789" xml:space="preserve" y="631.1387" clip-path="url(#clipPath2)" font-family="sans-serif" stroke="none">(request)</text>
    </g>
    <g fill="white" text-rendering="geometricPrecision" shape-rendering="geometricPrecision" transform="matrix(1,0,0,1,-252,-78)" stroke="white">
      <path d="M375 798 L460 798 L460 813 L475 813 L475 826 L375 826 Z" stroke="none" clip-path="url(#clipPath2)"/>
      <path d="M460 798 L460 813 L475 813 Z" clip-path="url(#clipPath2)" fill-rule="evenodd" stroke="none"/>
    </g>
    <g text-rendering="geometricPrecision" stroke-miterlimit="1.45" shape-rendering="geometricPrecision" transform="matrix(1,0,0,1,-252,-78)" stroke-linecap="butt">
      <path fill="none" d="M375 798 L460 798 L460 813 L475 813 L475 826 L375 826 Z" clip-path="url(#clipPath2)"/>
      <path fill="none" d="M460 798 L460 813 L475 813 Z" clip-path="url(#clipPath2)" fill-rule="evenodd"/>
      <text x="398.0352" xml:space="preserve" y="809.1699" clip-path="url(#clipPath2)" font-family="sans-serif" stroke="none">message</text>
      <text x="392.9346" xml:space="preserve" y="823.1387" clip-path="url(#clipPath2)" font-family="sans-serif" stroke="none">(response)</text>
    </g>
    <g fill="white" text-rendering="geometricPrecision" shape-rendering="geometricPrecision" transform="matrix(1,0,0,1,-252,-78)" stroke="white">
      <path d="M375 706.5 L460 706.5 L460 721.5 L475 721.5 L475 734.5 L375 734.5 Z" stroke="none" clip-path="url(#clipPath2)"/>
      <path d="M460 706.5 L460 721.5 L475 721.5 Z" clip-path="url(#clipPath2)" fill-rule="evenodd" stroke="none"/>
    </g>
    <g text-rendering="geometricPrecision" stroke-miterlimit="1.45" shape-rendering="geometricPrecision" transform="matrix(1,0,0,1,-252,-78)" stroke-linecap="butt">
      <path fill="none" d="M375 706.5 L460 706.5 L460 721.5 L475 721.5 L475 734.5 L375 734.5 Z" clip-path="url(#clipPath2)"/>
      <path fill="none" d="M460 706.5 L460 721.5 L475 721.5 Z" clip-path="url(#clipPath2)" fill-rule="evenodd"/>
      <text x="398.0352" xml:space="preserve" y="717.6699" clip-path="url(#clipPath2)" font-family="sans-serif" stroke="none">message</text>
      <text x="397.3789" xml:space="preserve" y="731.6387" clip-path="url(#clipPath2)" font-family="sans-serif" stroke="none">(request)</text>
    </g>
    <g fill="white" text-rendering="geometricPrecision" shape-rendering="geometricPrecision" transform="matrix(1,0,0,1,-252,-78)" stroke="white">
      <path d="M375 733.5 L460 733.5 L460 748.5 L475 748.5 L475 761.5 L375 761.5 Z" stroke="none" clip-path="url(#clipPath2)"/>
      <path d="M460 733.5 L460 748.5 L475 748.5 Z" clip-path="url(#clipPath2)" fill-rule="evenodd" stroke="none"/>
    </g>
    <g text-rendering="geometricPrecision" stroke-miterlimit="1.45" shape-rendering="geometricPrecision" transform="matrix(1,0,0,1,-252,-78)" stroke-linecap="butt">
      <path fill="none" d="M375 733.5 L460 733.5 L460 748.5 L475 748.5 L475 761.5 L375 761.5 Z" clip-path="url(#clipPath2)"/>
      <path fill="none" d="M460 733.5 L460 748.5 L475 748.5 Z" clip-path="url(#clipPath2)" fill-rule="evenodd"/>
      <text x="398.0352" xml:space="preserve" y="744.6699" clip-path="url(#clipPath2)" font-family="sans-serif" stroke="none">message</text>
      <text x="397.3789" xml:space="preserve" y="758.6387" clip-path="url(#clipPath2)" font-family="sans-serif" stroke="none">(request)</text>
    </g>
    <g fill="white" text-rendering="geometricPrecision" shape-rendering="geometricPrecision" transform="matrix(1,0,0,1,-252,-78)" stroke="white">
      <path d="M375 669 L460 669 L460 684 L475 684 L475 697 L375 697 Z" stroke="none" clip-path="url(#clipPath2)"/>
      <path d="M460 669 L460 684 L475 684 Z" clip-path="url(#clipPath2)" fill-rule="evenodd" stroke="none"/>
    </g>
    <g text-rendering="geometricPrecision" stroke-miterlimit="1.45" shape-rendering="geometricPrecision" transform="matrix(1,0,0,1,-252,-78)" stroke-linecap="butt">
      <path fill="none" d="M375 669 L460 669 L460 684 L475 684 L475 697 L375 697 Z" clip-path="url(#clipPath2)"/>
      <path fill="none" d="M460 669 L460 684 L475 684 Z" clip-path="url(#clipPath2)" fill-rule="evenodd"/>
      <text x="398.0352" xml:space="preserve" y="680.1699" clip-path="url(#clipPath2)" font-family="sans-serif" stroke="none">message</text>
      <text x="392.9346" xml:space="preserve" y="694.1387" clip-path="url(#clipPath2)" font-family="sans-serif" stroke="none">(response)</text>
    </g>
    <g fill="white" text-rendering="geometricPrecision" shape-rendering="geometricPrecision" transform="matrix(1,0,0,1,-252,-78)" stroke="white">
      <path d="M760 602 L845 602 L845 617 L860 617 L860 630 L760 630 Z" stroke="none" clip-path="url(#clipPath2)"/>
      <path d="M845 602 L845 617 L860 617 Z" clip-path="url(#clipPath2)" fill-rule="evenodd" stroke="none"/>
    </g>
    <g text-rendering="geometricPrecision" stroke-miterlimit="1.45" shape-rendering="geometricPrecision" transform="matrix(1,0,0,1,-252,-78)" stroke-linecap="butt">
      <path fill="none" d="M760 602 L845 602 L845 617 L860 617 L860 630 L760 630 Z" clip-path="url(#clipPath2)"/>
      <path fill="none" d="M845 602 L845 617 L860 617 Z" clip-path="url(#clipPath2)" fill-rule="evenodd"/>
      <text x="783.0352" xml:space="preserve" y="613.1699" clip-path="url(#clipPath2)" font-family="sans-serif" stroke="none">message</text>
      <text x="782.3789" xml:space="preserve" y="627.1387" clip-path="url(#clipPath2)" font-family="sans-serif" stroke="none">(request)</text>
    </g>
    <g fill="white" text-rendering="geometricPrecision" shape-rendering="geometricPrecision" transform="matrix(1,0,0,1,-252,-78)" stroke="white">
      <path d="M760 667 L845 667 L845 682 L860 682 L860 695 L760 695 Z" stroke="none" clip-path="url(#clipPath2)"/>
      <path d="M845 667 L845 682 L860 682 Z" clip-path="url(#clipPath2)" fill-rule="evenodd" stroke="none"/>
    </g>
    <g text-rendering="geometricPrecision" stroke-miterlimit="1.45" shape-rendering="geometricPrecision" transform="matrix(1,0,0,1,-252,-78)" stroke-linecap="butt">
      <path fill="none" d="M760 667 L845 667 L845 682 L860 682 L860 695 L760 695 Z" clip-path="url(#clipPath2)"/>
      <path fill="none" d="M845 667 L845 682 L860 682 Z" clip-path="url(#clipPath2)" fill-rule="evenodd"/>
      <text x="783.0352" xml:space="preserve" y="678.1699" clip-path="url(#clipPath2)" font-family="sans-serif" stroke="none">message</text>
      <text x="782.3789" xml:space="preserve" y="692.1387" clip-path="url(#clipPath2)" font-family="sans-serif" stroke="none">(request)</text>
    </g>
    <g fill="white" text-rendering="geometricPrecision" shape-rendering="geometricPrecision" transform="matrix(1,0,0,1,-252,-78)" stroke="white">
      <path d="M760 798 L845 798 L845 813 L860 813 L860 826 L760 826 Z" stroke="none" clip-path="url(#clipPath2)"/>
      <path d="M845 798 L845 813 L860 813 Z" clip-path="url(#clipPath2)" fill-rule="evenodd" stroke="none"/>
    </g>
    <g text-rendering="geometricPrecision" stroke-miterlimit="1.45" shape-rendering="geometricPrecision" transform="matrix(1,0,0,1,-252,-78)" stroke-linecap="butt">
      <path fill="none" d="M760 798 L845 798 L845 813 L860 813 L860 826 L760 826 Z" clip-path="url(#clipPath2)"/>
      <path fill="none" d="M845 798 L845 813 L860 813 Z" clip-path="url(#clipPath2)" fill-rule="evenodd"/>
      <text x="783.0352" xml:space="preserve" y="809.1699" clip-path="url(#clipPath2)" font-family="sans-serif" stroke="none">message</text>
      <text x="777.9346" xml:space="preserve" y="823.1387" clip-path="url(#clipPath2)" font-family="sans-serif" stroke="none">(response)</text>
    </g>
    <g fill="white" text-rendering="geometricPrecision" shape-rendering="geometricPrecision" transform="matrix(1,0,0,1,-252,-78)" stroke="white">
      <path d="M760 732.5 L845 732.5 L845 747.5 L860 747.5 L860 760.5 L760 760.5 Z" stroke="none" clip-path="url(#clipPath2)"/>
      <path d="M845 732.5 L845 747.5 L860 747.5 Z" clip-path="url(#clipPath2)" fill-rule="evenodd" stroke="none"/>
    </g>
    <g text-rendering="geometricPrecision" stroke-miterlimit="1.45" shape-rendering="geometricPrecision" transform="matrix(1,0,0,1,-252,-78)" stroke-linecap="butt">
      <path fill="none" d="M760 732.5 L845 732.5 L845 747.5 L860 747.5 L860 760.5 L760 760.5 Z" clip-path="url(#clipPath2)"/>
      <path fill="none" d="M845 732.5 L845 747.5 L860 747.5 Z" clip-path="url(#clipPath2)" fill-rule="evenodd"/>
      <text x="783.0352" xml:space="preserve" y="743.6699" clip-path="url(#clipPath2)" font-family="sans-serif" stroke="none">message</text>
      <text x="777.9346" xml:space="preserve" y="757.6387" clip-path="url(#clipPath2)" font-family="sans-serif" stroke="none">(response)</text>
      <text x="366.3477" font-size="16px" y="113.5391" clip-path="url(#clipPath2)" font-family="sans-serif" stroke="none" font-weight="bold" xml:space="preserve">getDataSync</text>
      <text x="746.1562" font-size="16px" y="113.5391" clip-path="url(#clipPath2)" font-family="sans-serif" stroke="none" font-weight="bold" xml:space="preserve">getDataAsync</text>
      <text x="346.4922" font-size="16px" y="508.5391" clip-path="url(#clipPath2)" font-family="sans-serif" stroke="none" font-weight="bold" xml:space="preserve">getBulkDataSync</text>
      <text x="728.3008" font-size="16px" y="508.5391" clip-path="url(#clipPath2)" font-family="sans-serif" stroke="none" font-weight="bold" xml:space="preserve">getBulkDataAsync</text>
      <path fill="none" d="M315.5 165.0291 L315.5 190.0092" clip-path="url(#clipPath2)"/>
      <path fill="none" d="M324.5365 214.3719 L517.5078 229.1216" clip-path="url(#clipPath2)"/>
      <path d="M525.4845 229.7313 L513.9005 223.8313 L516.5107 229.0454 L513.1384 233.8022 Z" clip-path="url(#clipPath2)" stroke="none"/>
      <path fill="none" d="M324.5019 295.2553 L517.5109 304.2116" clip-path="url(#clipPath2)"/>
      <path d="M525.5023 304.5825 L513.7469 299.0316 L516.5119 304.1653 L513.2834 309.0208 Z" clip-path="url(#clipPath2)" stroke="none"/>
      <path fill="none" d="M534.5 165.0291 L534.5 190.0092" clip-path="url(#clipPath2)"/>
      <path fill="none" d="M525.4636 248.2182 L332.4853 267.2734" clip-path="url(#clipPath2)"/>
      <path d="M324.524 268.0596 L336.9573 271.8562 L333.4805 267.1752 L335.9746 261.9046 Z" clip-path="url(#clipPath2)" stroke="none"/>
      <path fill="none" d="M525.4922 330.7304 L332.5229 341.4172" clip-path="url(#clipPath2)"/>
      <path d="M324.5352 341.8596 L336.7933 346.1884 L333.5214 341.3619 L336.2404 336.2037 Z" clip-path="url(#clipPath2)" stroke="none"/>
      <path fill="none" d="M700.5 165.0291 L700.5 190.0092" clip-path="url(#clipPath2)"/>
      <path fill="none" d="M709.5364 214.3719 L902.5078 229.1216" clip-path="url(#clipPath2)"/>
      <path d="M910.4845 229.7313 L898.9005 223.8313 L901.5107 229.0454 L898.1384 233.8022 Z" clip-path="url(#clipPath2)" stroke="none"/>
      <path fill="none" d="M709.5428 250.9647 L902.5057 265.8746" clip-path="url(#clipPath2)"/>
      <path d="M910.4819 266.4909 L898.9028 260.5813 L901.5087 265.7976 L898.1324 270.5516 Z" clip-path="url(#clipPath2)" stroke="none"/>
      <path fill="none" d="M919.5 165.0291 L919.5 190.0092" clip-path="url(#clipPath2)"/>
      <path fill="none" d="M910.5024 306.5448 L717.39 339.701" clip-path="url(#clipPath2)"/>
      <path d="M709.5054 341.0547 L722.1784 343.9521 L718.3756 339.5318 L720.4863 334.0963 Z" clip-path="url(#clipPath2)" stroke="none"/>
      <path fill="none" d="M910.4758 346.7231 L717.4068 382.6888" clip-path="url(#clipPath2)"/>
      <path d="M709.5421 384.1539 L722.2548 386.8717 L718.3899 382.5057 L720.4235 377.0408 Z" clip-path="url(#clipPath2)" stroke="none"/>
      <path fill="none" d="M315.5 560.0291 L315.5 585.0092" clip-path="url(#clipPath2)"/>
      <path fill="none" d="M324.5365 609.3719 L517.5078 624.1216" clip-path="url(#clipPath2)"/>
      <path d="M525.4845 624.7313 L513.9005 618.8313 L516.5107 624.0453 L513.1384 628.8022 Z" clip-path="url(#clipPath2)" stroke="none"/>
      <path fill="none" d="M324.5182 724.4159 L517.5493 746.1479" clip-path="url(#clipPath2)"/>
      <path d="M525.499 747.0429 L514.1337 740.7319 L516.5555 746.0361 L513.015 750.6691 Z" clip-path="url(#clipPath2)" stroke="none"/>
      <path fill="none" d="M534.5 560.0291 L534.5 585.0092" clip-path="url(#clipPath2)"/>
      <path fill="none" d="M525.4636 643.2182 L332.4853 662.2734" clip-path="url(#clipPath2)"/>
      <path d="M324.524 663.0596 L336.9573 666.8562 L333.4805 662.1752 L335.9746 656.9046 Z" clip-path="url(#clipPath2)" stroke="none"/>
      <path fill="none" d="M525.4587 785.3715 L332.4835 804.4576" clip-path="url(#clipPath2)"/>
      <path d="M324.5223 805.2451 L336.9562 809.0397 L333.4786 804.3592 L335.9719 799.0882 Z" clip-path="url(#clipPath2)" stroke="none"/>
      <path fill="none" d="M700.5 560.0291 L700.5 585.0092" clip-path="url(#clipPath2)"/>
      <path fill="none" d="M709.5364 609.3719 L902.5078 624.1216" clip-path="url(#clipPath2)"/>
      <path d="M910.4845 624.7313 L898.9005 618.8313 L901.5107 624.0453 L898.1384 628.8022 Z" clip-path="url(#clipPath2)" stroke="none"/>
      <path fill="none" d="M709.5428 645.9647 L902.5057 660.8746" clip-path="url(#clipPath2)"/>
      <path d="M910.4819 661.491 L898.9028 655.5813 L901.5087 660.7976 L898.1324 665.5516 Z" clip-path="url(#clipPath2)" stroke="none"/>
      <path fill="none" d="M919.5 560.0291 L919.5 585.0092" clip-path="url(#clipPath2)"/>
      <path fill="none" d="M910.4866 729.8391 L717.493 748.86" clip-path="url(#clipPath2)"/>
      <path d="M709.5316 749.6447 L721.9642 753.4435 L718.4882 748.7619 L720.9833 743.4918 Z" clip-path="url(#clipPath2)" stroke="none"/>
      <path fill="none" d="M910.4822 782.1306 L717.5154 798.7294" clip-path="url(#clipPath2)"/>
      <path d="M709.5449 799.4151 L721.9293 803.3682 L718.5117 798.6437 L721.0721 793.405 Z" clip-path="url(#clipPath2)" stroke="none"/>
    </g>
  </g>
</svg>
