<?xml version="1.0" encoding="UTF-8"?><svg xmlns="http://www.w3.org/2000/svg" xmlns:xlink="http://www.w3.org/1999/xlink" fill-opacity="1" color-rendering="auto" color-interpolation="auto" text-rendering="auto" stroke="black" stroke-linecap="square" width="695" stroke-miterlimit="10" shape-rendering="auto" stroke-opacity="1" fill="black" stroke-dasharray="none" font-weight="normal" stroke-width="1" height="345" font-family="'Dialog'" font-style="normal" stroke-linejoin="miter" font-size="12px" stroke-dashoffset="0" image-rendering="auto">
  <!--Generated by ySVG 2.5-->
  <defs id="genericDefs"/>
  <g>
    <defs id="defs1">
      <clipPath clipPathUnits="userSpaceOnUse" id="clipPath1">
        <path d="M0 0 L695 0 L695 345 L0 345 L0 0 Z"/>
      </clipPath>
      <clipPath clipPathUnits="userSpaceOnUse" id="clipPath2">
        <path d="M204 126 L899 126 L899 471 L204 471 L204 126 Z"/>
      </clipPath>
    </defs>
    <g fill="white" text-rendering="geometricPrecision" shape-rendering="geometricPrecision" transform="translate(-204,-126)" stroke="white">
      <rect x="204" width="695" height="345" y="126" clip-path="url(#clipPath2)" stroke="none"/>
    </g>
    <g text-rendering="geometricPrecision" stroke-miterlimit="1.45" shape-rendering="geometricPrecision" transform="matrix(1,0,0,1,-204,-126)" stroke-linecap="butt">
      <rect x="219" y="407" clip-path="url(#clipPath2)" fill="none" width="133" rx="4" ry="4" height="30"/>
      <text x="245.0498" xml:space="preserve" y="426.1543" clip-path="url(#clipPath2)" font-family="sans-serif" stroke="none">JVM (server1)</text>
    </g>
    <g fill="rgb(153,204,0)" text-rendering="geometricPrecision" shape-rendering="geometricPrecision" transform="matrix(1,0,0,1,-204,-126)" stroke="rgb(153,204,0)">
      <rect x="219" y="377" clip-path="url(#clipPath2)" width="133" rx="4" ry="4" height="30" stroke="none"/>
    </g>
    <g text-rendering="geometricPrecision" stroke-miterlimit="1.45" shape-rendering="geometricPrecision" transform="matrix(1,0,0,1,-204,-126)" stroke-linecap="butt">
      <rect x="219" y="377" clip-path="url(#clipPath2)" fill="none" width="133" rx="4" ry="4" height="30"/>
      <text x="256.3496" xml:space="preserve" y="396.1543" clip-path="url(#clipPath2)" font-family="sans-serif" stroke="none">Hazelcast</text>
    </g>
    <g fill="rgb(255,204,0)" text-rendering="geometricPrecision" shape-rendering="geometricPrecision" transform="matrix(1,0,0,1,-204,-126)" stroke="rgb(255,204,0)">
      <rect x="219" y="347" clip-path="url(#clipPath2)" width="133" rx="4" ry="4" height="30" stroke="none"/>
    </g>
    <g text-rendering="geometricPrecision" stroke-miterlimit="1.45" shape-rendering="geometricPrecision" transform="matrix(1,0,0,1,-204,-126)" stroke-linecap="butt">
      <rect x="219" y="347" clip-path="url(#clipPath2)" fill="none" width="133" rx="4" ry="4" height="30"/>
      <text x="246.5967" xml:space="preserve" y="366.1543" clip-path="url(#clipPath2)" font-family="sans-serif" stroke="none">ServiceLayer</text>
    </g>
    <g fill="rgb(153,204,255)" text-rendering="geometricPrecision" shape-rendering="geometricPrecision" transform="matrix(1,0,0,1,-204,-126)" stroke="rgb(153,204,255)">
      <rect x="219" y="317" clip-path="url(#clipPath2)" width="133" rx="4" ry="4" height="30" stroke="none"/>
    </g>
    <g text-rendering="geometricPrecision" stroke-miterlimit="1.45" shape-rendering="geometricPrecision" transform="matrix(1,0,0,1,-204,-126)" stroke-linecap="butt">
      <rect x="219" y="317" clip-path="url(#clipPath2)" fill="none" width="133" rx="4" ry="4" height="30"/>
      <text x="232.0859" xml:space="preserve" y="336.1543" clip-path="url(#clipPath2)" font-family="sans-serif" stroke="none">WebServer (Jetty)</text>
    </g>
    <g fill="rgb(255,204,0)" text-rendering="geometricPrecision" shape-rendering="geometricPrecision" transform="matrix(1,0,0,1,-204,-126)" stroke="rgb(255,204,0)">
      <rect x="219" y="201" clip-path="url(#clipPath2)" width="133" rx="4" ry="4" height="30" stroke="none"/>
    </g>
    <g text-rendering="geometricPrecision" stroke-miterlimit="1.45" shape-rendering="geometricPrecision" transform="matrix(1,0,0,1,-204,-126)" stroke-linecap="butt">
      <rect x="219" y="201" clip-path="url(#clipPath2)" fill="none" width="133" rx="4" ry="4" height="30"/>
      <text x="268.1299" xml:space="preserve" y="220.1543" clip-path="url(#clipPath2)" font-family="sans-serif" stroke="none">Client</text>
      <rect x="485" y="407" clip-path="url(#clipPath2)" fill="none" width="133" rx="4" ry="4" height="30"/>
      <text x="511.0498" xml:space="preserve" y="426.1543" clip-path="url(#clipPath2)" font-family="sans-serif" stroke="none">JVM (server2)</text>
    </g>
    <g fill="rgb(153,204,0)" text-rendering="geometricPrecision" shape-rendering="geometricPrecision" transform="matrix(1,0,0,1,-204,-126)" stroke="rgb(153,204,0)">
      <rect x="485" y="377" clip-path="url(#clipPath2)" width="133" rx="4" ry="4" height="30" stroke="none"/>
    </g>
    <g text-rendering="geometricPrecision" stroke-miterlimit="1.45" shape-rendering="geometricPrecision" transform="matrix(1,0,0,1,-204,-126)" stroke-linecap="butt">
      <rect x="485" y="377" clip-path="url(#clipPath2)" fill="none" width="133" rx="4" ry="4" height="30"/>
      <text x="522.3496" xml:space="preserve" y="396.1543" clip-path="url(#clipPath2)" font-family="sans-serif" stroke="none">Hazelcast</text>
    </g>
    <g fill="rgb(255,204,0)" text-rendering="geometricPrecision" shape-rendering="geometricPrecision" transform="matrix(1,0,0,1,-204,-126)" stroke="rgb(255,204,0)">
      <rect x="485" y="347" clip-path="url(#clipPath2)" width="133" rx="4" ry="4" height="30" stroke="none"/>
    </g>
    <g text-rendering="geometricPrecision" stroke-miterlimit="1.45" shape-rendering="geometricPrecision" transform="matrix(1,0,0,1,-204,-126)" stroke-linecap="butt">
      <rect x="485" y="347" clip-path="url(#clipPath2)" fill="none" width="133" rx="4" ry="4" height="30"/>
      <text x="512.5967" xml:space="preserve" y="366.1543" clip-path="url(#clipPath2)" font-family="sans-serif" stroke="none">ServiceLayer</text>
    </g>
    <g fill="rgb(153,204,255)" text-rendering="geometricPrecision" shape-rendering="geometricPrecision" transform="matrix(1,0,0,1,-204,-126)" stroke="rgb(153,204,255)">
      <rect x="485" y="317" clip-path="url(#clipPath2)" width="133" rx="4" ry="4" height="30" stroke="none"/>
    </g>
    <g text-rendering="geometricPrecision" stroke-miterlimit="1.45" shape-rendering="geometricPrecision" transform="matrix(1,0,0,1,-204,-126)" stroke-linecap="butt">
      <rect x="485" y="317" clip-path="url(#clipPath2)" fill="none" width="133" rx="4" ry="4" height="30"/>
      <text x="498.0859" xml:space="preserve" y="336.1543" clip-path="url(#clipPath2)" font-family="sans-serif" stroke="none">WebServer (Jetty)</text>
    </g>
    <g fill="rgb(255,204,0)" text-rendering="geometricPrecision" shape-rendering="geometricPrecision" transform="matrix(1,0,0,1,-204,-126)" stroke="rgb(255,204,0)">
      <rect x="485" y="201" clip-path="url(#clipPath2)" width="133" rx="4" ry="4" height="30" stroke="none"/>
    </g>
    <g text-rendering="geometricPrecision" stroke-miterlimit="1.45" shape-rendering="geometricPrecision" transform="matrix(1,0,0,1,-204,-126)" stroke-linecap="butt">
      <rect x="485" y="201" clip-path="url(#clipPath2)" fill="none" width="133" rx="4" ry="4" height="30"/>
      <text x="534.1299" xml:space="preserve" y="220.1543" clip-path="url(#clipPath2)" font-family="sans-serif" stroke="none">Client</text>
      <rect x="751" y="407" clip-path="url(#clipPath2)" fill="none" width="133" rx="4" ry="4" height="30"/>
      <text x="777.0498" xml:space="preserve" y="426.1543" clip-path="url(#clipPath2)" font-family="sans-serif" stroke="none">JVM (server3)</text>
    </g>
    <g fill="rgb(153,204,0)" text-rendering="geometricPrecision" shape-rendering="geometricPrecision" transform="matrix(1,0,0,1,-204,-126)" stroke="rgb(153,204,0)">
      <rect x="751" y="377" clip-path="url(#clipPath2)" width="133" rx="4" ry="4" height="30" stroke="none"/>
    </g>
    <g text-rendering="geometricPrecision" stroke-miterlimit="1.45" shape-rendering="geometricPrecision" transform="matrix(1,0,0,1,-204,-126)" stroke-linecap="butt">
      <rect x="751" y="377" clip-path="url(#clipPath2)" fill="none" width="133" rx="4" ry="4" height="30"/>
      <text x="788.3496" xml:space="preserve" y="396.1543" clip-path="url(#clipPath2)" font-family="sans-serif" stroke="none">Hazelcast</text>
    </g>
    <g fill="rgb(255,204,0)" text-rendering="geometricPrecision" shape-rendering="geometricPrecision" transform="matrix(1,0,0,1,-204,-126)" stroke="rgb(255,204,0)">
      <rect x="751" y="347" clip-path="url(#clipPath2)" width="133" rx="4" ry="4" height="30" stroke="none"/>
    </g>
    <g text-rendering="geometricPrecision" stroke-miterlimit="1.45" shape-rendering="geometricPrecision" transform="matrix(1,0,0,1,-204,-126)" stroke-linecap="butt">
      <rect x="751" y="347" clip-path="url(#clipPath2)" fill="none" width="133" rx="4" ry="4" height="30"/>
      <text x="778.5967" xml:space="preserve" y="366.1543" clip-path="url(#clipPath2)" font-family="sans-serif" stroke="none">ServiceLayer</text>
    </g>
    <g fill="rgb(153,204,255)" text-rendering="geometricPrecision" shape-rendering="geometricPrecision" transform="matrix(1,0,0,1,-204,-126)" stroke="rgb(153,204,255)">
      <rect x="751" y="317" clip-path="url(#clipPath2)" width="133" rx="4" ry="4" height="30" stroke="none"/>
    </g>
    <g text-rendering="geometricPrecision" stroke-miterlimit="1.45" shape-rendering="geometricPrecision" transform="matrix(1,0,0,1,-204,-126)" stroke-linecap="butt">
      <rect x="751" y="317" clip-path="url(#clipPath2)" fill="none" width="133" rx="4" ry="4" height="30"/>
      <text x="764.0859" xml:space="preserve" y="336.1543" clip-path="url(#clipPath2)" font-family="sans-serif" stroke="none">WebServer (Jetty)</text>
    </g>
    <g fill="rgb(255,204,0)" text-rendering="geometricPrecision" shape-rendering="geometricPrecision" transform="matrix(1,0,0,1,-204,-126)" stroke="rgb(255,204,0)">
      <rect x="751" y="201" clip-path="url(#clipPath2)" width="133" rx="4" ry="4" height="30" stroke="none"/>
    </g>
    <g text-rendering="geometricPrecision" stroke-miterlimit="1.45" shape-rendering="geometricPrecision" transform="matrix(1,0,0,1,-204,-126)" stroke-linecap="butt">
      <rect x="751" y="201" clip-path="url(#clipPath2)" fill="none" width="133" rx="4" ry="4" height="30"/>
      <text x="800.1299" xml:space="preserve" y="220.1543" clip-path="url(#clipPath2)" font-family="sans-serif" stroke="none">Client</text>
    </g>
    <g fill="rgb(255,204,0)" text-rendering="geometricPrecision" shape-rendering="geometricPrecision" transform="matrix(1,0,0,1,-204,-126)" stroke="rgb(255,204,0)">
      <rect x="219" y="171" clip-path="url(#clipPath2)" width="665" rx="4" ry="4" height="30" stroke="none"/>
    </g>
    <g text-rendering="geometricPrecision" stroke-miterlimit="1.45" shape-rendering="geometricPrecision" transform="matrix(1,0,0,1,-204,-126)" stroke-linecap="butt">
      <rect x="219" y="171" clip-path="url(#clipPath2)" fill="none" width="665" rx="4" ry="4" height="30"/>
      <text x="501.8828" xml:space="preserve" y="190.1543" clip-path="url(#clipPath2)" font-family="sans-serif" stroke="none">Integration tests</text>
      <rect x="219" y="141" clip-path="url(#clipPath2)" fill="none" width="665" rx="4" ry="4" height="30"/>
      <text x="517.3809" xml:space="preserve" y="160.1543" clip-path="url(#clipPath2)" font-family="sans-serif" stroke="none">JVM (client)</text>
      <path fill="none" d="M285.5 238.9814 L285.5 308.9557" clip-path="url(#clipPath2)"/>
      <path d="M285.5 230.9814 L280.5 242.9814 L285.5 239.9814 L290.5 242.9814 Z" clip-path="url(#clipPath2)" stroke="none"/>
      <path d="M285.5 316.9557 L290.5 304.9557 L285.5 307.9557 L280.5 304.9557 Z" clip-path="url(#clipPath2)" stroke="none"/>
      <text x="239.1406" xml:space="preserve" y="271.1699" clip-path="url(#clipPath2)" font-family="sans-serif" stroke="none">http/websocket</text>
      <text x="270.2305" xml:space="preserve" y="285.1387" clip-path="url(#clipPath2)" font-family="sans-serif" stroke="none">8080</text>
      <path fill="none" d="M359.9675 392 L477.0054 392" clip-path="url(#clipPath2)"/>
      <path d="M351.9675 392 L363.9675 397 L360.9675 392 L363.9675 387 Z" clip-path="url(#clipPath2)" stroke="none"/>
      <path d="M485.0054 392 L473.0054 387 L476.0054 392 L473.0054 397 Z" clip-path="url(#clipPath2)" stroke="none"/>
      <path fill="none" d="M551.5 238.9814 L551.5 308.9557" clip-path="url(#clipPath2)"/>
      <path d="M551.5 230.9814 L546.5 242.9814 L551.5 239.9814 L556.5 242.9814 Z" clip-path="url(#clipPath2)" stroke="none"/>
      <path d="M551.5 316.9557 L556.5 304.9557 L551.5 307.9557 L546.5 304.9557 Z" clip-path="url(#clipPath2)" stroke="none"/>
      <text x="505.1406" xml:space="preserve" y="271.1699" clip-path="url(#clipPath2)" font-family="sans-serif" stroke="none">http/websocket</text>
      <text x="532.4131" xml:space="preserve" y="285.1387" clip-path="url(#clipPath2)" font-family="sans-serif" stroke="none">80801</text>
      <path fill="none" d="M625.9675 392 L743.0054 392" clip-path="url(#clipPath2)"/>
      <path d="M617.9675 392 L629.9675 397 L626.9675 392 L629.9675 387 Z" clip-path="url(#clipPath2)" stroke="none"/>
      <path d="M751.0054 392 L739.0054 387 L742.0054 392 L739.0054 397 Z" clip-path="url(#clipPath2)" stroke="none"/>
      <path fill="none" d="M326.0765 409.859 L326.1676 409.9001 L352 420 L385.25 431 L418.5 440 L451.75 447 L485 452 L518.25 455 L551.5 456 L584.75 455 L618 452 L651.25 447 L684.5 440 L717.75 431 L751 420 L776.8323 409.9001 L776.9235 409.859" clip-path="url(#clipPath2)"/>
      <path d="M318.6245 406.949 L327.9837 415.9715 L327.008 410.2228 L331.6212 406.6565 Z" clip-path="url(#clipPath2)" stroke="none"/>
      <path d="M784.3754 406.949 L771.3787 406.6565 L775.9919 410.2227 L775.0162 415.9715 Z" clip-path="url(#clipPath2)" stroke="none"/>
      <path fill="none" d="M817.5 238.9814 L817.5 308.9557" clip-path="url(#clipPath2)"/>
      <path d="M817.5 230.9814 L812.5 242.9814 L817.5 239.9814 L822.5 242.9814 Z" clip-path="url(#clipPath2)" stroke="none"/>
      <path d="M817.5 316.9557 L822.5 304.9557 L817.5 307.9557 L812.5 304.9557 Z" clip-path="url(#clipPath2)" stroke="none"/>
      <text x="771.1406" xml:space="preserve" y="271.1699" clip-path="url(#clipPath2)" font-family="sans-serif" stroke="none">http/websocket</text>
      <text x="802.2305" xml:space="preserve" y="285.1387" clip-path="url(#clipPath2)" font-family="sans-serif" stroke="none">8082</text>
    </g>
  </g>
</svg>
