<?xml version="1.0" encoding="UTF-8"?><svg xmlns="http://www.w3.org/2000/svg" xmlns:xlink="http://www.w3.org/1999/xlink" fill-opacity="1" color-rendering="auto" color-interpolation="auto" text-rendering="auto" stroke="black" stroke-linecap="square" width="503" stroke-miterlimit="10" shape-rendering="auto" stroke-opacity="1" fill="black" stroke-dasharray="none" font-weight="normal" stroke-width="1" height="286" font-family="'Dialog'" font-style="normal" stroke-linejoin="miter" font-size="12px" stroke-dashoffset="0" image-rendering="auto">
  <!--Generated by ySVG 2.5-->
  <defs id="genericDefs"/>
  <g>
    <defs id="defs1">
      <clipPath clipPathUnits="userSpaceOnUse" id="clipPath1">
        <path d="M0 0 L503 0 L503 286 L0 286 L0 0 Z"/>
      </clipPath>
      <clipPath clipPathUnits="userSpaceOnUse" id="clipPath2">
        <path d="M154 201 L657 201 L657 487 L154 487 L154 201 Z"/>
      </clipPath>
    </defs>
    <g fill="white" text-rendering="geometricPrecision" shape-rendering="geometricPrecision" transform="translate(-154,-201)" stroke="white">
      <rect x="154" width="503" height="286" y="201" clip-path="url(#clipPath2)" stroke="none"/>
    </g>
    <g fill="rgb(255,204,0)" text-rendering="geometricPrecision" shape-rendering="geometricPrecision" transform="matrix(1,0,0,1,-154,-201)" stroke="rgb(255,204,0)">
      <rect x="343" y="216" clip-path="url(#clipPath2)" width="123" rx="4" ry="4" height="39" stroke="none"/>
    </g>
    <g text-rendering="geometricPrecision" stroke-miterlimit="1.45" shape-rendering="geometricPrecision" transform="matrix(1,0,0,1,-154,-201)" stroke-linecap="butt">
      <rect x="343" y="216" clip-path="url(#clipPath2)" fill="none" width="123" rx="4" ry="4" height="39"/>
      <text x="371.4033" xml:space="preserve" y="232.6699" clip-path="url(#clipPath2)" font-family="sans-serif" stroke="none">application</text>
      <text x="382.0146" xml:space="preserve" y="246.6387" clip-path="url(#clipPath2)" font-family="sans-serif" stroke="none">module</text>
    </g>
    <g fill="rgb(255,204,0)" text-rendering="geometricPrecision" shape-rendering="geometricPrecision" transform="matrix(1,0,0,1,-154,-201)" stroke="rgb(255,204,0)">
      <rect x="169" y="433" clip-path="url(#clipPath2)" width="123" rx="4" ry="4" height="39" stroke="none"/>
    </g>
    <g text-rendering="geometricPrecision" stroke-miterlimit="1.45" shape-rendering="geometricPrecision" transform="matrix(1,0,0,1,-154,-201)" stroke-linecap="butt">
      <rect x="169" y="433" clip-path="url(#clipPath2)" fill="none" width="123" rx="4" ry="4" height="39"/>
      <text x="180.373" xml:space="preserve" y="449.6699" clip-path="url(#clipPath2)" font-family="sans-serif" stroke="none">service-compute</text>
      <text x="208.0146" xml:space="preserve" y="463.6387" clip-path="url(#clipPath2)" font-family="sans-serif" stroke="none">module</text>
    </g>
    <g fill="rgb(255,204,0)" text-rendering="geometricPrecision" shape-rendering="geometricPrecision" transform="matrix(1,0,0,1,-154,-201)" stroke="rgb(255,204,0)">
      <rect x="327.5" y="345" clip-path="url(#clipPath2)" width="154" rx="4" ry="4" height="39" stroke="none"/>
    </g>
    <g text-rendering="geometricPrecision" stroke-miterlimit="1.45" shape-rendering="geometricPrecision" transform="matrix(1,0,0,1,-154,-201)" stroke-linecap="butt">
      <rect x="327.5" y="345" clip-path="url(#clipPath2)" fill="none" width="154" rx="4" ry="4" height="39"/>
      <text x="334.7529" xml:space="preserve" y="361.6699" clip-path="url(#clipPath2)" font-family="sans-serif" stroke="none">service-compute-async</text>
      <text x="382.0146" xml:space="preserve" y="375.6387" clip-path="url(#clipPath2)" font-family="sans-serif" stroke="none">module</text>
    </g>
    <g fill="rgb(255,204,0)" text-rendering="geometricPrecision" shape-rendering="geometricPrecision" transform="matrix(1,0,0,1,-154,-201)" stroke="rgb(255,204,0)">
      <rect x="519" y="433" clip-path="url(#clipPath2)" width="123" rx="4" ry="4" height="39" stroke="none"/>
    </g>
    <g text-rendering="geometricPrecision" stroke-miterlimit="1.45" shape-rendering="geometricPrecision" transform="matrix(1,0,0,1,-154,-201)" stroke-linecap="butt">
      <rect x="519" y="433" clip-path="url(#clipPath2)" fill="none" width="123" rx="4" ry="4" height="39"/>
      <text x="541.0869" xml:space="preserve" y="449.6699" clip-path="url(#clipPath2)" font-family="sans-serif" stroke="none">service-tasks</text>
      <text x="558.0146" xml:space="preserve" y="463.6387" clip-path="url(#clipPath2)" font-family="sans-serif" stroke="none">module</text>
      <path fill="none" d="M246.1541 432.9774 L383.858 261.2432" clip-path="url(#clipPath2)"/>
      <path d="M388.8626 255.0019 L377.4549 261.236 L383.2324 262.0233 L385.2566 267.4917 Z" clip-path="url(#clipPath2)" stroke="none"/>
      <path fill="none" d="M269.0298 433.0137 L358.8301 387.5974" clip-path="url(#clipPath2)"/>
      <path d="M365.969 383.9869 L353.0041 384.9408 L357.9377 388.0487 L357.5172 393.8645 Z" clip-path="url(#clipPath2)" stroke="none"/>
      <path fill="none" d="M404.5 345.0051 L404.5 262.9896" clip-path="url(#clipPath2)"/>
      <path d="M404.5 254.9896 L399.5 266.9896 L404.5 263.9896 L409.5 266.9896 Z" clip-path="url(#clipPath2)" stroke="none"/>
      <path fill="none" d="M541.5273 433.0137 L450.6293 387.5646" clip-path="url(#clipPath2)"/>
      <path d="M443.4738 383.9869 L451.9709 393.8256 L451.5237 388.0118 L456.4431 384.8813 Z" clip-path="url(#clipPath2)" stroke="none"/>
      <path fill="none" d="M564.666 432.9774 L425.3565 261.2151" clip-path="url(#clipPath2)"/>
      <path d="M420.3172 255.0019 L423.9929 267.4714 L425.9865 261.9918 L431.7595 261.1722 Z" clip-path="url(#clipPath2)" stroke="none"/>
    </g>
  </g>
</svg>
