<?xml version="1.0" encoding="UTF-8"?><svg xmlns="http://www.w3.org/2000/svg" xmlns:xlink="http://www.w3.org/1999/xlink" fill-opacity="1" color-rendering="auto" color-interpolation="auto" text-rendering="auto" stroke="black" stroke-linecap="square" width="374" stroke-miterlimit="10" shape-rendering="auto" stroke-opacity="1" fill="black" stroke-dasharray="none" font-weight="normal" stroke-width="1" height="346" font-family="'Dialog'" font-style="normal" stroke-linejoin="miter" font-size="12px" stroke-dashoffset="0" image-rendering="auto">
  <!--Generated by ySVG 2.5-->
  <defs id="genericDefs"/>
  <g>
    <defs id="defs1">
      <clipPath clipPathUnits="userSpaceOnUse" id="clipPath1">
        <path d="M0 0 L374 0 L374 346 L0 346 L0 0 Z"/>
      </clipPath>
      <clipPath clipPathUnits="userSpaceOnUse" id="clipPath2">
        <path d="M559 115 L933 115 L933 461 L559 461 L559 115 Z"/>
      </clipPath>
    </defs>
    <g fill="white" text-rendering="geometricPrecision" shape-rendering="geometricPrecision" transform="translate(-559,-115)" stroke="white">
      <rect x="559" width="374" height="346" y="115" clip-path="url(#clipPath2)" stroke="none"/>
    </g>
    <g fill="rgb(255,204,0)" text-rendering="geometricPrecision" shape-rendering="geometricPrecision" transform="matrix(1,0,0,1,-559,-115)" stroke="rgb(255,204,0)">
      <rect x="676.1118" y="130.7934" clip-path="url(#clipPath2)" width="106" rx="4" ry="4" height="50" stroke="none"/>
    </g>
    <g text-rendering="geometricPrecision" stroke-miterlimit="1.45" shape-rendering="geometricPrecision" transform="matrix(1,0,0,1,-559,-115)" stroke-linecap="butt">
      <rect x="676.1118" y="130.7934" clip-path="url(#clipPath2)" fill="none" width="106" rx="4" ry="4" height="50"/>
      <text x="694.0522" xml:space="preserve" y="159.9477" clip-path="url(#clipPath2)" font-family="sans-serif" stroke="none">kafka-client</text>
    </g>
    <g fill="rgb(255,204,0)" text-rendering="geometricPrecision" shape-rendering="geometricPrecision" transform="matrix(1,0,0,1,-559,-115)" stroke="rgb(255,204,0)">
      <rect x="574.3056" y="388" clip-path="url(#clipPath2)" width="92.2396" rx="4" ry="4" height="58" stroke="none"/>
    </g>
    <g text-rendering="geometricPrecision" stroke-miterlimit="1.45" shape-rendering="geometricPrecision" transform="matrix(1,0,0,1,-559,-115)" stroke-linecap="butt">
      <rect x="574.3056" y="388" clip-path="url(#clipPath2)" fill="none" width="92.2396" rx="4" ry="4" height="58"/>
      <text x="580.3531" xml:space="preserve" y="421.1543" clip-path="url(#clipPath2)" font-family="sans-serif" stroke="none">kafka-service</text>
    </g>
    <g fill="rgb(255,204,0)" text-rendering="geometricPrecision" shape-rendering="geometricPrecision" transform="matrix(1,0,0,1,-559,-115)" stroke="rgb(255,204,0)">
      <rect x="610" y="261" clip-path="url(#clipPath2)" width="274.0257" rx="4" ry="4" height="68.5983" stroke="none"/>
    </g>
    <g text-rendering="geometricPrecision" stroke-miterlimit="1.45" shape-rendering="geometricPrecision" transform="matrix(1,0,0,1,-559,-115)" stroke-linecap="butt">
      <rect x="610" y="261" clip-path="url(#clipPath2)" fill="none" width="274.0257" rx="4" ry="4" height="68.5983"/>
      <text x="616" xml:space="preserve" y="278.1387" clip-path="url(#clipPath2)" font-family="sans-serif" stroke="none">Kafka</text>
    </g>
    <g fill="rgb(255,204,0)" text-rendering="geometricPrecision" shape-rendering="geometricPrecision" transform="matrix(1,0,0,1,-559,-115)" stroke="rgb(255,204,0)">
      <rect x="614.6356" y="292.1205" clip-path="url(#clipPath2)" width="139.6972" rx="4" ry="4" height="29.7819" stroke="none"/>
    </g>
    <g text-rendering="geometricPrecision" stroke-miterlimit="1.45" shape-rendering="geometricPrecision" transform="matrix(1,0,0,1,-559,-115)" stroke-linecap="butt">
      <rect x="614.6356" y="292.1205" clip-path="url(#clipPath2)" fill="none" width="139.6972" rx="4" ry="4" height="29.7819"/>
      <text x="634.7615" xml:space="preserve" y="304.1814" clip-path="url(#clipPath2)" font-family="sans-serif" stroke="none">service-requests</text>
      <text x="669.6863" xml:space="preserve" y="318.1501" clip-path="url(#clipPath2)" font-family="sans-serif" stroke="none">topic</text>
    </g>
    <g fill="rgb(255,204,0)" text-rendering="geometricPrecision" shape-rendering="geometricPrecision" transform="matrix(1,0,0,1,-559,-115)" stroke="rgb(255,204,0)">
      <rect x="763.4045" y="292.1205" clip-path="url(#clipPath2)" width="114.0616" rx="4" ry="4" height="29.7819" stroke="none"/>
    </g>
    <g text-rendering="geometricPrecision" stroke-miterlimit="1.45" shape-rendering="geometricPrecision" transform="matrix(1,0,0,1,-559,-115)" stroke-linecap="butt">
      <rect x="763.4045" y="292.1205" clip-path="url(#clipPath2)" fill="none" width="114.0616" rx="4" ry="4" height="29.7819"/>
      <text x="766.2684" xml:space="preserve" y="304.1814" clip-path="url(#clipPath2)" font-family="sans-serif" stroke="none">service-responses</text>
      <text x="805.6375" xml:space="preserve" y="318.1501" clip-path="url(#clipPath2)" font-family="sans-serif" stroke="none">topic</text>
    </g>
    <g fill="rgb(255,204,0)" text-rendering="geometricPrecision" shape-rendering="geometricPrecision" transform="matrix(1,0,0,1,-559,-115)" stroke="rgb(255,204,0)">
      <rect x="685.7202" y="137.2066" clip-path="url(#clipPath2)" width="106" rx="4" ry="4" height="50" stroke="none"/>
    </g>
    <g text-rendering="geometricPrecision" stroke-miterlimit="1.45" shape-rendering="geometricPrecision" transform="matrix(1,0,0,1,-559,-115)" stroke-linecap="butt">
      <rect x="685.7202" y="137.2066" clip-path="url(#clipPath2)" fill="none" width="106" rx="4" ry="4" height="50"/>
      <text x="703.6606" xml:space="preserve" y="166.3609" clip-path="url(#clipPath2)" font-family="sans-serif" stroke="none">kafka-client</text>
    </g>
    <g fill="rgb(255,204,0)" text-rendering="geometricPrecision" shape-rendering="geometricPrecision" transform="matrix(1,0,0,1,-559,-115)" stroke="rgb(255,204,0)">
      <rect x="694.0129" y="143.8149" clip-path="url(#clipPath2)" width="106" rx="4" ry="4" height="50" stroke="none"/>
    </g>
    <g text-rendering="geometricPrecision" stroke-miterlimit="1.45" shape-rendering="geometricPrecision" transform="matrix(1,0,0,1,-559,-115)" stroke-linecap="butt">
      <rect x="694.0129" y="143.8149" clip-path="url(#clipPath2)" fill="none" width="106" rx="4" ry="4" height="50"/>
      <text x="711.9533" xml:space="preserve" y="172.9692" clip-path="url(#clipPath2)" font-family="sans-serif" stroke="none">kafka-client</text>
    </g>
    <g fill="rgb(255,204,0)" text-rendering="geometricPrecision" shape-rendering="geometricPrecision" transform="matrix(1,0,0,1,-559,-115)" stroke="rgb(255,204,0)">
      <rect x="696.5452" y="388" clip-path="url(#clipPath2)" width="92.2396" rx="4" ry="4" height="58" stroke="none"/>
    </g>
    <g text-rendering="geometricPrecision" stroke-miterlimit="1.45" shape-rendering="geometricPrecision" transform="matrix(1,0,0,1,-559,-115)" stroke-linecap="butt">
      <rect x="696.5452" y="388" clip-path="url(#clipPath2)" fill="none" width="92.2396" rx="4" ry="4" height="58"/>
      <text x="702.5927" xml:space="preserve" y="421.1543" clip-path="url(#clipPath2)" font-family="sans-serif" stroke="none">kafka-service</text>
    </g>
    <g fill="rgb(255,204,0)" text-rendering="geometricPrecision" shape-rendering="geometricPrecision" transform="matrix(1,0,0,1,-559,-115)" stroke="rgb(255,204,0)">
      <rect x="825.6211" y="388" clip-path="url(#clipPath2)" width="92.2396" rx="4" ry="4" height="58" stroke="none"/>
    </g>
    <g text-rendering="geometricPrecision" stroke-miterlimit="1.45" shape-rendering="geometricPrecision" transform="matrix(1,0,0,1,-559,-115)" stroke-linecap="butt">
      <rect x="825.6211" y="388" clip-path="url(#clipPath2)" fill="none" width="92.2396" rx="4" ry="4" height="58"/>
      <text x="831.6686" xml:space="preserve" y="421.1543" clip-path="url(#clipPath2)" font-family="sans-serif" stroke="none">kafka-service</text>
      <path fill="none" d="M675.8044 321.9147 L641.3384 381.0925" clip-path="url(#clipPath2)"/>
      <path d="M637.3122 388.0055 L647.6721 380.1524 L641.8417 380.2284 L639.0309 375.1196 Z" clip-path="url(#clipPath2)" stroke="none"/>
      <path fill="none" d="M666.5458 391.6377 L786.3369 325.7627" clip-path="url(#clipPath2)"/>
      <path d="M793.3469 321.9078 L780.4227 323.3089 L785.4607 326.2446 L785.2412 332.0714 Z" clip-path="url(#clipPath2)" stroke="none"/>
      <path fill="none" d="M781.3327 292.1068 L781.3327 201.8285" clip-path="url(#clipPath2)"/>
      <path d="M781.3327 193.8285 L776.3327 205.8285 L781.3327 202.8285 L786.3327 205.8285 Z" clip-path="url(#clipPath2)" stroke="none"/>
      <path fill="none" d="M734.5164 193.8418 L734.5164 284.1287" clip-path="url(#clipPath2)"/>
      <path d="M734.5164 292.1287 L739.5164 280.1287 L734.5164 283.1287 L729.5164 280.1287 Z" clip-path="url(#clipPath2)" stroke="none"/>
      <path fill="none" d="M692.3676 321.9147 L723.587 380.9339" clip-path="url(#clipPath2)"/>
      <path d="M727.3277 388.0055 L726.1365 375.0602 L723.1194 380.05 L717.2969 379.736 Z" clip-path="url(#clipPath2)" stroke="none"/>
      <path fill="none" d="M763.1519 388.026 L805.2718 328.4568" clip-path="url(#clipPath2)"/>
      <path d="M809.8905 321.9248 L798.8799 328.8362 L804.6945 329.2733 L807.045 334.6096 Z" clip-path="url(#clipPath2)" stroke="none"/>
      <path fill="none" d="M709.8343 321.9013 L819.188 386.1321" clip-path="url(#clipPath2)"/>
      <path d="M826.0861 390.1838 L818.2712 379.795 L818.3257 385.6256 L813.2066 388.4176 Z" clip-path="url(#clipPath2)" stroke="none"/>
      <path fill="none" d="M858.2256 388.026 L830.7737 329.1748" clip-path="url(#clipPath2)"/>
      <path d="M827.3918 321.9248 L827.9334 334.9135 L831.1965 330.0811 L836.996 330.6861 Z" clip-path="url(#clipPath2)" stroke="none"/>
    </g>
  </g>
</svg>
