<?xml version="1.0" encoding="UTF-8"?><svg xmlns="http://www.w3.org/2000/svg" xmlns:xlink="http://www.w3.org/1999/xlink" fill-opacity="1" color-rendering="auto" color-interpolation="auto" text-rendering="auto" stroke="black" stroke-linecap="square" width="356" stroke-miterlimit="10" shape-rendering="auto" stroke-opacity="1" fill="black" stroke-dasharray="none" font-weight="normal" stroke-width="1" height="461" font-family="'Dialog'" font-style="normal" stroke-linejoin="miter" font-size="12px" stroke-dashoffset="0" image-rendering="auto">
  <!--Generated by ySVG 2.5-->
  <defs id="genericDefs"/>
  <g>
    <defs id="defs1">
      <clipPath clipPathUnits="userSpaceOnUse" id="clipPath1">
        <path d="M0 0 L356 0 L356 461 L0 461 L0 0 Z"/>
      </clipPath>
      <clipPath clipPathUnits="userSpaceOnUse" id="clipPath2">
        <path d="M575 115 L931 115 L931 576 L575 576 L575 115 Z"/>
      </clipPath>
    </defs>
    <g fill="white" text-rendering="geometricPrecision" shape-rendering="geometricPrecision" transform="translate(-575,-115)" stroke="white">
      <rect x="575" width="356" height="461" y="115" clip-path="url(#clipPath2)" stroke="none"/>
    </g>
    <g fill="rgb(255,204,0)" text-rendering="geometricPrecision" shape-rendering="geometricPrecision" transform="matrix(1,0,0,1,-575,-115)" stroke="rgb(255,204,0)">
      <rect x="676.1118" y="130.7934" clip-path="url(#clipPath2)" width="106" rx="4" ry="4" height="50" stroke="none"/>
    </g>
    <g text-rendering="geometricPrecision" stroke-miterlimit="1.45" shape-rendering="geometricPrecision" transform="matrix(1,0,0,1,-575,-115)" stroke-linecap="butt">
      <rect x="676.1118" y="130.7934" clip-path="url(#clipPath2)" fill="none" width="106" rx="4" ry="4" height="50"/>
      <text x="694.0522" xml:space="preserve" y="159.9477" clip-path="url(#clipPath2)" font-family="sans-serif" stroke="none">kafka-client</text>
    </g>
    <g fill="rgb(255,204,0)" text-rendering="geometricPrecision" shape-rendering="geometricPrecision" transform="matrix(1,0,0,1,-575,-115)" stroke="rgb(255,204,0)">
      <rect x="590.8802" y="503" clip-path="url(#clipPath2)" width="92.2396" rx="4" ry="4" height="58" stroke="none"/>
    </g>
    <g text-rendering="geometricPrecision" stroke-miterlimit="1.45" shape-rendering="geometricPrecision" transform="matrix(1,0,0,1,-575,-115)" stroke-linecap="butt">
      <rect x="590.8802" y="503" clip-path="url(#clipPath2)" fill="none" width="92.2396" rx="4" ry="4" height="58"/>
      <text x="596.9277" xml:space="preserve" y="536.1543" clip-path="url(#clipPath2)" font-family="sans-serif" stroke="none">kafka-service</text>
    </g>
    <g fill="silver" text-rendering="geometricPrecision" shape-rendering="geometricPrecision" transform="matrix(1,0,0,1,-575,-115)" stroke="silver">
      <rect x="610" y="261" clip-path="url(#clipPath2)" width="274.0257" rx="4" ry="4" height="138.5983" stroke="none"/>
    </g>
    <g text-rendering="geometricPrecision" stroke-miterlimit="1.45" shape-rendering="geometricPrecision" transform="matrix(1,0,0,1,-575,-115)" stroke-linecap="butt">
      <rect x="610" y="261" clip-path="url(#clipPath2)" fill="none" width="274.0257" rx="4" ry="4" height="138.5983"/>
      <text x="616" xml:space="preserve" y="278.1387" clip-path="url(#clipPath2)" font-family="sans-serif" stroke="none">Kafka</text>
    </g>
    <g fill="rgb(255,204,0)" text-rendering="geometricPrecision" shape-rendering="geometricPrecision" transform="matrix(1,0,0,1,-575,-115)" stroke="rgb(255,204,0)">
      <rect x="614.6356" y="292.1205" clip-path="url(#clipPath2)" width="139.6972" rx="4" ry="4" height="91" stroke="none"/>
    </g>
    <g text-rendering="geometricPrecision" stroke-miterlimit="1.45" shape-rendering="geometricPrecision" transform="matrix(1,0,0,1,-575,-115)" stroke-linecap="butt">
      <rect x="614.6356" y="292.1205" clip-path="url(#clipPath2)" fill="none" width="139.6972" rx="4" ry="4" height="91"/>
      <text x="620.6356" xml:space="preserve" y="309.2592" clip-path="url(#clipPath2)" font-family="sans-serif" stroke="none">service-requests</text>
      <text x="655.5604" xml:space="preserve" y="323.2279" clip-path="url(#clipPath2)" font-family="sans-serif" stroke="none">topic</text>
    </g>
    <g fill="rgb(255,204,0)" text-rendering="geometricPrecision" shape-rendering="geometricPrecision" transform="matrix(1,0,0,1,-575,-115)" stroke="rgb(255,204,0)">
      <rect x="763.4045" y="292.1205" clip-path="url(#clipPath2)" width="114.0616" rx="4" ry="4" height="91" stroke="none"/>
    </g>
    <g text-rendering="geometricPrecision" stroke-miterlimit="1.45" shape-rendering="geometricPrecision" transform="matrix(1,0,0,1,-575,-115)" stroke-linecap="butt">
      <rect x="763.4045" y="292.1205" clip-path="url(#clipPath2)" fill="none" width="114.0616" rx="4" ry="4" height="91"/>
      <text x="766.2684" xml:space="preserve" y="334.7904" clip-path="url(#clipPath2)" font-family="sans-serif" stroke="none">service-responses</text>
      <text x="805.6375" xml:space="preserve" y="348.7592" clip-path="url(#clipPath2)" font-family="sans-serif" stroke="none">topic</text>
    </g>
    <g fill="rgb(255,204,0)" text-rendering="geometricPrecision" shape-rendering="geometricPrecision" transform="matrix(1,0,0,1,-575,-115)" stroke="rgb(255,204,0)">
      <rect x="685.7202" y="137.2066" clip-path="url(#clipPath2)" width="106" rx="4" ry="4" height="50" stroke="none"/>
    </g>
    <g text-rendering="geometricPrecision" stroke-miterlimit="1.45" shape-rendering="geometricPrecision" transform="matrix(1,0,0,1,-575,-115)" stroke-linecap="butt">
      <rect x="685.7202" y="137.2066" clip-path="url(#clipPath2)" fill="none" width="106" rx="4" ry="4" height="50"/>
      <text x="703.6606" xml:space="preserve" y="166.3609" clip-path="url(#clipPath2)" font-family="sans-serif" stroke="none">kafka-client</text>
    </g>
    <g fill="rgb(255,204,0)" text-rendering="geometricPrecision" shape-rendering="geometricPrecision" transform="matrix(1,0,0,1,-575,-115)" stroke="rgb(255,204,0)">
      <rect x="694.0129" y="143.8149" clip-path="url(#clipPath2)" width="106" rx="4" ry="4" height="50" stroke="none"/>
    </g>
    <g text-rendering="geometricPrecision" stroke-miterlimit="1.45" shape-rendering="geometricPrecision" transform="matrix(1,0,0,1,-575,-115)" stroke-linecap="butt">
      <rect x="694.0129" y="143.8149" clip-path="url(#clipPath2)" fill="none" width="106" rx="4" ry="4" height="50"/>
      <text x="711.9533" xml:space="preserve" y="172.9692" clip-path="url(#clipPath2)" font-family="sans-serif" stroke="none">kafka-client</text>
    </g>
    <g fill="rgb(255,204,0)" text-rendering="geometricPrecision" shape-rendering="geometricPrecision" transform="matrix(1,0,0,1,-575,-115)" stroke="rgb(255,204,0)">
      <rect x="707.0064" y="503" clip-path="url(#clipPath2)" width="92.2396" rx="4" ry="4" height="58" stroke="none"/>
    </g>
    <g text-rendering="geometricPrecision" stroke-miterlimit="1.45" shape-rendering="geometricPrecision" transform="matrix(1,0,0,1,-575,-115)" stroke-linecap="butt">
      <rect x="707.0064" y="503" clip-path="url(#clipPath2)" fill="none" width="92.2396" rx="4" ry="4" height="58"/>
      <text x="713.054" xml:space="preserve" y="536.1543" clip-path="url(#clipPath2)" font-family="sans-serif" stroke="none">kafka-service</text>
    </g>
    <g fill="rgb(255,204,0)" text-rendering="geometricPrecision" shape-rendering="geometricPrecision" transform="matrix(1,0,0,1,-575,-115)" stroke="rgb(255,204,0)">
      <rect x="823.1327" y="503" clip-path="url(#clipPath2)" width="92.2396" rx="4" ry="4" height="58" stroke="none"/>
    </g>
    <g text-rendering="geometricPrecision" stroke-miterlimit="1.45" shape-rendering="geometricPrecision" transform="matrix(1,0,0,1,-575,-115)" stroke-linecap="butt">
      <rect x="823.1327" y="503" clip-path="url(#clipPath2)" fill="none" width="92.2396" rx="4" ry="4" height="58"/>
      <text x="829.1802" xml:space="preserve" y="536.1543" clip-path="url(#clipPath2)" font-family="sans-serif" stroke="none">kafka-service</text>
    </g>
    <g fill="rgb(255,204,0)" text-rendering="geometricPrecision" shape-rendering="geometricPrecision" transform="matrix(1,0,0,1,-575,-115)" stroke="rgb(255,204,0)">
      <rect x="622" y="344" clip-path="url(#clipPath2)" width="30" rx="4" ry="4" height="30" stroke="none"/>
    </g>
    <g text-rendering="geometricPrecision" stroke-miterlimit="1.45" shape-rendering="geometricPrecision" transform="matrix(1,0,0,1,-575,-115)" stroke-linecap="butt">
      <rect x="622" y="344" clip-path="url(#clipPath2)" fill="none" width="30" rx="4" ry="4" height="30"/>
      <text x="629.5645" xml:space="preserve" y="363.1543" clip-path="url(#clipPath2)" font-family="sans-serif" stroke="none">P1</text>
    </g>
    <g fill="rgb(255,204,0)" text-rendering="geometricPrecision" shape-rendering="geometricPrecision" transform="matrix(1,0,0,1,-575,-115)" stroke="rgb(255,204,0)">
      <rect x="662" y="344" clip-path="url(#clipPath2)" width="30" rx="4" ry="4" height="30" stroke="none"/>
    </g>
    <g text-rendering="geometricPrecision" stroke-miterlimit="1.45" shape-rendering="geometricPrecision" transform="matrix(1,0,0,1,-575,-115)" stroke-linecap="butt">
      <rect x="662" y="344" clip-path="url(#clipPath2)" fill="none" width="30" rx="4" ry="4" height="30"/>
      <text x="669.5645" xml:space="preserve" y="363.1543" clip-path="url(#clipPath2)" font-family="sans-serif" stroke="none">P2</text>
    </g>
    <g fill="rgb(255,204,0)" text-rendering="geometricPrecision" shape-rendering="geometricPrecision" transform="matrix(1,0,0,1,-575,-115)" stroke="rgb(255,204,0)">
      <rect x="703.4045" y="344" clip-path="url(#clipPath2)" width="30" rx="4" ry="4" height="30" stroke="none"/>
    </g>
    <g text-rendering="geometricPrecision" stroke-miterlimit="1.45" shape-rendering="geometricPrecision" transform="matrix(1,0,0,1,-575,-115)" stroke-linecap="butt">
      <rect x="703.4045" y="344" clip-path="url(#clipPath2)" fill="none" width="30" rx="4" ry="4" height="30"/>
      <text x="710.969" xml:space="preserve" y="363.1543" clip-path="url(#clipPath2)" font-family="sans-serif" stroke="none">P3</text>
      <path fill="none" d="M664.3854 502.9807 L771.989 388.9572" clip-path="url(#clipPath2)"/>
      <path d="M777.4797 383.139 L765.6073 388.4347 L771.3027 389.6845 L772.8801 395.2981 Z" clip-path="url(#clipPath2)" stroke="none"/>
      <path fill="none" d="M781.3327 292.1292 L781.3327 201.8331" clip-path="url(#clipPath2)"/>
      <path d="M781.3327 193.8331 L776.3327 205.8331 L781.3327 202.8331 L786.3327 205.8331 Z" clip-path="url(#clipPath2)" stroke="none"/>
      <path fill="none" d="M734.5164 193.8328 L734.5164 284.1011" clip-path="url(#clipPath2)"/>
      <path d="M734.5164 292.1011 L739.5164 280.1011 L734.5164 283.1011 L729.5164 280.1011 Z" clip-path="url(#clipPath2)" stroke="none"/>
      <path fill="none" d="M763.1749 502.9807 L802.0626 390.6784" clip-path="url(#clipPath2)"/>
      <path d="M804.6804 383.1188 L796.029 392.8221 L801.7354 391.6233 L805.4785 396.0942 Z" clip-path="url(#clipPath2)" stroke="none"/>
      <path fill="none" d="M861.9704 503.0044 L833.8122 390.8843" clip-path="url(#clipPath2)"/>
      <path d="M831.8636 383.1253 L829.9371 395.9818 L834.0558 391.8542 L839.6359 393.546 Z" clip-path="url(#clipPath2)" stroke="none"/>
      <path fill="none" d="M637 373.9939 L637 495.0296" clip-path="url(#clipPath2)"/>
      <path d="M637 503.0296 L642 491.0296 L637 494.0296 L632 491.0296 Z" clip-path="url(#clipPath2)" stroke="none"/>
      <path fill="none" d="M683.5978 373.9939 L737.1561 495.7072" clip-path="url(#clipPath2)"/>
      <path d="M740.3782 503.0296 L740.1215 490.0322 L736.7533 494.7919 L730.9685 494.0599 Z" clip-path="url(#clipPath2)" stroke="none"/>
      <path fill="none" d="M731.1287 373.5927 L838.7205 496.9844" clip-path="url(#clipPath2)"/>
      <path d="M843.9781 503.0141 L839.8602 490.6835 L838.0633 496.2307 L832.3231 497.2556 Z" clip-path="url(#clipPath2)" stroke="none"/>
    </g>
  </g>
</svg>
