<?xml version="1.0" encoding="UTF-8"?><svg xmlns="http://www.w3.org/2000/svg" xmlns:xlink="http://www.w3.org/1999/xlink" fill-opacity="1" color-rendering="auto" color-interpolation="auto" text-rendering="auto" stroke="black" stroke-linecap="square" width="420" stroke-miterlimit="10" shape-rendering="auto" stroke-opacity="1" fill="black" stroke-dasharray="none" font-weight="normal" stroke-width="1" height="532" font-family="'Dialog'" font-style="normal" stroke-linejoin="miter" font-size="12px" stroke-dashoffset="0" image-rendering="auto">
  <!--Generated by ySVG 2.5-->
  <defs id="genericDefs"/>
  <g>
    <defs id="defs1">
      <clipPath clipPathUnits="userSpaceOnUse" id="clipPath1">
        <path d="M0 0 L420 0 L420 532 L0 532 L0 0 Z"/>
      </clipPath>
      <clipPath clipPathUnits="userSpaceOnUse" id="clipPath2">
        <path d="M309 148 L729 148 L729 680 L309 680 L309 148 Z"/>
      </clipPath>
    </defs>
    <g fill="white" text-rendering="geometricPrecision" shape-rendering="geometricPrecision" transform="translate(-309,-148)" stroke="white">
      <rect x="309" width="420" height="532" y="148" clip-path="url(#clipPath2)" stroke="none"/>
    </g>
    <g fill="rgb(255,204,0)" text-rendering="geometricPrecision" shape-rendering="geometricPrecision" transform="matrix(1,0,0,1,-309,-148)" stroke="rgb(255,204,0)">
      <rect x="324" y="216" clip-path="url(#clipPath2)" width="103" rx="4" ry="4" height="59" stroke="none"/>
    </g>
    <g text-rendering="geometricPrecision" stroke-miterlimit="1.45" shape-rendering="geometricPrecision" transform="matrix(1,0,0,1,-309,-148)" stroke-linecap="butt">
      <rect x="324" y="216" clip-path="url(#clipPath2)" fill="none" width="103" rx="4" ry="4" height="59"/>
      <text x="342.4707" xml:space="preserve" y="249.6543" clip-path="url(#clipPath2)" font-family="sans-serif" stroke="none">SSH server</text>
    </g>
    <g fill="rgb(204,255,255)" text-rendering="geometricPrecision" shape-rendering="geometricPrecision" transform="matrix(1,0,0,1,-309,-148)" stroke="rgb(204,255,255)">
      <rect x="324" y="276" clip-path="url(#clipPath2)" width="103" rx="4" ry="4" height="30" stroke="none"/>
    </g>
    <g text-rendering="geometricPrecision" stroke-miterlimit="1.45" shape-rendering="geometricPrecision" transform="matrix(1,0,0,1,-309,-148)" stroke-linecap="butt">
      <rect x="324" y="276" clip-path="url(#clipPath2)" fill="none" width="103" rx="4" ry="4" height="30"/>
      <text x="364.4492" xml:space="preserve" y="295.1543" clip-path="url(#clipPath2)" font-family="sans-serif" stroke="none">JVM</text>
      <rect x="611" y="216" clip-path="url(#clipPath2)" fill="none" width="103" rx="4" ry="4" height="90"/>
      <text x="617" xml:space="preserve" y="233.1387" clip-path="url(#clipPath2)" font-family="sans-serif" stroke="none">SSH terminal</text>
      <text x="617" xml:space="preserve" y="247.1074" clip-path="url(#clipPath2)" font-family="sans-serif" stroke="none">$_</text>
    </g>
    <g fill="rgb(255,204,0)" text-rendering="geometricPrecision" shape-rendering="geometricPrecision" transform="matrix(1,0,0,1,-309,-148)" stroke="rgb(255,204,0)">
      <rect x="324" y="402.125" clip-path="url(#clipPath2)" width="103" rx="4" ry="4" height="59" stroke="none"/>
    </g>
    <g text-rendering="geometricPrecision" stroke-miterlimit="1.45" shape-rendering="geometricPrecision" transform="matrix(1,0,0,1,-309,-148)" stroke-linecap="butt">
      <rect x="324" y="402.125" clip-path="url(#clipPath2)" fill="none" width="103" rx="4" ry="4" height="59"/>
      <text x="342.4707" xml:space="preserve" y="435.7793" clip-path="url(#clipPath2)" font-family="sans-serif" stroke="none">SSH server</text>
    </g>
    <g fill="rgb(204,255,255)" text-rendering="geometricPrecision" shape-rendering="geometricPrecision" transform="matrix(1,0,0,1,-309,-148)" stroke="rgb(204,255,255)">
      <rect x="324" y="462.125" clip-path="url(#clipPath2)" width="103" rx="4" ry="4" height="30" stroke="none"/>
    </g>
    <g text-rendering="geometricPrecision" stroke-miterlimit="1.45" shape-rendering="geometricPrecision" transform="matrix(1,0,0,1,-309,-148)" stroke-linecap="butt">
      <rect x="324" y="462.125" clip-path="url(#clipPath2)" fill="none" width="103" rx="4" ry="4" height="30"/>
      <text x="364.4492" xml:space="preserve" y="481.2793" clip-path="url(#clipPath2)" font-family="sans-serif" stroke="none">JVM</text>
      <rect x="611" y="402.125" clip-path="url(#clipPath2)" fill="none" width="103" rx="4" ry="4" height="90"/>
      <text x="617" xml:space="preserve" y="419.2637" clip-path="url(#clipPath2)" font-family="sans-serif" stroke="none">SSH command</text>
    </g>
    <g fill="rgb(255,204,0)" text-rendering="geometricPrecision" shape-rendering="geometricPrecision" transform="matrix(1,0,0,1,-309,-148)" stroke="rgb(255,204,0)">
      <rect x="324" y="574.7083" clip-path="url(#clipPath2)" width="103" rx="4" ry="4" height="59" stroke="none"/>
    </g>
    <g text-rendering="geometricPrecision" stroke-miterlimit="1.45" shape-rendering="geometricPrecision" transform="matrix(1,0,0,1,-309,-148)" stroke-linecap="butt">
      <rect x="324" y="574.7083" clip-path="url(#clipPath2)" fill="none" width="103" rx="4" ry="4" height="59"/>
      <text x="342.4707" xml:space="preserve" y="608.3626" clip-path="url(#clipPath2)" font-family="sans-serif" stroke="none">SSH server</text>
    </g>
    <g fill="rgb(204,255,255)" text-rendering="geometricPrecision" shape-rendering="geometricPrecision" transform="matrix(1,0,0,1,-309,-148)" stroke="rgb(204,255,255)">
      <rect x="324" y="634.7083" clip-path="url(#clipPath2)" width="103" rx="4" ry="4" height="30" stroke="none"/>
    </g>
    <g text-rendering="geometricPrecision" stroke-miterlimit="1.45" shape-rendering="geometricPrecision" transform="matrix(1,0,0,1,-309,-148)" stroke-linecap="butt">
      <rect x="324" y="634.7083" clip-path="url(#clipPath2)" fill="none" width="103" rx="4" ry="4" height="30"/>
      <text x="364.4492" xml:space="preserve" y="653.8626" clip-path="url(#clipPath2)" font-family="sans-serif" stroke="none">JVM</text>
    </g>
    <g fill="rgb(255,204,0)" text-rendering="geometricPrecision" shape-rendering="geometricPrecision" transform="matrix(1,0,0,1,-309,-148)" stroke="rgb(255,204,0)">
      <rect x="611" y="574.7083" clip-path="url(#clipPath2)" width="103" rx="4" ry="4" height="59" stroke="none"/>
    </g>
    <g text-rendering="geometricPrecision" stroke-miterlimit="1.45" shape-rendering="geometricPrecision" transform="matrix(1,0,0,1,-309,-148)" stroke-linecap="butt">
      <rect x="611" y="574.7083" clip-path="url(#clipPath2)" fill="none" width="103" rx="4" ry="4" height="59"/>
      <text x="631.9844" xml:space="preserve" y="608.3626" clip-path="url(#clipPath2)" font-family="sans-serif" stroke="none">SSH client</text>
    </g>
    <g fill="rgb(204,255,255)" text-rendering="geometricPrecision" shape-rendering="geometricPrecision" transform="matrix(1,0,0,1,-309,-148)" stroke="rgb(204,255,255)">
      <rect x="611" y="634.7083" clip-path="url(#clipPath2)" width="103" rx="4" ry="4" height="30" stroke="none"/>
    </g>
    <g text-rendering="geometricPrecision" stroke-miterlimit="1.45" shape-rendering="geometricPrecision" transform="matrix(1,0,0,1,-309,-148)" stroke-linecap="butt">
      <rect x="611" y="634.7083" clip-path="url(#clipPath2)" fill="none" width="103" rx="4" ry="4" height="30"/>
      <text x="651.4492" xml:space="preserve" y="653.8626" clip-path="url(#clipPath2)" font-family="sans-serif" stroke="none">JVM</text>
      <text x="330" xml:space="preserve" y="180.1387" clip-path="url(#clipPath2)" font-family="sans-serif" stroke="none">#1. SSH REPL terminal session</text>
      <text x="330" xml:space="preserve" y="373.7637" clip-path="url(#clipPath2)" font-family="sans-serif" stroke="none">#2. SSH single command exec</text>
      <text x="330" xml:space="preserve" y="557.722" clip-path="url(#clipPath2)" font-family="sans-serif" stroke="none">#3. communication between 2 JVM instances</text>
      <path fill="none" d="M602.9782 245.5 L434.9821 245.5" clip-path="url(#clipPath2)"/>
      <path d="M610.9782 245.5 L598.9782 240.5 L601.9782 245.5 L598.9782 250.5 Z" clip-path="url(#clipPath2)" stroke="none"/>
      <path d="M426.9821 245.5 L438.9821 250.5 L435.9821 245.5 L438.9821 240.5 Z" clip-path="url(#clipPath2)" stroke="none"/>
      <text x="508.9453" xml:space="preserve" y="212.6699" clip-path="url(#clipPath2)" font-family="sans-serif" stroke="none">ssh</text>
      <text x="496.79" xml:space="preserve" y="226.6387" clip-path="url(#clipPath2)" font-family="sans-serif" stroke="none">session</text>
      <path fill="none" d="M427.0118 447.125 L603.0157 447.125" clip-path="url(#clipPath2)"/>
      <path d="M611.0157 447.125 L599.0157 442.125 L602.0157 447.125 L599.0157 452.125 Z" clip-path="url(#clipPath2)" stroke="none"/>
      <text x="478.8838" xml:space="preserve" y="481.2793" clip-path="url(#clipPath2)" font-family="sans-serif" stroke="none">comand result</text>
      <path fill="none" d="M611.0005 420.125 L434.9782 420.125" clip-path="url(#clipPath2)"/>
      <path d="M426.9782 420.125 L438.9782 425.125 L435.9782 420.125 L438.9782 415.125 Z" clip-path="url(#clipPath2)" stroke="none"/>
      <text x="477.0908" xml:space="preserve" y="394.2793" clip-path="url(#clipPath2)" font-family="sans-serif" stroke="none">ssh command</text>
      <path fill="none" d="M603.0348 604.2083 L434.9945 604.2083" clip-path="url(#clipPath2)"/>
      <path d="M611.0348 604.2083 L599.0348 599.2083 L602.0348 604.2083 L599.0348 609.2083 Z" clip-path="url(#clipPath2)" stroke="none"/>
      <path d="M426.9945 604.2083 L438.9945 609.2083 L435.9945 604.2083 L438.9945 599.2083 Z" clip-path="url(#clipPath2)" stroke="none"/>
      <text x="508.9453" xml:space="preserve" y="571.3782" clip-path="url(#clipPath2)" font-family="sans-serif" stroke="none">ssh</text>
      <text x="496.79" xml:space="preserve" y="585.347" clip-path="url(#clipPath2)" font-family="sans-serif" stroke="none">session</text>
    </g>
  </g>
</svg>
