<?xml version="1.0" encoding="UTF-8"?><svg xmlns="http://www.w3.org/2000/svg" xmlns:xlink="http://www.w3.org/1999/xlink" fill-opacity="1" color-rendering="auto" color-interpolation="auto" text-rendering="auto" stroke="black" stroke-linecap="square" width="1291" stroke-miterlimit="10" shape-rendering="auto" stroke-opacity="1" fill="black" stroke-dasharray="none" font-weight="normal" stroke-width="1" height="280" font-family="'Dialog'" font-style="normal" stroke-linejoin="miter" font-size="12px" stroke-dashoffset="0" image-rendering="auto">
  <!--Generated by ySVG 2.5-->
  <defs id="genericDefs"/>
  <g>
    <defs id="defs1">
      <clipPath clipPathUnits="userSpaceOnUse" id="clipPath1">
        <path d="M0 0 L1291 0 L1291 280 L0 280 L0 0 Z"/>
      </clipPath>
      <clipPath clipPathUnits="userSpaceOnUse" id="clipPath2">
        <path d="M-70 206 L1221 206 L1221 486 L-70 486 L-70 206 Z"/>
      </clipPath>
    </defs>
    <g fill="white" text-rendering="geometricPrecision" shape-rendering="geometricPrecision" transform="translate(70,-206)" stroke="white">
      <rect x="-70" width="1291" height="280" y="206" clip-path="url(#clipPath2)" stroke="none"/>
    </g>
    <g text-rendering="geometricPrecision" stroke-miterlimit="1.45" stroke-width="2" shape-rendering="geometricPrecision" transform="matrix(1,0,0,1,70,-206)" stroke-linecap="butt">
      <rect x="-55" y="221" clip-path="url(#clipPath2)" fill="none" width="1261" rx="4" ry="4" height="250"/>
      <text x="-49" y="238.1387" clip-path="url(#clipPath2)" font-family="sans-serif" stroke="none" stroke-width="1" xml:space="preserve">Ledger</text>
    </g>
    <g fill="silver" text-rendering="geometricPrecision" shape-rendering="geometricPrecision" transform="matrix(1,0,0,1,70,-206)" stroke="silver">
      <rect x="-39" y="258" clip-path="url(#clipPath2)" width="269" rx="4" ry="4" height="188" stroke="none"/>
    </g>
    <g text-rendering="geometricPrecision" stroke-miterlimit="1.45" stroke-width="2" shape-rendering="geometricPrecision" transform="matrix(1,0,0,1,70,-206)" stroke-linecap="butt">
      <rect x="-39" y="258" clip-path="url(#clipPath2)" fill="none" width="269" rx="4" ry="4" height="188"/>
      <text x="-33" y="275.1387" clip-path="url(#clipPath2)" font-family="sans-serif" stroke="none" stroke-width="1" xml:space="preserve">Block [0] (Genesis Block)</text>
      <rect x="-21" y="314" clip-path="url(#clipPath2)" fill="none" width="233" stroke-dasharray="6,2" rx="4" ry="4" height="122" stroke-width="1"/>
    </g>
    <g fill="rgb(255,204,0)" text-rendering="geometricPrecision" shape-rendering="geometricPrecision" transform="matrix(1,0,0,1,70,-206)" stroke="rgb(255,204,0)">
      <rect x="-21" y="284" clip-path="url(#clipPath2)" width="233" rx="4" ry="4" height="30" stroke="none"/>
    </g>
    <g text-rendering="geometricPrecision" stroke-miterlimit="1.45" shape-rendering="geometricPrecision" transform="matrix(1,0,0,1,70,-206)" stroke-linecap="butt">
      <rect x="-21" y="284" clip-path="url(#clipPath2)" fill="none" width="233" rx="4" ry="4" height="30"/>
      <text x="20.4062" xml:space="preserve" y="303.1543" clip-path="url(#clipPath2)" font-family="sans-serif" stroke="none">hash (data + prev. hash)</text>
    </g>
    <g fill="rgb(255,204,0)" text-rendering="geometricPrecision" shape-rendering="geometricPrecision" transform="matrix(1,0,0,1,70,-206)" stroke="rgb(255,204,0)">
      <rect x="-14" y="322" clip-path="url(#clipPath2)" width="219" rx="4" ry="4" height="70" stroke="none"/>
    </g>
    <g text-rendering="geometricPrecision" stroke-miterlimit="1.45" shape-rendering="geometricPrecision" transform="matrix(1,0,0,1,70,-206)" stroke-linecap="butt">
      <rect x="-14" y="322" clip-path="url(#clipPath2)" fill="none" width="219" rx="4" ry="4" height="70"/>
      <text x="81.9854" xml:space="preserve" y="354.1699" clip-path="url(#clipPath2)" font-family="sans-serif" stroke="none">data</text>
      <text x="66.959" xml:space="preserve" y="368.1387" clip-path="url(#clipPath2)" font-family="sans-serif" stroke="none">(payload)</text>
      <rect x="-14" y="400" clip-path="url(#clipPath2)" fill="none" width="219" rx="4" ry="4" height="30"/>
      <text x="4.6445" xml:space="preserve" y="419.1543" clip-path="url(#clipPath2)" font-family="sans-serif" stroke="none">previous block hash (empty ?)</text>
    </g>
    <g fill="silver" text-rendering="geometricPrecision" shape-rendering="geometricPrecision" transform="matrix(1,0,0,1,70,-206)" stroke="silver">
      <rect x="267" y="258" clip-path="url(#clipPath2)" width="269" rx="4" ry="4" height="188" stroke="none"/>
    </g>
    <g text-rendering="geometricPrecision" stroke-miterlimit="1.45" stroke-width="2" shape-rendering="geometricPrecision" transform="matrix(1,0,0,1,70,-206)" stroke-linecap="butt">
      <rect x="267" y="258" clip-path="url(#clipPath2)" fill="none" width="269" rx="4" ry="4" height="188"/>
      <text x="273" y="275.1387" clip-path="url(#clipPath2)" font-family="sans-serif" stroke="none" stroke-width="1" xml:space="preserve">Block [1]</text>
      <rect x="285" y="314" clip-path="url(#clipPath2)" fill="none" width="233" stroke-dasharray="6,2" rx="4" ry="4" height="122" stroke-width="1"/>
    </g>
    <g fill="rgb(255,204,0)" text-rendering="geometricPrecision" shape-rendering="geometricPrecision" transform="matrix(1,0,0,1,70,-206)" stroke="rgb(255,204,0)">
      <rect x="285" y="284" clip-path="url(#clipPath2)" width="233" rx="4" ry="4" height="30" stroke="none"/>
    </g>
    <g text-rendering="geometricPrecision" stroke-miterlimit="1.45" shape-rendering="geometricPrecision" transform="matrix(1,0,0,1,70,-206)" stroke-linecap="butt">
      <rect x="285" y="284" clip-path="url(#clipPath2)" fill="none" width="233" rx="4" ry="4" height="30"/>
      <text x="326.4062" xml:space="preserve" y="303.1543" clip-path="url(#clipPath2)" font-family="sans-serif" stroke="none">hash (data + prev. hash)</text>
    </g>
    <g fill="rgb(255,204,0)" text-rendering="geometricPrecision" shape-rendering="geometricPrecision" transform="matrix(1,0,0,1,70,-206)" stroke="rgb(255,204,0)">
      <rect x="292" y="322" clip-path="url(#clipPath2)" width="219" rx="4" ry="4" height="70" stroke="none"/>
    </g>
    <g text-rendering="geometricPrecision" stroke-miterlimit="1.45" shape-rendering="geometricPrecision" transform="matrix(1,0,0,1,70,-206)" stroke-linecap="butt">
      <rect x="292" y="322" clip-path="url(#clipPath2)" fill="none" width="219" rx="4" ry="4" height="70"/>
      <text x="387.9854" xml:space="preserve" y="354.1699" clip-path="url(#clipPath2)" font-family="sans-serif" stroke="none">data</text>
      <text x="372.959" xml:space="preserve" y="368.1387" clip-path="url(#clipPath2)" font-family="sans-serif" stroke="none">(payload)</text>
    </g>
    <g fill="rgb(255,204,0)" text-rendering="geometricPrecision" shape-rendering="geometricPrecision" transform="matrix(1,0,0,1,70,-206)" stroke="rgb(255,204,0)">
      <rect x="292" y="400" clip-path="url(#clipPath2)" width="219" rx="4" ry="4" height="30" stroke="none"/>
    </g>
    <g text-rendering="geometricPrecision" stroke-miterlimit="1.45" shape-rendering="geometricPrecision" transform="matrix(1,0,0,1,70,-206)" stroke-linecap="butt">
      <rect x="292" y="400" clip-path="url(#clipPath2)" fill="none" width="219" rx="4" ry="4" height="30"/>
      <text x="341.5732" xml:space="preserve" y="419.1543" clip-path="url(#clipPath2)" font-family="sans-serif" stroke="none">previous block hash</text>
    </g>
    <g fill="silver" text-rendering="geometricPrecision" shape-rendering="geometricPrecision" transform="matrix(1,0,0,1,70,-206)" stroke="silver">
      <rect x="573" y="258" clip-path="url(#clipPath2)" width="269" rx="4" ry="4" height="188" stroke="none"/>
    </g>
    <g text-rendering="geometricPrecision" stroke-miterlimit="1.45" stroke-width="2" shape-rendering="geometricPrecision" transform="matrix(1,0,0,1,70,-206)" stroke-linecap="butt">
      <rect x="573" y="258" clip-path="url(#clipPath2)" fill="none" width="269" rx="4" ry="4" height="188"/>
      <text x="579" y="275.1387" clip-path="url(#clipPath2)" font-family="sans-serif" stroke="none" stroke-width="1" xml:space="preserve">Block [2]</text>
      <rect x="591" y="314" clip-path="url(#clipPath2)" fill="none" width="233" stroke-dasharray="6,2" rx="4" ry="4" height="122" stroke-width="1"/>
    </g>
    <g fill="rgb(255,204,0)" text-rendering="geometricPrecision" shape-rendering="geometricPrecision" transform="matrix(1,0,0,1,70,-206)" stroke="rgb(255,204,0)">
      <rect x="591" y="284" clip-path="url(#clipPath2)" width="233" rx="4" ry="4" height="30" stroke="none"/>
    </g>
    <g text-rendering="geometricPrecision" stroke-miterlimit="1.45" shape-rendering="geometricPrecision" transform="matrix(1,0,0,1,70,-206)" stroke-linecap="butt">
      <rect x="591" y="284" clip-path="url(#clipPath2)" fill="none" width="233" rx="4" ry="4" height="30"/>
      <text x="632.4062" xml:space="preserve" y="303.1543" clip-path="url(#clipPath2)" font-family="sans-serif" stroke="none">hash (data + prev. hash)</text>
    </g>
    <g fill="rgb(255,204,0)" text-rendering="geometricPrecision" shape-rendering="geometricPrecision" transform="matrix(1,0,0,1,70,-206)" stroke="rgb(255,204,0)">
      <rect x="598" y="322" clip-path="url(#clipPath2)" width="219" rx="4" ry="4" height="70" stroke="none"/>
    </g>
    <g text-rendering="geometricPrecision" stroke-miterlimit="1.45" shape-rendering="geometricPrecision" transform="matrix(1,0,0,1,70,-206)" stroke-linecap="butt">
      <rect x="598" y="322" clip-path="url(#clipPath2)" fill="none" width="219" rx="4" ry="4" height="70"/>
      <text x="693.9854" xml:space="preserve" y="354.1699" clip-path="url(#clipPath2)" font-family="sans-serif" stroke="none">data</text>
      <text x="678.959" xml:space="preserve" y="368.1387" clip-path="url(#clipPath2)" font-family="sans-serif" stroke="none">(payload)</text>
    </g>
    <g fill="rgb(255,204,0)" text-rendering="geometricPrecision" shape-rendering="geometricPrecision" transform="matrix(1,0,0,1,70,-206)" stroke="rgb(255,204,0)">
      <rect x="598" y="400" clip-path="url(#clipPath2)" width="219" rx="4" ry="4" height="30" stroke="none"/>
    </g>
    <g text-rendering="geometricPrecision" stroke-miterlimit="1.45" shape-rendering="geometricPrecision" transform="matrix(1,0,0,1,70,-206)" stroke-linecap="butt">
      <rect x="598" y="400" clip-path="url(#clipPath2)" fill="none" width="219" rx="4" ry="4" height="30"/>
      <text x="647.5732" xml:space="preserve" y="419.1543" clip-path="url(#clipPath2)" font-family="sans-serif" stroke="none">previous block hash</text>
    </g>
    <g fill="silver" text-rendering="geometricPrecision" shape-rendering="geometricPrecision" transform="matrix(1,0,0,1,70,-206)" stroke="silver">
      <rect x="922" y="258" clip-path="url(#clipPath2)" width="269" rx="4" ry="4" height="188" stroke="none"/>
    </g>
    <g text-rendering="geometricPrecision" stroke-miterlimit="1.45" stroke-width="2" shape-rendering="geometricPrecision" transform="matrix(1,0,0,1,70,-206)" stroke-linecap="butt">
      <rect x="922" y="258" clip-path="url(#clipPath2)" fill="none" width="269" rx="4" ry="4" height="188"/>
      <text x="928" y="275.1387" clip-path="url(#clipPath2)" font-family="sans-serif" stroke="none" stroke-width="1" xml:space="preserve">Block [N]</text>
      <rect x="940" y="314" clip-path="url(#clipPath2)" fill="none" width="233" stroke-dasharray="6,2" rx="4" ry="4" height="122" stroke-width="1"/>
    </g>
    <g fill="rgb(255,204,0)" text-rendering="geometricPrecision" shape-rendering="geometricPrecision" transform="matrix(1,0,0,1,70,-206)" stroke="rgb(255,204,0)">
      <rect x="940" y="284" clip-path="url(#clipPath2)" width="233" rx="4" ry="4" height="30" stroke="none"/>
    </g>
    <g text-rendering="geometricPrecision" stroke-miterlimit="1.45" shape-rendering="geometricPrecision" transform="matrix(1,0,0,1,70,-206)" stroke-linecap="butt">
      <rect x="940" y="284" clip-path="url(#clipPath2)" fill="none" width="233" rx="4" ry="4" height="30"/>
      <text x="981.4062" xml:space="preserve" y="303.1543" clip-path="url(#clipPath2)" font-family="sans-serif" stroke="none">hash (data + prev. hash)</text>
    </g>
    <g fill="rgb(255,204,0)" text-rendering="geometricPrecision" shape-rendering="geometricPrecision" transform="matrix(1,0,0,1,70,-206)" stroke="rgb(255,204,0)">
      <rect x="947" y="322" clip-path="url(#clipPath2)" width="219" rx="4" ry="4" height="70" stroke="none"/>
    </g>
    <g text-rendering="geometricPrecision" stroke-miterlimit="1.45" shape-rendering="geometricPrecision" transform="matrix(1,0,0,1,70,-206)" stroke-linecap="butt">
      <rect x="947" y="322" clip-path="url(#clipPath2)" fill="none" width="219" rx="4" ry="4" height="70"/>
      <text x="1042.9854" xml:space="preserve" y="354.1699" clip-path="url(#clipPath2)" font-family="sans-serif" stroke="none">data</text>
      <text x="1027.959" xml:space="preserve" y="368.1387" clip-path="url(#clipPath2)" font-family="sans-serif" stroke="none">(payload)</text>
    </g>
    <g fill="rgb(255,204,0)" text-rendering="geometricPrecision" shape-rendering="geometricPrecision" transform="matrix(1,0,0,1,70,-206)" stroke="rgb(255,204,0)">
      <rect x="947" y="400" clip-path="url(#clipPath2)" width="219" rx="4" ry="4" height="30" stroke="none"/>
    </g>
    <g text-rendering="geometricPrecision" stroke-miterlimit="1.45" shape-rendering="geometricPrecision" transform="matrix(1,0,0,1,70,-206)" stroke-linecap="butt">
      <rect x="947" y="400" clip-path="url(#clipPath2)" fill="none" width="219" rx="4" ry="4" height="30"/>
      <text x="996.5732" xml:space="preserve" y="419.1543" clip-path="url(#clipPath2)" font-family="sans-serif" stroke="none">previous block hash</text>
      <rect x="872" y="330.5" clip-path="url(#clipPath2)" fill="none" width="23" rx="4" ry="4" height="53"/>
      <text x="877.7783" xml:space="preserve" y="361.1543" clip-path="url(#clipPath2)" font-family="sans-serif" stroke="none">...</text>
      <path fill="none" d="M211.9972 299 L248 299 L248 415 L284.0338 415" clip-path="url(#clipPath2)"/>
      <path d="M292.0338 415 L280.0338 410 L283.0338 415 L280.0338 420 Z" clip-path="url(#clipPath2)" stroke="none"/>
      <path fill="none" d="M517.9972 299 L554 299 L554 415 L590.0338 415" clip-path="url(#clipPath2)"/>
      <path d="M598.0338 415 L586.0338 410 L589.0338 415 L586.0338 420 Z" clip-path="url(#clipPath2)" stroke="none"/>
      <path fill="none" d="M823.9883 299 L883.5 299 L883.5 322.5205" clip-path="url(#clipPath2)"/>
      <path d="M883.5 330.5205 L888.5 318.5205 L883.5 321.5205 L878.5 318.5205 Z" clip-path="url(#clipPath2)" stroke="none"/>
      <path fill="none" d="M883.5 383.4795 L883.5 415 L938.9812 415" clip-path="url(#clipPath2)"/>
      <path d="M946.9812 415 L934.9812 410 L937.9812 415 L934.9812 420 Z" clip-path="url(#clipPath2)" stroke="none"/>
    </g>
  </g>
</svg>
