<?xml version="1.0" encoding="UTF-8"?><svg xmlns="http://www.w3.org/2000/svg" xmlns:xlink="http://www.w3.org/1999/xlink" fill-opacity="1" color-rendering="auto" color-interpolation="auto" text-rendering="auto" stroke="black" stroke-linecap="square" width="1020" stroke-miterlimit="10" shape-rendering="auto" stroke-opacity="1" fill="black" stroke-dasharray="none" font-weight="normal" stroke-width="1" height="815" font-family="'Dialog'" font-style="normal" stroke-linejoin="miter" font-size="12px" stroke-dashoffset="0" image-rendering="auto">
  <!--Generated by ySVG 2.5-->
  <defs id="genericDefs"/>
  <g>
    <defs id="defs1">
      <clipPath clipPathUnits="userSpaceOnUse" id="clipPath1">
        <path d="M0 0 L1020 0 L1020 815 L0 815 L0 0 Z"/>
      </clipPath>
      <clipPath clipPathUnits="userSpaceOnUse" id="clipPath2">
        <path d="M354 243 L1374 243 L1374 1058 L354 1058 L354 243 Z"/>
      </clipPath>
    </defs>
    <g fill="white" text-rendering="geometricPrecision" shape-rendering="geometricPrecision" transform="translate(-354,-243)" stroke="white">
      <rect x="354" width="1020" height="815" y="243" clip-path="url(#clipPath2)" stroke="none"/>
    </g>
    <g text-rendering="geometricPrecision" stroke-miterlimit="1.45" shape-rendering="geometricPrecision" transform="matrix(1,0,0,1,-354,-243)" stroke-linecap="butt">
      <rect x="369" y="332" clip-path="url(#clipPath2)" fill="none" width="234" rx="4" ry="4" height="520"/>
      <text x="375" xml:space="preserve" y="349.1387" clip-path="url(#clipPath2)" font-family="sans-serif" stroke="none">Cluster Node 1 (Left)</text>
    </g>
    <g fill="rgb(153,204,255)" text-rendering="geometricPrecision" shape-rendering="geometricPrecision" transform="matrix(1,0,0,1,-354,-243)" stroke="rgb(153,204,255)">
      <rect x="395" y="461.5" clip-path="url(#clipPath2)" width="188" rx="4" ry="4" height="43" stroke="none"/>
    </g>
    <g text-rendering="geometricPrecision" stroke-miterlimit="1.45" stroke-width="2" shape-rendering="geometricPrecision" transform="matrix(1,0,0,1,-354,-243)" stroke-linecap="butt">
      <rect x="395" y="461.5" clip-path="url(#clipPath2)" fill="none" width="188" rx="4" ry="4" height="43"/>
      <text x="434.9033" y="487.1543" clip-path="url(#clipPath2)" font-family="sans-serif" stroke="none" stroke-width="1" xml:space="preserve">Ssh Client Service</text>
    </g>
    <g fill="rgb(255,204,0)" text-rendering="geometricPrecision" shape-rendering="geometricPrecision" transform="matrix(1,0,0,1,-354,-243)" stroke="rgb(255,204,0)">
      <rect x="395" y="557.5" clip-path="url(#clipPath2)" width="188" rx="4" ry="4" height="43" stroke="none"/>
    </g>
    <g text-rendering="geometricPrecision" stroke-miterlimit="1.45" stroke-width="2" shape-rendering="geometricPrecision" transform="matrix(1,0,0,1,-354,-243)" stroke-linecap="butt">
      <rect x="395" y="557.5" clip-path="url(#clipPath2)" fill="none" width="188" rx="4" ry="4" height="43"/>
      <text x="426.8525" y="583.1543" clip-path="url(#clipPath2)" font-family="sans-serif" stroke="none" stroke-width="1" xml:space="preserve">Ssh Cluster Manager</text>
      <rect x="627" y="332" clip-path="url(#clipPath2)" fill="none" width="234" rx="4" ry="4" height="520" stroke-width="1"/>
      <text x="633" y="349.1387" clip-path="url(#clipPath2)" font-family="sans-serif" stroke="none" stroke-width="1" xml:space="preserve">Cluster Node 2</text>
    </g>
    <g fill="rgb(153,204,255)" text-rendering="geometricPrecision" shape-rendering="geometricPrecision" transform="matrix(1,0,0,1,-354,-243)" stroke="rgb(153,204,255)">
      <rect x="653" y="461.5" clip-path="url(#clipPath2)" width="178" rx="4" ry="4" height="43" stroke="none"/>
    </g>
    <g text-rendering="geometricPrecision" stroke-miterlimit="1.45" stroke-width="2" shape-rendering="geometricPrecision" transform="matrix(1,0,0,1,-354,-243)" stroke-linecap="butt">
      <rect x="653" y="461.5" clip-path="url(#clipPath2)" fill="none" width="178" rx="4" ry="4" height="43"/>
      <text x="687.9033" y="487.1543" clip-path="url(#clipPath2)" font-family="sans-serif" stroke="none" stroke-width="1" xml:space="preserve">Ssh Client Service</text>
    </g>
    <g fill="rgb(255,204,0)" text-rendering="geometricPrecision" shape-rendering="geometricPrecision" transform="matrix(1,0,0,1,-354,-243)" stroke="rgb(255,204,0)">
      <rect x="653" y="557.5" clip-path="url(#clipPath2)" width="178" rx="4" ry="4" height="43" stroke="none"/>
    </g>
    <g text-rendering="geometricPrecision" stroke-miterlimit="1.45" stroke-width="2" shape-rendering="geometricPrecision" transform="matrix(1,0,0,1,-354,-243)" stroke-linecap="butt">
      <rect x="653" y="557.5" clip-path="url(#clipPath2)" fill="none" width="178" rx="4" ry="4" height="43"/>
      <text x="679.8525" y="583.1543" clip-path="url(#clipPath2)" font-family="sans-serif" stroke="none" stroke-width="1" xml:space="preserve">Ssh Cluster Manager</text>
      <rect x="885" y="332" clip-path="url(#clipPath2)" fill="none" width="234" rx="4" ry="4" height="520" stroke-width="1"/>
      <text x="891" y="349.1387" clip-path="url(#clipPath2)" font-family="sans-serif" stroke="none" stroke-width="1" xml:space="preserve">Cluster Node 3 (Leader Node)</text>
    </g>
    <g fill="rgb(153,204,255)" text-rendering="geometricPrecision" shape-rendering="geometricPrecision" transform="matrix(1,0,0,1,-354,-243)" stroke="rgb(153,204,255)">
      <rect x="911" y="461.5" clip-path="url(#clipPath2)" width="178" rx="4" ry="4" height="43" stroke="none"/>
    </g>
    <g text-rendering="geometricPrecision" stroke-miterlimit="1.45" stroke-width="2" shape-rendering="geometricPrecision" transform="matrix(1,0,0,1,-354,-243)" stroke-linecap="butt">
      <rect x="911" y="461.5" clip-path="url(#clipPath2)" fill="none" width="178" rx="4" ry="4" height="43"/>
      <text x="945.9033" y="487.1543" clip-path="url(#clipPath2)" font-family="sans-serif" stroke="none" stroke-width="1" xml:space="preserve">Ssh Client Service</text>
    </g>
    <g fill="rgb(255,204,0)" text-rendering="geometricPrecision" shape-rendering="geometricPrecision" transform="matrix(1,0,0,1,-354,-243)" stroke="rgb(255,204,0)">
      <rect x="911" y="557.5" clip-path="url(#clipPath2)" width="178" rx="4" ry="4" height="43" stroke="none"/>
    </g>
    <g text-rendering="geometricPrecision" stroke-miterlimit="1.45" stroke-width="2" shape-rendering="geometricPrecision" transform="matrix(1,0,0,1,-354,-243)" stroke-linecap="butt">
      <rect x="911" y="557.5" clip-path="url(#clipPath2)" fill="none" width="178" rx="4" ry="4" height="43"/>
      <text x="937.8525" y="576.1699" clip-path="url(#clipPath2)" font-family="sans-serif" stroke="none" stroke-width="1" xml:space="preserve">Shs Cluster Manager</text>
      <text x="951.4375" y="590.1387" clip-path="url(#clipPath2)" font-family="sans-serif" stroke="none" stroke-width="1" xml:space="preserve">(Cluster Leader)</text>
    </g>
    <g fill="rgb(255,204,0)" text-rendering="geometricPrecision" shape-rendering="geometricPrecision" transform="matrix(1,0,0,1,-354,-243)" stroke="rgb(255,204,0)">
      <rect x="395" y="644.5" clip-path="url(#clipPath2)" width="188" rx="4" ry="4" height="43" stroke="none"/>
    </g>
    <g text-rendering="geometricPrecision" stroke-miterlimit="1.45" stroke-width="2" shape-rendering="geometricPrecision" transform="matrix(1,0,0,1,-354,-243)" stroke-linecap="butt">
      <rect x="395" y="644.5" clip-path="url(#clipPath2)" fill="none" width="188" rx="4" ry="4" height="43"/>
      <text x="407.6924" y="670.1543" clip-path="url(#clipPath2)" font-family="sans-serif" stroke="none" stroke-width="1" xml:space="preserve">Ssh Local Session Manager</text>
    </g>
    <g fill="rgb(255,204,0)" text-rendering="geometricPrecision" shape-rendering="geometricPrecision" transform="matrix(1,0,0,1,-354,-243)" stroke="rgb(255,204,0)">
      <rect x="653" y="642.5" clip-path="url(#clipPath2)" width="178" rx="4" ry="4" height="43" stroke="none"/>
    </g>
    <g text-rendering="geometricPrecision" stroke-miterlimit="1.45" stroke-width="2" shape-rendering="geometricPrecision" transform="matrix(1,0,0,1,-354,-243)" stroke-linecap="butt">
      <rect x="653" y="642.5" clip-path="url(#clipPath2)" fill="none" width="178" rx="4" ry="4" height="43"/>
      <text x="660.6924" y="668.1543" clip-path="url(#clipPath2)" font-family="sans-serif" stroke="none" stroke-width="1" xml:space="preserve">Ssh Local Session Manager</text>
    </g>
    <g fill="rgb(255,204,0)" text-rendering="geometricPrecision" shape-rendering="geometricPrecision" transform="matrix(1,0,0,1,-354,-243)" stroke="rgb(255,204,0)">
      <rect x="911" y="640.5" clip-path="url(#clipPath2)" width="178" rx="4" ry="4" height="43" stroke="none"/>
    </g>
    <g text-rendering="geometricPrecision" stroke-miterlimit="1.45" stroke-width="2" shape-rendering="geometricPrecision" transform="matrix(1,0,0,1,-354,-243)" stroke-linecap="butt">
      <rect x="911" y="640.5" clip-path="url(#clipPath2)" fill="none" width="178" rx="4" ry="4" height="43"/>
      <text x="916.5889" y="666.1543" clip-path="url(#clipPath2)" font-family="sans-serif" stroke="none" stroke-width="1" xml:space="preserve">Ssh Session Manager Agent</text>
      <text x="633.4844" font-size="22px" y="280.6162" clip-path="url(#clipPath2)" font-family="sans-serif" stroke="none" stroke-width="1" xml:space="preserve">Cluster member left</text>
    </g>
    <g fill="rgb(153,204,255)" text-rendering="geometricPrecision" shape-rendering="geometricPrecision" transform="matrix(1,0,0,1,-354,-243)" stroke="rgb(153,204,255)">
      <rect x="384" y="891" clip-path="url(#clipPath2)" width="115" rx="4" ry="4" height="43" stroke="none"/>
    </g>
    <g text-rendering="geometricPrecision" stroke-miterlimit="1.45" stroke-width="2" shape-rendering="geometricPrecision" transform="matrix(1,0,0,1,-354,-243)" stroke-linecap="butt">
      <rect x="384" y="891" clip-path="url(#clipPath2)" fill="none" width="115" rx="4" ry="4" height="43"/>
      <text x="402.4385" y="909.6699" clip-path="url(#clipPath2)" font-family="sans-serif" stroke="none" stroke-width="1" xml:space="preserve">Service bean</text>
      <text x="390.9453" y="923.6387" clip-path="url(#clipPath2)" font-family="sans-serif" stroke="none" stroke-width="1" xml:space="preserve">(Single Instance)</text>
    </g>
    <g fill="rgb(255,204,0)" text-rendering="geometricPrecision" shape-rendering="geometricPrecision" transform="matrix(1,0,0,1,-354,-243)" stroke="rgb(255,204,0)">
      <rect x="384" y="940.116" clip-path="url(#clipPath2)" width="115" rx="4" ry="4" height="30" stroke="none"/>
    </g>
    <g text-rendering="geometricPrecision" stroke-miterlimit="1.45" shape-rendering="geometricPrecision" transform="matrix(1,0,0,1,-354,-243)" stroke-linecap="butt">
      <rect x="384" y="940.116" clip-path="url(#clipPath2)" fill="none" width="115" rx="4" ry="4" height="30"/>
      <text x="408.9688" xml:space="preserve" y="959.2703" clip-path="url(#clipPath2)" font-family="sans-serif" stroke="none">Akka Actor</text>
    </g>
    <g fill="rgb(255,204,0)" text-rendering="geometricPrecision" shape-rendering="geometricPrecision" transform="matrix(1,0,0,1,-354,-243)" stroke="rgb(255,204,0)">
      <rect x="384" y="976.232" clip-path="url(#clipPath2)" width="115" rx="4" ry="4" height="30" stroke="none"/>
    </g>
    <g text-rendering="geometricPrecision" stroke-miterlimit="1.45" stroke-width="2" shape-rendering="geometricPrecision" transform="matrix(1,0,0,1,-354,-243)" stroke-linecap="butt">
      <rect x="384" y="976.232" clip-path="url(#clipPath2)" fill="none" width="115" rx="4" ry="4" height="30"/>
      <text x="408.9688" y="988.4019" clip-path="url(#clipPath2)" font-family="sans-serif" stroke="none" stroke-width="1" xml:space="preserve">Akka Actor</text>
      <text x="390.9453" y="1002.3707" clip-path="url(#clipPath2)" font-family="sans-serif" stroke="none" stroke-width="1" xml:space="preserve">(Single Instance)</text>
    </g>
    <g fill="rgb(153,204,255)" text-rendering="geometricPrecision" shape-rendering="geometricPrecision" transform="matrix(1,0,0,1,-354,-243)" stroke="rgb(153,204,255)">
      <rect x="384" y="1012.348" clip-path="url(#clipPath2)" width="115" rx="4" ry="4" height="30" stroke="none"/>
    </g>
    <g text-rendering="geometricPrecision" stroke-miterlimit="1.45" shape-rendering="geometricPrecision" transform="matrix(1,0,0,1,-354,-243)" stroke-linecap="butt">
      <rect x="384" y="1012.348" clip-path="url(#clipPath2)" fill="none" width="115" rx="4" ry="4" height="30"/>
      <text x="397.9561" xml:space="preserve" y="1031.5023" clip-path="url(#clipPath2)" font-family="sans-serif" stroke="none">Wrapper Class</text>
    </g>
    <g fill="white" text-rendering="geometricPrecision" shape-rendering="geometricPrecision" transform="matrix(1,0,0,1,-354,-243)" stroke="white">
      <rect x="911" y="391" clip-path="url(#clipPath2)" width="178" rx="4" ry="4" height="30" stroke="none"/>
    </g>
    <g text-rendering="geometricPrecision" stroke-miterlimit="1.45" shape-rendering="geometricPrecision" transform="matrix(1,0,0,1,-354,-243)" stroke-linecap="butt">
      <rect x="911" y="391" clip-path="url(#clipPath2)" fill="none" width="178" rx="4" ry="4" height="30"/>
      <text x="943.1875" xml:space="preserve" y="410.1543" clip-path="url(#clipPath2)" font-family="sans-serif" stroke="none">Akka Actor System</text>
    </g>
    <g fill="white" text-rendering="geometricPrecision" shape-rendering="geometricPrecision" transform="matrix(1,0,0,1,-354,-243)" stroke="white">
      <rect x="653" y="392.5" clip-path="url(#clipPath2)" width="178" rx="4" ry="4" height="30" stroke="none"/>
    </g>
    <g text-rendering="geometricPrecision" stroke-miterlimit="1.45" shape-rendering="geometricPrecision" transform="matrix(1,0,0,1,-354,-243)" stroke-linecap="butt">
      <rect x="653" y="392.5" clip-path="url(#clipPath2)" fill="none" width="178" rx="4" ry="4" height="30"/>
      <text x="685.1875" xml:space="preserve" y="411.6543" clip-path="url(#clipPath2)" font-family="sans-serif" stroke="none">Akka Actor System</text>
    </g>
    <g fill="white" text-rendering="geometricPrecision" shape-rendering="geometricPrecision" transform="matrix(1,0,0,1,-354,-243)" stroke="white">
      <rect x="395" y="392.5" clip-path="url(#clipPath2)" width="188" rx="4" ry="4" height="30" stroke="none"/>
    </g>
    <g text-rendering="geometricPrecision" stroke-miterlimit="1.45" shape-rendering="geometricPrecision" transform="matrix(1,0,0,1,-354,-243)" stroke-linecap="butt">
      <rect x="395" y="392.5" clip-path="url(#clipPath2)" fill="none" width="188" rx="4" ry="4" height="30"/>
      <text x="432.1875" xml:space="preserve" y="411.6543" clip-path="url(#clipPath2)" font-family="sans-serif" stroke="none">Akka Actor System</text>
      <rect fill="none" x="1149" width="210" height="30" y="565" clip-path="url(#clipPath2)"/>
      <text x="1178.0742" xml:space="preserve" y="577.1699" clip-path="url(#clipPath2)" font-family="sans-serif" stroke="none">has map of all ssh clients</text>
      <text x="1178.0742" xml:space="preserve" y="591.1387" clip-path="url(#clipPath2)" font-family="sans-serif" stroke="none">and all ssh sessions</text>
      <rect fill="none" x="1149" width="210" height="30" y="648" clip-path="url(#clipPath2)"/>
      <text x="1163.4668" xml:space="preserve" y="660.1699" clip-path="url(#clipPath2)" font-family="sans-serif" stroke="none">has map of local ssh sessions </text>
      <text x="1163.4668" xml:space="preserve" y="674.1387" clip-path="url(#clipPath2)" font-family="sans-serif" stroke="none">and their clients</text>
      <path fill="none" d="M1000 557.4844 L1000 513.4943" stroke-width="2" clip-path="url(#clipPath2)" stroke="red"/>
      <path fill="red" d="M1000 504.4943 L994.375 517.9943 L1000 514.6193 L1005.625 517.9943 Z" stroke-width="2" clip-path="url(#clipPath2)" stroke="none"/>
      <path fill="none" d="M942.2083 557.4961 L808.2344 507.6454" stroke-width="2" clip-path="url(#clipPath2)" stroke="red"/>
      <path fill="red" d="M799.7994 504.5067 L810.4902 514.4865 L809.2888 508.0377 L814.4135 503.9428 Z" stroke-width="2" clip-path="url(#clipPath2)" stroke="none"/>
      <text x="855.9874" xml:space="preserve" y="520.2877" clip-path="url(#clipPath2)" font-family="sans-serif" stroke="none">Kill orphaned clients</text>
      <path fill="none" d="M934.7126 600.5094 L815.805 639.6844" stroke-width="2" clip-path="url(#clipPath2)" stroke="red"/>
      <path fill="red" d="M807.257 642.5006 L821.8392 643.6188 L816.8735 639.3323 L818.3188 632.9338 Z" stroke-width="2" clip-path="url(#clipPath2)" stroke="none"/>
      <text x="865.3522" xml:space="preserve" y="633.1478" clip-path="url(#clipPath2)" font-family="sans-serif" stroke="none">Kill orphaned ssh sessions</text>
      <path fill="none" d="M1000 600.52 L1000 631.476" stroke-width="2" clip-path="url(#clipPath2)" stroke="red"/>
      <path fill="red" d="M1000 640.476 L1005.625 626.976 L1000 630.351 L994.375 626.976 Z" stroke-width="2" clip-path="url(#clipPath2)" stroke="none"/>
      <path fill="none" d="M576.9871 928 L694.9874 928" stroke-width="2" clip-path="url(#clipPath2)" stroke="red"/>
      <path fill="red" d="M703.9874 928 L690.4874 922.375 L693.8624 928 L690.4874 933.625 Z" stroke-width="2" clip-path="url(#clipPath2)" stroke="none"/>
      <text x="577.5762" xml:space="preserve" y="902.1543" clip-path="url(#clipPath2)" font-family="sans-serif" stroke="none">Akka Tell (Remoting)</text>
      <path fill="none" d="M576.9871 988 L694.9874 988" stroke-width="2" clip-path="url(#clipPath2)"/>
      <path d="M703.9874 988 L690.4874 982.375 L693.8624 988 L690.4874 993.625 Z" stroke-width="2" clip-path="url(#clipPath2)" stroke="none"/>
      <text x="604.8896" xml:space="preserve" y="962.1543" clip-path="url(#clipPath2)" font-family="sans-serif" stroke="none">Method Call</text>
      <path fill="none" d="M1033.604 421.015 L1046.9219 427.625 L1065.3555 438.4375 L1080.4375 449.25 L1092.168 460.0625 L1100.5469 470.875 L1105.5742 481.6875 L1107.25 492.5 L1105.5742 503.3125 L1100.5469 514.125 L1092.168 524.9375 L1080.4375 535.75 L1065.3555 546.5625 L1054.4806 552.9413 L1054.391 552.9858" stroke-width="2" clip-path="url(#clipPath2)" stroke="red"/>
      <path fill="red" d="M1046.623 557.5309 L1061.1157 555.5682 L1055.3621 552.4176 L1055.4342 545.8582 Z" stroke-width="2" clip-path="url(#clipPath2)" stroke="none"/>
      <text x="965.6218" xml:space="preserve" y="439.1387" clip-path="url(#clipPath2)" font-family="sans-serif" stroke="none">1. Memebr Down Event</text>
      <path fill="none" d="M830.9709 406.9827 L910.9874 406.5175" clip-path="url(#clipPath2)"/>
      <path fill="none" d="M710.0744 422.5104 L697.7578 428.9375 L680.377 439.6562 L666.1562 450.375 L655.0957 461.0938 L647.1953 471.8125 L642.4551 482.5312 L640.875 493.25 L642.4551 503.9688 L647.1953 514.6875 L655.0957 525.4062 L666.1562 536.125 L680.377 546.8438 L689.9955 552.7755" stroke-width="2" clip-path="url(#clipPath2)" stroke="red"/>
      <path fill="red" d="M697.6559 557.4997 L689.1179 545.6257 L689.038 552.185 L683.2127 555.2012 Z" stroke-width="2" clip-path="url(#clipPath2)" stroke="none"/>
      <text x="592.875" xml:space="preserve" y="439.1481" clip-path="url(#clipPath2)" font-family="sans-serif" stroke="none">1. Member Down Event</text>
      <path fill="none" d="M1089.0178 579.3505 L1149 579.5866" clip-path="url(#clipPath2)"/>
      <path fill="none" d="M1089.0178 662.3505 L1149 662.5866" clip-path="url(#clipPath2)"/>
    </g>
  </g>
</svg>
