<?xml version="1.0" encoding="UTF-8"?><svg xmlns="http://www.w3.org/2000/svg" xmlns:xlink="http://www.w3.org/1999/xlink" fill-opacity="1" color-rendering="auto" color-interpolation="auto" text-rendering="auto" stroke="black" stroke-linecap="square" width="1056" stroke-miterlimit="10" shape-rendering="auto" stroke-opacity="1" fill="black" stroke-dasharray="none" font-weight="normal" stroke-width="1" height="815" font-family="'Dialog'" font-style="normal" stroke-linejoin="miter" font-size="12px" stroke-dashoffset="0" image-rendering="auto">
  <!--Generated by ySVG 2.5-->
  <defs id="genericDefs"/>
  <g>
    <defs id="defs1">
      <clipPath clipPathUnits="userSpaceOnUse" id="clipPath1">
        <path d="M0 0 L1056 0 L1056 815 L0 815 L0 0 Z"/>
      </clipPath>
      <clipPath clipPathUnits="userSpaceOnUse" id="clipPath2">
        <path d="M343 268 L1399 268 L1399 1083 L343 1083 L343 268 Z"/>
      </clipPath>
    </defs>
    <g fill="white" text-rendering="geometricPrecision" shape-rendering="geometricPrecision" transform="translate(-343,-268)" stroke="white">
      <rect x="343" width="1056" height="815" y="268" clip-path="url(#clipPath2)" stroke="none"/>
    </g>
    <g text-rendering="geometricPrecision" stroke-miterlimit="1.45" shape-rendering="geometricPrecision" transform="matrix(1,0,0,1,-343,-268)" stroke-linecap="butt">
      <rect x="394" y="357" clip-path="url(#clipPath2)" fill="none" width="234" rx="4" ry="4" height="520"/>
      <text x="400" xml:space="preserve" y="374.1387" clip-path="url(#clipPath2)" font-family="sans-serif" stroke="none">Cluster Node 1 (Joined)</text>
    </g>
    <g fill="rgb(153,204,255)" text-rendering="geometricPrecision" shape-rendering="geometricPrecision" transform="matrix(1,0,0,1,-343,-268)" stroke="rgb(153,204,255)">
      <rect x="420" y="486.5" clip-path="url(#clipPath2)" width="188" rx="4" ry="4" height="43" stroke="none"/>
    </g>
    <g text-rendering="geometricPrecision" stroke-miterlimit="1.45" stroke-width="2" shape-rendering="geometricPrecision" transform="matrix(1,0,0,1,-343,-268)" stroke-linecap="butt">
      <rect x="420" y="486.5" clip-path="url(#clipPath2)" fill="none" width="188" rx="4" ry="4" height="43"/>
      <text x="459.9033" y="512.1543" clip-path="url(#clipPath2)" font-family="sans-serif" stroke="none" stroke-width="1" xml:space="preserve">Ssh Client Service</text>
    </g>
    <g fill="rgb(255,204,0)" text-rendering="geometricPrecision" shape-rendering="geometricPrecision" transform="matrix(1,0,0,1,-343,-268)" stroke="rgb(255,204,0)">
      <rect x="420" y="582.5" clip-path="url(#clipPath2)" width="188" rx="4" ry="4" height="43" stroke="none"/>
    </g>
    <g text-rendering="geometricPrecision" stroke-miterlimit="1.45" stroke-width="2" shape-rendering="geometricPrecision" transform="matrix(1,0,0,1,-343,-268)" stroke-linecap="butt">
      <rect x="420" y="582.5" clip-path="url(#clipPath2)" fill="none" width="188" rx="4" ry="4" height="43"/>
      <text x="451.8525" y="608.1543" clip-path="url(#clipPath2)" font-family="sans-serif" stroke="none" stroke-width="1" xml:space="preserve">Ssh Cluster Manager</text>
      <rect x="652" y="357" clip-path="url(#clipPath2)" fill="none" width="234" rx="4" ry="4" height="520" stroke-width="1"/>
      <text x="658" y="374.1387" clip-path="url(#clipPath2)" font-family="sans-serif" stroke="none" stroke-width="1" xml:space="preserve">Cluster Node 2</text>
    </g>
    <g fill="rgb(153,204,255)" text-rendering="geometricPrecision" shape-rendering="geometricPrecision" transform="matrix(1,0,0,1,-343,-268)" stroke="rgb(153,204,255)">
      <rect x="678" y="486.5" clip-path="url(#clipPath2)" width="178" rx="4" ry="4" height="43" stroke="none"/>
    </g>
    <g text-rendering="geometricPrecision" stroke-miterlimit="1.45" stroke-width="2" shape-rendering="geometricPrecision" transform="matrix(1,0,0,1,-343,-268)" stroke-linecap="butt">
      <rect x="678" y="486.5" clip-path="url(#clipPath2)" fill="none" width="178" rx="4" ry="4" height="43"/>
      <text x="712.9033" y="512.1543" clip-path="url(#clipPath2)" font-family="sans-serif" stroke="none" stroke-width="1" xml:space="preserve">Ssh Client Service</text>
    </g>
    <g fill="rgb(255,204,0)" text-rendering="geometricPrecision" shape-rendering="geometricPrecision" transform="matrix(1,0,0,1,-343,-268)" stroke="rgb(255,204,0)">
      <rect x="678" y="582.5" clip-path="url(#clipPath2)" width="178" rx="4" ry="4" height="43" stroke="none"/>
    </g>
    <g text-rendering="geometricPrecision" stroke-miterlimit="1.45" stroke-width="2" shape-rendering="geometricPrecision" transform="matrix(1,0,0,1,-343,-268)" stroke-linecap="butt">
      <rect x="678" y="582.5" clip-path="url(#clipPath2)" fill="none" width="178" rx="4" ry="4" height="43"/>
      <text x="704.8525" y="608.1543" clip-path="url(#clipPath2)" font-family="sans-serif" stroke="none" stroke-width="1" xml:space="preserve">Ssh Cluster Manager</text>
      <rect x="910" y="357" clip-path="url(#clipPath2)" fill="none" width="234" rx="4" ry="4" height="520" stroke-width="1"/>
      <text x="916" y="374.1387" clip-path="url(#clipPath2)" font-family="sans-serif" stroke="none" stroke-width="1" xml:space="preserve">Cluster Node 3 (Leader Node)</text>
    </g>
    <g fill="rgb(153,204,255)" text-rendering="geometricPrecision" shape-rendering="geometricPrecision" transform="matrix(1,0,0,1,-343,-268)" stroke="rgb(153,204,255)">
      <rect x="936" y="486.5" clip-path="url(#clipPath2)" width="178" rx="4" ry="4" height="43" stroke="none"/>
    </g>
    <g text-rendering="geometricPrecision" stroke-miterlimit="1.45" stroke-width="2" shape-rendering="geometricPrecision" transform="matrix(1,0,0,1,-343,-268)" stroke-linecap="butt">
      <rect x="936" y="486.5" clip-path="url(#clipPath2)" fill="none" width="178" rx="4" ry="4" height="43"/>
      <text x="970.9033" y="512.1543" clip-path="url(#clipPath2)" font-family="sans-serif" stroke="none" stroke-width="1" xml:space="preserve">Ssh Client Service</text>
    </g>
    <g fill="rgb(255,204,0)" text-rendering="geometricPrecision" shape-rendering="geometricPrecision" transform="matrix(1,0,0,1,-343,-268)" stroke="rgb(255,204,0)">
      <rect x="936" y="582.5" clip-path="url(#clipPath2)" width="178" rx="4" ry="4" height="43" stroke="none"/>
    </g>
    <g text-rendering="geometricPrecision" stroke-miterlimit="1.45" stroke-width="2" shape-rendering="geometricPrecision" transform="matrix(1,0,0,1,-343,-268)" stroke-linecap="butt">
      <rect x="936" y="582.5" clip-path="url(#clipPath2)" fill="none" width="178" rx="4" ry="4" height="43"/>
      <text x="962.8525" y="601.1699" clip-path="url(#clipPath2)" font-family="sans-serif" stroke="none" stroke-width="1" xml:space="preserve">Shs Cluster Manager</text>
      <text x="976.4375" y="615.1387" clip-path="url(#clipPath2)" font-family="sans-serif" stroke="none" stroke-width="1" xml:space="preserve">(Cluster Leader)</text>
    </g>
    <g fill="rgb(255,204,0)" text-rendering="geometricPrecision" shape-rendering="geometricPrecision" transform="matrix(1,0,0,1,-343,-268)" stroke="rgb(255,204,0)">
      <rect x="420" y="669.5" clip-path="url(#clipPath2)" width="188" rx="4" ry="4" height="43" stroke="none"/>
    </g>
    <g text-rendering="geometricPrecision" stroke-miterlimit="1.45" stroke-width="2" shape-rendering="geometricPrecision" transform="matrix(1,0,0,1,-343,-268)" stroke-linecap="butt">
      <rect x="420" y="669.5" clip-path="url(#clipPath2)" fill="none" width="188" rx="4" ry="4" height="43"/>
      <text x="432.6924" y="695.1543" clip-path="url(#clipPath2)" font-family="sans-serif" stroke="none" stroke-width="1" xml:space="preserve">Ssh Local Session Manager</text>
    </g>
    <g fill="rgb(255,204,0)" text-rendering="geometricPrecision" shape-rendering="geometricPrecision" transform="matrix(1,0,0,1,-343,-268)" stroke="rgb(255,204,0)">
      <rect x="678" y="667.5" clip-path="url(#clipPath2)" width="178" rx="4" ry="4" height="43" stroke="none"/>
    </g>
    <g text-rendering="geometricPrecision" stroke-miterlimit="1.45" stroke-width="2" shape-rendering="geometricPrecision" transform="matrix(1,0,0,1,-343,-268)" stroke-linecap="butt">
      <rect x="678" y="667.5" clip-path="url(#clipPath2)" fill="none" width="178" rx="4" ry="4" height="43"/>
      <text x="685.6924" y="693.1543" clip-path="url(#clipPath2)" font-family="sans-serif" stroke="none" stroke-width="1" xml:space="preserve">Ssh Local Session Manager</text>
    </g>
    <g fill="rgb(255,204,0)" text-rendering="geometricPrecision" shape-rendering="geometricPrecision" transform="matrix(1,0,0,1,-343,-268)" stroke="rgb(255,204,0)">
      <rect x="936" y="665.5" clip-path="url(#clipPath2)" width="178" rx="4" ry="4" height="43" stroke="none"/>
    </g>
    <g text-rendering="geometricPrecision" stroke-miterlimit="1.45" stroke-width="2" shape-rendering="geometricPrecision" transform="matrix(1,0,0,1,-343,-268)" stroke-linecap="butt">
      <rect x="936" y="665.5" clip-path="url(#clipPath2)" fill="none" width="178" rx="4" ry="4" height="43"/>
      <text x="941.5889" y="691.1543" clip-path="url(#clipPath2)" font-family="sans-serif" stroke="none" stroke-width="1" xml:space="preserve">Ssh Session Manager Agent</text>
      <text x="642.9297" font-size="22px" y="305.6162" clip-path="url(#clipPath2)" font-family="sans-serif" stroke="none" stroke-width="1" xml:space="preserve">Cluster member joined</text>
    </g>
    <g fill="rgb(153,204,255)" text-rendering="geometricPrecision" shape-rendering="geometricPrecision" transform="matrix(1,0,0,1,-343,-268)" stroke="rgb(153,204,255)">
      <rect x="409" y="916" clip-path="url(#clipPath2)" width="115" rx="4" ry="4" height="43" stroke="none"/>
    </g>
    <g text-rendering="geometricPrecision" stroke-miterlimit="1.45" stroke-width="2" shape-rendering="geometricPrecision" transform="matrix(1,0,0,1,-343,-268)" stroke-linecap="butt">
      <rect x="409" y="916" clip-path="url(#clipPath2)" fill="none" width="115" rx="4" ry="4" height="43"/>
      <text x="427.4385" y="934.6699" clip-path="url(#clipPath2)" font-family="sans-serif" stroke="none" stroke-width="1" xml:space="preserve">Service bean</text>
      <text x="415.9453" y="948.6387" clip-path="url(#clipPath2)" font-family="sans-serif" stroke="none" stroke-width="1" xml:space="preserve">(Single Instance)</text>
    </g>
    <g fill="rgb(255,204,0)" text-rendering="geometricPrecision" shape-rendering="geometricPrecision" transform="matrix(1,0,0,1,-343,-268)" stroke="rgb(255,204,0)">
      <rect x="409" y="965.116" clip-path="url(#clipPath2)" width="115" rx="4" ry="4" height="30" stroke="none"/>
    </g>
    <g text-rendering="geometricPrecision" stroke-miterlimit="1.45" shape-rendering="geometricPrecision" transform="matrix(1,0,0,1,-343,-268)" stroke-linecap="butt">
      <rect x="409" y="965.116" clip-path="url(#clipPath2)" fill="none" width="115" rx="4" ry="4" height="30"/>
      <text x="433.9688" xml:space="preserve" y="984.2703" clip-path="url(#clipPath2)" font-family="sans-serif" stroke="none">Akka Actor</text>
    </g>
    <g fill="rgb(255,204,0)" text-rendering="geometricPrecision" shape-rendering="geometricPrecision" transform="matrix(1,0,0,1,-343,-268)" stroke="rgb(255,204,0)">
      <rect x="409" y="1001.232" clip-path="url(#clipPath2)" width="115" rx="4" ry="4" height="30" stroke="none"/>
    </g>
    <g text-rendering="geometricPrecision" stroke-miterlimit="1.45" stroke-width="2" shape-rendering="geometricPrecision" transform="matrix(1,0,0,1,-343,-268)" stroke-linecap="butt">
      <rect x="409" y="1001.232" clip-path="url(#clipPath2)" fill="none" width="115" rx="4" ry="4" height="30"/>
      <text x="433.9688" y="1013.4019" clip-path="url(#clipPath2)" font-family="sans-serif" stroke="none" stroke-width="1" xml:space="preserve">Akka Actor</text>
      <text x="415.9453" y="1027.3707" clip-path="url(#clipPath2)" font-family="sans-serif" stroke="none" stroke-width="1" xml:space="preserve">(Single Instance)</text>
    </g>
    <g fill="rgb(153,204,255)" text-rendering="geometricPrecision" shape-rendering="geometricPrecision" transform="matrix(1,0,0,1,-343,-268)" stroke="rgb(153,204,255)">
      <rect x="409" y="1037.348" clip-path="url(#clipPath2)" width="115" rx="4" ry="4" height="30" stroke="none"/>
    </g>
    <g text-rendering="geometricPrecision" stroke-miterlimit="1.45" shape-rendering="geometricPrecision" transform="matrix(1,0,0,1,-343,-268)" stroke-linecap="butt">
      <rect x="409" y="1037.348" clip-path="url(#clipPath2)" fill="none" width="115" rx="4" ry="4" height="30"/>
      <text x="422.9561" xml:space="preserve" y="1056.5023" clip-path="url(#clipPath2)" font-family="sans-serif" stroke="none">Wrapper Class</text>
    </g>
    <g fill="white" text-rendering="geometricPrecision" shape-rendering="geometricPrecision" transform="matrix(1,0,0,1,-343,-268)" stroke="white">
      <rect x="936" y="416" clip-path="url(#clipPath2)" width="178" rx="4" ry="4" height="30" stroke="none"/>
    </g>
    <g text-rendering="geometricPrecision" stroke-miterlimit="1.45" shape-rendering="geometricPrecision" transform="matrix(1,0,0,1,-343,-268)" stroke-linecap="butt">
      <rect x="936" y="416" clip-path="url(#clipPath2)" fill="none" width="178" rx="4" ry="4" height="30"/>
      <text x="968.1875" xml:space="preserve" y="435.1543" clip-path="url(#clipPath2)" font-family="sans-serif" stroke="none">Akka Actor System</text>
    </g>
    <g fill="white" text-rendering="geometricPrecision" shape-rendering="geometricPrecision" transform="matrix(1,0,0,1,-343,-268)" stroke="white">
      <rect x="678" y="417.5" clip-path="url(#clipPath2)" width="178" rx="4" ry="4" height="30" stroke="none"/>
    </g>
    <g text-rendering="geometricPrecision" stroke-miterlimit="1.45" shape-rendering="geometricPrecision" transform="matrix(1,0,0,1,-343,-268)" stroke-linecap="butt">
      <rect x="678" y="417.5" clip-path="url(#clipPath2)" fill="none" width="178" rx="4" ry="4" height="30"/>
      <text x="710.1875" xml:space="preserve" y="436.6543" clip-path="url(#clipPath2)" font-family="sans-serif" stroke="none">Akka Actor System</text>
    </g>
    <g fill="white" text-rendering="geometricPrecision" shape-rendering="geometricPrecision" transform="matrix(1,0,0,1,-343,-268)" stroke="white">
      <rect x="420" y="417.5" clip-path="url(#clipPath2)" width="188" rx="4" ry="4" height="30" stroke="none"/>
    </g>
    <g text-rendering="geometricPrecision" stroke-miterlimit="1.45" shape-rendering="geometricPrecision" transform="matrix(1,0,0,1,-343,-268)" stroke-linecap="butt">
      <rect x="420" y="417.5" clip-path="url(#clipPath2)" fill="none" width="188" rx="4" ry="4" height="30"/>
      <text x="457.1875" xml:space="preserve" y="436.6543" clip-path="url(#clipPath2)" font-family="sans-serif" stroke="none">Akka Actor System</text>
      <rect fill="none" x="1174" width="210" height="30" y="590" clip-path="url(#clipPath2)"/>
      <text x="1203.0742" xml:space="preserve" y="602.1699" clip-path="url(#clipPath2)" font-family="sans-serif" stroke="none">has map of all ssh clients</text>
      <text x="1203.0742" xml:space="preserve" y="616.1387" clip-path="url(#clipPath2)" font-family="sans-serif" stroke="none">and all ssh sessions</text>
      <rect fill="none" x="1174" width="210" height="30" y="673" clip-path="url(#clipPath2)"/>
      <text x="1188.4668" xml:space="preserve" y="685.1699" clip-path="url(#clipPath2)" font-family="sans-serif" stroke="none">has map of local ssh sessions </text>
      <text x="1188.4668" xml:space="preserve" y="699.1387" clip-path="url(#clipPath2)" font-family="sans-serif" stroke="none">and their clients</text>
      <path fill="none" d="M936.017 615.7512 L896.4376 620.9781 L768.4167 641.1375 L640.9376 664.4781 L616.2465 669.637" stroke-width="2" clip-path="url(#clipPath2)" stroke="red"/>
      <path fill="red" d="M607.4367 671.4777 L621.8018 674.2227 L617.3477 669.4069 L619.5009 663.2105 Z" stroke-width="2" clip-path="url(#clipPath2)" stroke="none"/>
      <path fill="none" d="M608.0109 678.62 L642.5704 674.069 L770.5939 653.9253 L898.0704 630.569 L927.3464 624.4409" stroke-width="2" clip-path="url(#clipPath2)" stroke="red"/>
      <path fill="red" d="M936.1555 622.597 L921.7894 619.8572 L926.2453 624.6714 L924.0944 630.8685 Z" stroke-width="2" clip-path="url(#clipPath2)" stroke="none"/>
      <path fill="none" d="M601.9871 953 L719.9874 953" stroke-width="2" clip-path="url(#clipPath2)" stroke="red"/>
      <path fill="red" d="M728.9874 953 L715.4874 947.375 L718.8624 953 L715.4874 958.625 Z" stroke-width="2" clip-path="url(#clipPath2)" stroke="none"/>
      <text x="602.5762" xml:space="preserve" y="927.1543" clip-path="url(#clipPath2)" font-family="sans-serif" stroke="none">Akka Tell (Remoting)</text>
      <path fill="none" d="M601.9871 1013 L719.9874 1013" stroke-width="2" clip-path="url(#clipPath2)"/>
      <path d="M728.9874 1013 L715.4874 1007.375 L718.8624 1013 L715.4874 1018.625 Z" stroke-width="2" clip-path="url(#clipPath2)" stroke="none"/>
      <text x="629.8896" xml:space="preserve" y="987.1543" clip-path="url(#clipPath2)" font-family="sans-serif" stroke="none">Method Call</text>
      <path fill="none" d="M1058.604 446.015 L1071.9219 452.625 L1090.3555 463.4375 L1105.4375 474.25 L1117.168 485.0625 L1125.5469 495.875 L1130.5742 506.6875 L1132.25 517.5 L1130.5742 528.3125 L1125.5469 539.125 L1117.168 549.9375 L1105.4375 560.75 L1090.3555 571.5625 L1079.4806 577.9413 L1079.391 577.9858" stroke-width="2" clip-path="url(#clipPath2)" stroke="red"/>
      <path fill="red" d="M1071.623 582.5309 L1086.1157 580.5682 L1080.3621 577.4176 L1080.4342 570.8582 Z" stroke-width="2" clip-path="url(#clipPath2)" stroke="none"/>
      <text x="999.7126" xml:space="preserve" y="464.1387" clip-path="url(#clipPath2)" font-family="sans-serif" stroke="none">1. Member UP event</text>
      <path fill="none" d="M855.9709 431.9827 L935.9874 431.5175" clip-path="url(#clipPath2)"/>
      <path fill="none" d="M735.0744 447.5104 L722.7578 453.9375 L705.377 464.6562 L691.1562 475.375 L680.0957 486.0938 L672.1953 496.8125 L667.4551 507.5312 L665.875 518.25 L667.4551 528.9688 L672.1953 539.6875 L680.0957 550.4062 L691.1562 561.125 L705.377 571.8438 L714.9955 577.7755" stroke-width="2" clip-path="url(#clipPath2)" stroke="red"/>
      <path fill="red" d="M722.6559 582.4997 L714.1179 570.6257 L714.038 577.185 L708.2127 580.2012 Z" stroke-width="2" clip-path="url(#clipPath2)" stroke="none"/>
      <text x="626.9658" xml:space="preserve" y="464.1481" clip-path="url(#clipPath2)" font-family="sans-serif" stroke="none">1. Member UP event</text>
      <path fill="none" d="M607.9794 432.5 L677.978 432.5" clip-path="url(#clipPath2)"/>
      <path fill="none" d="M473.5758 447.5 L457.9453 453.9375 L435.9238 464.6562 L417.9062 475.375 L403.8926 486.0938 L393.8828 496.8125 L387.877 507.5312 L385.875 518.25 L387.877 528.9688 L393.8828 539.6875 L403.8926 550.4062 L417.9062 561.125 L435.9238 571.8438 L449.724 578.5609" stroke-width="2" clip-path="url(#clipPath2)" stroke="red"/>
      <path fill="red" d="M457.8163 582.4997 L448.1396 571.5338 L448.7124 578.0685 L443.216 581.6491 Z" stroke-width="2" clip-path="url(#clipPath2)" stroke="none"/>
      <text x="360.8207" xml:space="preserve" y="462.0978" clip-path="url(#clipPath2)" font-family="sans-serif" stroke="none">1. Member UP event</text>
      <path fill="none" d="M1114.0178 604.3505 L1174 604.5866" clip-path="url(#clipPath2)"/>
      <path fill="none" d="M1114.0178 687.3505 L1174 687.5866" clip-path="url(#clipPath2)"/>
    </g>
  </g>
</svg>
