<?xml version="1.0" encoding="UTF-8"?><svg xmlns="http://www.w3.org/2000/svg" xmlns:xlink="http://www.w3.org/1999/xlink" fill-opacity="1" color-rendering="auto" color-interpolation="auto" text-rendering="auto" stroke="black" stroke-linecap="square" width="1285" stroke-miterlimit="10" shape-rendering="auto" stroke-opacity="1" fill="black" stroke-dasharray="none" font-weight="normal" stroke-width="1" height="815" font-family="'Dialog'" font-style="normal" stroke-linejoin="miter" font-size="12px" stroke-dashoffset="0" image-rendering="auto">
  <!--Generated by ySVG 2.5-->
  <defs id="genericDefs"/>
  <g>
    <g fill="white" text-rendering="geometricPrecision" shape-rendering="geometricPrecision" transform="translate(-15,-168)" stroke="white">
      <rect x="15" width="1285" height="815" y="168" clip-path="url(#clipPath2)" stroke="none"/>
    </g>
    <g text-rendering="geometricPrecision" stroke-miterlimit="1.45" shape-rendering="geometricPrecision" transform="matrix(1,0,0,1,-15,-168)" stroke-linecap="butt">
      <rect x="206" y="257" clip-path="url(#clipPath2)" fill="none" width="234" rx="4" ry="4" height="520"/>
      <text x="212" xml:space="preserve" y="274.1387" clip-path="url(#clipPath2)" font-family="sans-serif" stroke="none">Cluster Node 1</text>
    </g>
    <g fill="rgb(153,204,255)" text-rendering="geometricPrecision" shape-rendering="geometricPrecision" transform="matrix(1,0,0,1,-15,-168)" stroke="rgb(153,204,255)">
      <rect x="232" y="386.5" clip-path="url(#clipPath2)" width="188" rx="4" ry="4" height="43" stroke="none"/>
    </g>
    <g text-rendering="geometricPrecision" stroke-miterlimit="1.45" stroke-width="2" shape-rendering="geometricPrecision" transform="matrix(1,0,0,1,-15,-168)" stroke-linecap="butt">
      <rect x="232" y="386.5" clip-path="url(#clipPath2)" fill="none" width="188" rx="4" ry="4" height="43"/>
      <text x="271.9033" y="412.1543" clip-path="url(#clipPath2)" font-family="sans-serif" stroke="none" stroke-width="1" xml:space="preserve">Ssh Client Service</text>
    </g>
    <g fill="rgb(255,204,0)" text-rendering="geometricPrecision" shape-rendering="geometricPrecision" transform="matrix(1,0,0,1,-15,-168)" stroke="rgb(255,204,0)">
      <rect x="232" y="482.5" clip-path="url(#clipPath2)" width="188" rx="4" ry="4" height="43" stroke="none"/>
    </g>
    <g text-rendering="geometricPrecision" stroke-miterlimit="1.45" stroke-width="2" shape-rendering="geometricPrecision" transform="matrix(1,0,0,1,-15,-168)" stroke-linecap="butt">
      <rect x="232" y="482.5" clip-path="url(#clipPath2)" fill="none" width="188" rx="4" ry="4" height="43"/>
      <text x="263.8525" y="508.1543" clip-path="url(#clipPath2)" font-family="sans-serif" stroke="none" stroke-width="1" xml:space="preserve">Ssh Cluster Manager</text>
      <rect x="464" y="257" clip-path="url(#clipPath2)" fill="none" width="234" rx="4" ry="4" height="520" stroke-width="1"/>
      <text x="470" y="274.1387" clip-path="url(#clipPath2)" font-family="sans-serif" stroke="none" stroke-width="1" xml:space="preserve">Cluster Node 2 (Leader Node)</text>
    </g>
    <g fill="rgb(153,204,255)" text-rendering="geometricPrecision" shape-rendering="geometricPrecision" transform="matrix(1,0,0,1,-15,-168)" stroke="rgb(153,204,255)">
      <rect x="490" y="386.5" clip-path="url(#clipPath2)" width="178" rx="4" ry="4" height="43" stroke="none"/>
    </g>
    <g text-rendering="geometricPrecision" stroke-miterlimit="1.45" stroke-width="2" shape-rendering="geometricPrecision" transform="matrix(1,0,0,1,-15,-168)" stroke-linecap="butt">
      <rect x="490" y="386.5" clip-path="url(#clipPath2)" fill="none" width="178" rx="4" ry="4" height="43"/>
      <text x="524.9033" y="412.1543" clip-path="url(#clipPath2)" font-family="sans-serif" stroke="none" stroke-width="1" xml:space="preserve">Ssh Client Service</text>
    </g>
    <g fill="rgb(255,204,0)" text-rendering="geometricPrecision" shape-rendering="geometricPrecision" transform="matrix(1,0,0,1,-15,-168)" stroke="rgb(255,204,0)">
      <rect x="490" y="482.5" clip-path="url(#clipPath2)" width="178" rx="4" ry="4" height="43" stroke="none"/>
    </g>
    <g text-rendering="geometricPrecision" stroke-miterlimit="1.45" stroke-width="2" shape-rendering="geometricPrecision" transform="matrix(1,0,0,1,-15,-168)" stroke-linecap="butt">
      <rect x="490" y="482.5" clip-path="url(#clipPath2)" fill="none" width="178" rx="4" ry="4" height="43"/>
      <text x="516.8525" y="501.1699" clip-path="url(#clipPath2)" font-family="sans-serif" stroke="none" stroke-width="1" xml:space="preserve">Ssh Cluster Manager</text>
      <text x="530.4375" y="515.1387" clip-path="url(#clipPath2)" font-family="sans-serif" stroke="none" stroke-width="1" xml:space="preserve">(Cluster Leader)</text>
      <rect x="722" y="257" clip-path="url(#clipPath2)" fill="none" width="234" rx="4" ry="4" height="520" stroke-width="1"/>
      <text x="728" y="274.1387" clip-path="url(#clipPath2)" font-family="sans-serif" stroke="none" stroke-width="1" xml:space="preserve">Cluster Node 3</text>
    </g>
    <g fill="rgb(153,204,255)" text-rendering="geometricPrecision" shape-rendering="geometricPrecision" transform="matrix(1,0,0,1,-15,-168)" stroke="rgb(153,204,255)">
      <rect x="748" y="386.5" clip-path="url(#clipPath2)" width="178" rx="4" ry="4" height="43" stroke="none"/>
    </g>
    <g text-rendering="geometricPrecision" stroke-miterlimit="1.45" stroke-width="2" shape-rendering="geometricPrecision" transform="matrix(1,0,0,1,-15,-168)" stroke-linecap="butt">
      <rect x="748" y="386.5" clip-path="url(#clipPath2)" fill="none" width="178" rx="4" ry="4" height="43"/>
      <text x="782.9033" y="412.1543" clip-path="url(#clipPath2)" font-family="sans-serif" stroke="none" stroke-width="1" xml:space="preserve">Ssh Client Service</text>
    </g>
    <g fill="rgb(255,204,0)" text-rendering="geometricPrecision" shape-rendering="geometricPrecision" transform="matrix(1,0,0,1,-15,-168)" stroke="rgb(255,204,0)">
      <rect x="748" y="482.5" clip-path="url(#clipPath2)" width="178" rx="4" ry="4" height="43" stroke="none"/>
    </g>
    <g text-rendering="geometricPrecision" stroke-miterlimit="1.45" stroke-width="2" shape-rendering="geometricPrecision" transform="matrix(1,0,0,1,-15,-168)" stroke-linecap="butt">
      <rect x="748" y="482.5" clip-path="url(#clipPath2)" fill="none" width="178" rx="4" ry="4" height="43"/>
      <text x="774.8525" y="508.1543" clip-path="url(#clipPath2)" font-family="sans-serif" stroke="none" stroke-width="1" xml:space="preserve">Ssh Cluster Manager</text>
    </g>
    <g fill="rgb(255,204,0)" text-rendering="geometricPrecision" shape-rendering="geometricPrecision" transform="matrix(1,0,0,1,-15,-168)" stroke="rgb(255,204,0)">
      <rect x="232" y="569.5" clip-path="url(#clipPath2)" width="188" rx="4" ry="4" height="43" stroke="none"/>
    </g>
    <g text-rendering="geometricPrecision" stroke-miterlimit="1.45" stroke-width="2" shape-rendering="geometricPrecision" transform="matrix(1,0,0,1,-15,-168)" stroke-linecap="butt">
      <rect x="232" y="569.5" clip-path="url(#clipPath2)" fill="none" width="188" rx="4" ry="4" height="43"/>
      <text x="244.6924" y="595.1543" clip-path="url(#clipPath2)" font-family="sans-serif" stroke="none" stroke-width="1" xml:space="preserve">Ssh Local Session Manager</text>
    </g>
    <g fill="rgb(255,204,0)" text-rendering="geometricPrecision" shape-rendering="geometricPrecision" transform="matrix(1,0,0,1,-15,-168)" stroke="rgb(255,204,0)">
      <rect x="490" y="567.5" clip-path="url(#clipPath2)" width="178" rx="4" ry="4" height="43" stroke="none"/>
    </g>
    <g text-rendering="geometricPrecision" stroke-miterlimit="1.45" stroke-width="2" shape-rendering="geometricPrecision" transform="matrix(1,0,0,1,-15,-168)" stroke-linecap="butt">
      <rect x="490" y="567.5" clip-path="url(#clipPath2)" fill="none" width="178" rx="4" ry="4" height="43"/>
      <text x="497.6924" y="593.1543" clip-path="url(#clipPath2)" font-family="sans-serif" stroke="none" stroke-width="1" xml:space="preserve">Ssh Local Session Manager</text>
    </g>
    <g fill="rgb(255,204,0)" text-rendering="geometricPrecision" shape-rendering="geometricPrecision" transform="matrix(1,0,0,1,-15,-168)" stroke="rgb(255,204,0)">
      <rect x="748" y="565.5" clip-path="url(#clipPath2)" width="178" rx="4" ry="4" height="43" stroke="none"/>
    </g>
    <g text-rendering="geometricPrecision" stroke-miterlimit="1.45" stroke-width="2" shape-rendering="geometricPrecision" transform="matrix(1,0,0,1,-15,-168)" stroke-linecap="butt">
      <rect x="748" y="565.5" clip-path="url(#clipPath2)" fill="none" width="178" rx="4" ry="4" height="43"/>
      <text x="753.5889" y="591.1543" clip-path="url(#clipPath2)" font-family="sans-serif" stroke="none" stroke-width="1" xml:space="preserve">Ssh Session Manager Agent</text>
    </g>
    <g fill="silver" text-rendering="geometricPrecision" shape-rendering="geometricPrecision" transform="matrix(1,0,0,1,-15,-168)" stroke="silver">
      <rect x="232" y="281" clip-path="url(#clipPath2)" width="188" rx="4" ry="4" height="43" stroke="none"/>
    </g>
    <g text-rendering="geometricPrecision" stroke-miterlimit="1.45" shape-rendering="geometricPrecision" transform="matrix(1,0,0,1,-15,-168)" stroke-linecap="butt">
      <rect x="232" y="281" clip-path="url(#clipPath2)" fill="none" width="188" rx="4" ry="4" height="43"/>
      <text x="283.8301" xml:space="preserve" y="299.6699" clip-path="url(#clipPath2)" font-family="sans-serif" stroke="none">Client Session</text>
      <text x="295.2002" xml:space="preserve" y="313.6387" clip-path="url(#clipPath2)" font-family="sans-serif" stroke="none">id=client1</text>
    </g>
    <g fill="rgb(255,204,0)" text-rendering="geometricPrecision" shape-rendering="geometricPrecision" transform="matrix(1,0,0,1,-15,-168)" stroke="rgb(255,204,0)">
      <rect x="748" y="659.5" clip-path="url(#clipPath2)" width="115" rx="4" ry="4" height="43" stroke="none"/>
    </g>
    <g text-rendering="geometricPrecision" stroke-miterlimit="1.45" shape-rendering="geometricPrecision" transform="matrix(1,0,0,1,-15,-168)" stroke-linecap="butt">
      <rect x="748" y="659.5" clip-path="url(#clipPath2)" fill="none" width="115" rx="4" ry="4" height="43"/>
      <text x="764.8066" xml:space="preserve" y="678.1699" clip-path="url(#clipPath2)" font-family="sans-serif" stroke="none">Session Actor</text>
      <text x="765.1553" xml:space="preserve" y="692.1387" clip-path="url(#clipPath2)" font-family="sans-serif" stroke="none">id = session1</text>
    </g>
    <g fill="rgb(153,204,255)" text-rendering="geometricPrecision" shape-rendering="geometricPrecision" transform="matrix(1,0,0,1,-15,-168)" stroke="rgb(153,204,255)">
      <rect x="748" y="702.5" clip-path="url(#clipPath2)" width="115" rx="4" ry="4" height="43" stroke="none"/>
    </g>
    <g text-rendering="geometricPrecision" stroke-miterlimit="1.45" shape-rendering="geometricPrecision" transform="matrix(1,0,0,1,-15,-168)" stroke-linecap="butt">
      <rect x="748" y="702.5" clip-path="url(#clipPath2)" fill="none" width="115" rx="4" ry="4" height="43"/>
      <text x="771.8701" xml:space="preserve" y="721.1699" clip-path="url(#clipPath2)" font-family="sans-serif" stroke="none">SshSession</text>
      <text x="768.9697" xml:space="preserve" y="735.1387" clip-path="url(#clipPath2)" font-family="sans-serif" stroke="none">id=session1</text>
    </g>
    <g fill="rgb(255,204,0)" text-rendering="geometricPrecision" shape-rendering="geometricPrecision" transform="matrix(1,0,0,1,-15,-168)" stroke="rgb(255,204,0)">
      <rect x="339" y="429.5" clip-path="url(#clipPath2)" width="81" rx="4" ry="4" height="43" stroke="none"/>
    </g>
    <g text-rendering="geometricPrecision" stroke-miterlimit="1.45" shape-rendering="geometricPrecision" transform="matrix(1,0,0,1,-15,-168)" stroke-linecap="butt">
      <rect x="339" y="429.5" clip-path="url(#clipPath2)" fill="none" width="81" rx="4" ry="4" height="43"/>
      <text x="368.7627" xml:space="preserve" y="441.1855" clip-path="url(#clipPath2)" font-family="sans-serif" stroke="none">Ssh</text>
      <text x="344.3291" xml:space="preserve" y="455.1543" clip-path="url(#clipPath2)" font-family="sans-serif" stroke="none">Client Actor</text>
      <text x="344.8857" xml:space="preserve" y="469.123" clip-path="url(#clipPath2)" font-family="sans-serif" stroke="none">id = client1</text>
      <text x="419.6577" font-size="22px" y="205.6162" clip-path="url(#clipPath2)" font-family="sans-serif" stroke="none" xml:space="preserve">Create Session message flow</text>
      <rect fill="none" x="30" width="146" height="30" y="393" clip-path="url(#clipPath2)"/>
      <text x="43.2871" xml:space="preserve" y="405.1699" clip-path="url(#clipPath2)" font-family="sans-serif" stroke="none">find leader</text>
      <text x="43.2871" xml:space="preserve" y="419.1387" clip-path="url(#clipPath2)" font-family="sans-serif" stroke="none">create client's actor</text>
      <rect fill="none" x="997" width="288" height="82.232" y="413" clip-path="url(#clipPath2)"/>
      <text x="1012.1699" xml:space="preserve" y="437.3172" clip-path="url(#clipPath2)" font-family="sans-serif" stroke="none">decide which node will handle new session</text>
      <text x="1012.1699" xml:space="preserve" y="451.2859" clip-path="url(#clipPath2)" font-family="sans-serif" stroke="none">asks that node to create new session</text>
      <text x="1012.1699" xml:space="preserve" y="465.2547" clip-path="url(#clipPath2)" font-family="sans-serif" stroke="none">Listen on akka cluster events</text>
      <text x="1012.1699" xml:space="preserve" y="479.2234" clip-path="url(#clipPath2)" font-family="sans-serif" stroke="none">Keep list of member nodes uptodate</text>
      <rect fill="none" x="997" width="288" height="56.5" y="558.75" clip-path="url(#clipPath2)"/>
      <text x="1023.8125" xml:space="preserve" y="577.1855" clip-path="url(#clipPath2)" font-family="sans-serif" stroke="none">create new session actor and sessions</text>
      <text x="1023.8125" xml:space="preserve" y="591.1543" clip-path="url(#clipPath2)" font-family="sans-serif" stroke="none">holds active session count on the node</text>
      <text x="1023.8125" xml:space="preserve" y="605.123" clip-path="url(#clipPath2)" font-family="sans-serif" stroke="none">close sessions</text>
      <rect fill="none" x="997" width="288" height="30" y="666" clip-path="url(#clipPath2)"/>
      <text x="1055.8779" xml:space="preserve" y="678.1699" clip-path="url(#clipPath2)" font-family="sans-serif" stroke="none">wait for requests from client</text>
      <text x="1055.8779" xml:space="preserve" y="692.1387" clip-path="url(#clipPath2)" font-family="sans-serif" stroke="none">send data to client</text>
    </g>
    <g text-rendering="geometricPrecision" shape-rendering="geometricPrecision" transform="matrix(1,0,0,1,772.9524,670.458)">
      <g clip-path="url(#clipPath3)">
        <svg xml:space="preserve" opacity="1" writing-mode="lr-tb" stop-color="rgb(0, 0, 0)" shape-rendering="auto" glyph-orientation-horizontal="0deg" color-profile="auto" lighting-color="rgb(255, 255, 255)" color="rgb(0, 0, 0)" font-weight="400" alignment-baseline="auto" font-style="normal" version="1.1" color-interpolation-filters="linearrgb" text-anchor="start" stroke-linecap="butt" color-interpolation="srgb" font-variant="normal" word-spacing="normal" fill-opacity="1" text-rendering="auto" clip-path="none" text-decoration="none" letter-spacing="normal" viewBox="0 -0.741 36 57" glyph-orientation-vertical="auto" display="inline" font-size-adjust="none" overflow="hidden" fill="rgb(0, 0, 0)" font-stretch="normal" stroke-dasharray="none" stroke-miterlimit="4" stop-opacity="1" color-rendering="auto" font-size="12" pointer-events="visiblepainted" mask="none" direction="ltr" baseline-shift="baseline" enable-background="new 0 -0.741 36 57" fill-rule="nonzero" image-rendering="auto" stroke-dashoffset="0" width="36px" marker-end="none" clip="auto" cursor="auto" stroke="none" filter="none" visibility="visible" kerning="auto" stroke-width="1" font-family="&quot;Arial&quot;,&quot;Helvetica&quot;,sans-serif" flood-opacity="1" clip-rule="nonzero" src="none" height="57px" unicode-bidi="normal" stroke-linejoin="miter" stroke-opacity="1" flood-color="rgb(0, 0, 0)" dominant-baseline="auto" marker-start="none" x="0px" marker-mid="none" y="0px">
<defs>
<clipPath clipPathUnits="userSpaceOnUse" id="clipPath1">
              <path d="M0 0 L1285 0 L1285 815 L0 815 L0 0 Z"/>
            </clipPath>
            <clipPath clipPathUnits="userSpaceOnUse" id="clipPath2">
              <path d="M15 168 L1300 168 L1300 983 L15 983 L15 168 Z"/>
            </clipPath>
            <clipPath clipPathUnits="userSpaceOnUse" id="clipPath3">
              <path d="M-772.9523 -670.458 L512.0477 -670.458 L512.0477 144.542 L-772.9523 144.542 L-772.9523 -670.458 Z"/>
            </clipPath>
          </defs>
<linearGradient gradientTransform="matrix(1 0 0 1 -195.2002 -770.8008)" x1="230.1768" x2="180.3346" gradientUnits="userSpaceOnUse" y1="798.6021" y2="798.6021" id="svg1.SVGID_1_">
	<stop offset="0" style="stop-color:#4D4D4D"/>
	<stop offset="1" style="stop-color:#8D8D8D"/>
</linearGradient>
<rect fill="url(#svg1.SVGID_1_)" width="34.977" y="0.943" height="53.716"/>
<linearGradient gradientTransform="matrix(1 0 0 1 -195.2002 -770.8008)" x1="224.6807" x2="200.6973" gradientUnits="userSpaceOnUse" y1="798.6021" y2="798.6021" id="svg1.SVGID_2_">
	<stop offset="0.0319" style="stop-color:#848484"/>
	<stop offset="0.1202" style="stop-color:#8C8C8C"/>
	<stop offset="0.308" style="stop-color:#969696"/>
	<stop offset="0.5394" style="stop-color:#999999"/>
	<stop offset="0.5501" style="stop-color:#9C9C9C"/>
	<stop offset="0.6256" style="stop-color:#B0B0B0"/>
	<stop offset="0.7118" style="stop-color:#BEBEBE"/>
	<stop offset="0.8178" style="stop-color:#C7C7C7"/>
	<stop offset="1" style="stop-color:#C9C9C9"/>
</linearGradient>
<path fill="url(#svg1.SVGID_2_)" d="M5.497,0.943c7.945-1.258,16.04-1.258,23.983,0c0,17.905,0,35.811,0,53.716  c-7.943,1.258-16.039,1.258-23.983,0C5.497,36.753,5.497,18.848,5.497,0.943z"/>
<path fill="#515151" d="M5.497,14.621c7.995,0,15.989,0,23.983,0c0,13.346,0,26.693,0,40.037c-7.943,1.258-16.039,1.258-23.983,0  C5.497,41.314,5.497,27.967,5.497,14.621z"/>
<path fill="#565656" opacity="0.43" d="M5.497,4.745c7.982-0.628,16.001-0.628,23.983,0c0,2.707,0,5.413,0,8.12  c-7.994,0-15.989,0-23.983,0C5.497,10.158,5.497,7.452,5.497,4.745z"/>
<path fill="none" stroke-width="0.0999" d="M5.497,4.745  c7.982-0.628,16.001-0.628,23.983,0c0,2.707,0,5.413,0,8.12c-7.994,0-15.989,0-23.983,0C5.497,10.158,5.497,7.452,5.497,4.745z" stroke-miterlimit="10" opacity="0.43" stroke="#4D4D4D"/>
<polygon enable-background="new    " points="  6.496,5.746 9.869,5.606 9.869,6.661 6.496,6.799 " fill="#565656" opacity="0.43" stroke="#4D4D4D" stroke-width="0.0135" stroke-miterlimit="10"/>
<rect x="31.307" y="2.517" fill="#E7ED00" width="3.692" height="1.505" stroke="#717171" stroke-width="0.1926" stroke-miterlimit="10"/>
<rect x="31.307" y="5.8" fill="#C8FF00" width="3.692" height="1.507" stroke="#717171" stroke-width="0.1926" stroke-miterlimit="10"/>
<linearGradient y2="35.1235" id="svg1.SVGID_3_" x1="29.4414" gradientUnits="userSpaceOnUse" x2="5.4995" y1="35.1235">
	<stop offset="0" style="stop-color:#808080"/>
	<stop offset="0.1907" style="stop-color:#828282"/>
	<stop offset="0.2955" style="stop-color:#8A8A8A"/>
	<stop offset="0.3795" style="stop-color:#989898"/>
	<stop offset="0.4524" style="stop-color:#ACACAC"/>
	<stop offset="0.5175" style="stop-color:#C5C5C5"/>
	<stop offset="0.5273" style="stop-color:#C9C9C9"/>
	<stop offset="0.5914" style="stop-color:#C9C9C9"/>
	<stop offset="0.9681" style="stop-color:#C9C9C9"/>
</linearGradient>
<path fill="url(#svg1.SVGID_3_)" d="M5.5,14.822c0,13.22,0,26.438,0,39.66c7.931,1.256,16.012,1.256,23.941,0c0-13.222,0-26.439,0-39.66  C21.461,14.822,13.48,14.822,5.5,14.822z M28.396,18.703c-0.74,0.01-1.482,0.02-2.225,0.029c0-0.951,0-1.901-0.001-2.85  c0.742-0.003,1.483-0.005,2.224-0.008C28.396,16.817,28.396,17.76,28.396,18.703z M16.354,42.496c0-0.961,0-1.924,0-2.885  c0.744,0.006,1.489,0.006,2.233,0c0,0.961,0,1.924,0,2.885C17.843,42.503,17.098,42.503,16.354,42.496z M18.587,43.568  c0,0.955,0,1.91,0,2.866c-0.744,0.009-1.489,0.009-2.234,0c0-0.956,0-1.911,0-2.866C17.098,43.574,17.843,43.574,18.587,43.568z   M18.586,27.742c0,0.961,0,1.922,0,2.886c-0.744,0.004-1.488,0.004-2.231,0c0-0.964,0-1.925,0-2.886  C17.099,27.746,17.842,27.746,18.586,27.742z M16.354,26.671c0-0.955,0-1.91,0-2.865c0.743,0.002,1.487,0.002,2.23,0  c0,0.955,0,1.91,0,2.865C17.842,26.675,17.099,26.675,16.354,26.671z M16.354,34.583c0-0.961,0-1.924,0-2.885  c0.744,0.004,1.488,0.004,2.231,0c0,0.961,0,1.924,0,2.885C17.842,34.588,17.099,34.588,16.354,34.583z M18.586,35.656  c0,0.961,0,1.924,0.001,2.885c-0.745,0.008-1.489,0.008-2.233,0c0-0.961,0-1.924,0-2.885C17.099,35.66,17.842,35.66,18.586,35.656z   M15.307,30.619c-0.742-0.01-1.484-0.021-2.227-0.039c0-0.957,0-1.916,0-2.875c0.742,0.014,1.485,0.023,2.226,0.029  C15.307,28.695,15.307,29.656,15.307,30.619z M15.307,31.689c0,0.961,0,1.924,0,2.885c-0.742-0.012-1.485-0.025-2.227-0.047  c0-0.959,0.001-1.92,0.001-2.877C13.822,31.667,14.565,31.68,15.307,31.689z M15.307,35.644c0,0.959,0,1.922-0.001,2.883  c-0.742-0.012-1.485-0.031-2.228-0.056c0-0.959,0.001-1.918,0.001-2.877C13.821,35.617,14.564,35.633,15.307,35.644z M15.306,39.597  c0,0.96,0,1.922,0,2.883c-0.742-0.016-1.486-0.037-2.228-0.064c0-0.959,0-1.916,0.001-2.877  C13.82,39.564,14.563,39.585,15.306,39.597z M19.637,39.597c0.742-0.012,1.484-0.033,2.227-0.059c0,0.959,0,1.918,0,2.875  c-0.741,0.029-1.483,0.052-2.227,0.064C19.637,41.519,19.637,40.559,19.637,39.597z M19.637,38.527c0-0.961,0-1.924,0-2.883  c0.74-0.012,1.482-0.027,2.225-0.05c0,0.959,0,1.918,0.002,2.876C21.121,38.496,20.377,38.515,19.637,38.527z M19.637,34.572  c0-0.961,0-1.922-0.002-2.883c0.741-0.01,1.483-0.021,2.225-0.039c0.002,0.957,0.002,1.916,0.002,2.875  C21.119,34.547,20.376,34.564,19.637,34.572z M19.635,30.619c0-0.963,0-1.924,0-2.885c0.74-0.006,1.483-0.017,2.225-0.029  c0,0.959,0,1.916,0,2.875C21.118,30.599,20.376,30.609,19.635,30.619z M19.633,26.666c0-0.955,0-1.909,0-2.864  c0.741-0.005,1.483-0.013,2.227-0.021c0,0.951,0,1.903,0,2.856C21.118,26.65,20.375,26.66,19.633,26.666z M19.633,22.732  c-0.001-0.963-0.001-1.924-0.001-2.885c0.741-0.002,1.483-0.006,2.226-0.012c0,0.959,0.002,1.918,0.002,2.877  C21.116,22.72,20.374,22.728,19.633,22.732z M18.586,22.736c-0.744,0.002-1.487,0.002-2.23,0c0-0.963,0-1.924,0-2.887  c0.743,0.002,1.487,0.002,2.23,0C18.586,20.813,18.586,21.773,18.586,22.736z M15.309,22.732c-0.742-0.004-1.483-0.012-2.226-0.02  c0-0.959,0.001-1.918,0.001-2.877c0.742,0.006,1.484,0.01,2.226,0.012C15.31,20.808,15.309,21.769,15.309,22.732z M15.309,23.801  c0,0.955,0,1.91,0,2.864c-0.742-0.006-1.483-0.016-2.227-0.027c0-0.953,0-1.906,0-2.859C13.825,23.789,14.566,23.796,15.309,23.801z   M12.036,26.617c-0.742-0.017-1.483-0.033-2.225-0.055c0-0.947,0-1.895,0.001-2.841c0.741,0.019,1.483,0.031,2.225,0.042  C12.037,24.716,12.036,25.666,12.036,26.617z M12.035,27.683c0,0.957,0,1.916,0,2.873c-0.742-0.021-1.483-0.047-2.225-0.076  c0-0.953,0-1.904,0-2.857C10.552,27.646,11.293,27.667,12.035,27.683z M12.035,31.621c0,0.957-0.001,1.914-0.001,2.871  c-0.742-0.023-1.483-0.055-2.224-0.092c0-0.953,0-1.906,0-2.859C10.551,31.572,11.292,31.6,12.035,31.621z M12.033,35.56  c0,0.956-0.001,1.914-0.001,2.871c-0.742-0.031-1.484-0.066-2.225-0.111c0-0.953,0.001-1.906,0.001-2.858  C10.549,35.5,11.291,35.533,12.033,35.56z M12.031,39.498c0,0.955,0,1.914-0.001,2.869c-0.742-0.035-1.484-0.078-2.225-0.129  c0-0.953,0-1.904,0.001-2.857C10.547,39.426,11.289,39.465,12.031,39.498z M12.03,43.435c0,0.951-0.001,1.901-0.001,2.854  c-0.742-0.041-1.484-0.09-2.225-0.149c0-0.944,0.001-1.892,0.001-2.838C10.546,43.353,11.288,43.4,12.03,43.435z M13.077,43.482  c0.743,0.031,1.486,0.053,2.228,0.067c0,0.956,0,1.91,0,2.864c-0.742-0.016-1.486-0.041-2.229-0.074  C13.077,45.389,13.077,44.435,13.077,43.482z M15.305,47.486c0,0.961,0,1.922,0,2.883c-0.743-0.019-1.487-0.047-2.23-0.084  c0-0.959,0-1.918,0.001-2.875C13.818,47.443,14.562,47.468,15.305,47.486z M16.353,47.504c0.745,0.009,1.49,0.009,2.234,0  c0.001,0.96,0.001,1.924,0.001,2.883c-0.745,0.011-1.49,0.011-2.235,0C16.353,49.427,16.353,48.464,16.353,47.504z M19.639,47.486  c0.741-0.018,1.483-0.043,2.227-0.076c0,0.957,0.002,1.916,0.002,2.875c-0.742,0.037-1.486,0.065-2.229,0.084  C19.639,49.406,19.639,48.447,19.639,47.486z M19.637,46.414c0-0.954,0-1.908,0-2.864c0.742-0.015,1.484-0.036,2.229-0.067  c0,0.953,0,1.905,0,2.857C21.122,46.373,20.379,46.398,19.637,46.414z M22.911,43.435c0.741-0.035,1.483-0.082,2.224-0.135  c0,0.945,0,1.895,0.002,2.838c-0.74,0.059-1.482,0.107-2.226,0.15C22.911,45.336,22.911,44.386,22.911,43.435z M22.911,42.369  c-0.001-0.957-0.001-1.914-0.002-2.871c0.741-0.032,1.483-0.069,2.225-0.117c0,0.954,0.001,1.906,0.001,2.857  C24.395,42.289,23.652,42.333,22.911,42.369z M22.909,38.431c0-0.957-0.001-1.915-0.001-2.871c0.742-0.027,1.482-0.061,2.224-0.098  c0.001,0.951,0.001,1.904,0.001,2.857C24.393,38.363,23.65,38.4,22.909,38.431z M22.908,34.494c0-0.957-0.002-1.916-0.002-2.871  c0.742-0.021,1.482-0.051,2.225-0.079c0,0.952,0,1.903,0.001,2.856C24.391,34.437,23.648,34.468,22.908,34.494z M22.906,30.556  c0-0.957,0-1.916-0.002-2.873c0.742-0.016,1.484-0.037,2.226-0.061c0,0.953,0.001,1.904,0.001,2.857  C24.391,30.509,23.648,30.535,22.906,30.556z M22.904,26.617c0-0.951,0-1.901,0-2.854c0.74-0.011,1.482-0.025,2.224-0.042  c0,0.946,0.001,1.894,0.001,2.841C24.389,26.583,23.646,26.601,22.904,26.617z M22.902,22.699c0-0.957,0-1.916,0-2.874  c0.742-0.007,1.482-0.014,2.225-0.023c0.001,0.953,0.001,1.906,0.001,2.859C24.387,22.676,23.646,22.689,22.902,22.699z   M22.902,18.76C22.9,17.802,22.9,16.845,22.9,15.887c0.742,0,1.481-0.003,2.225-0.004c0.001,0.953,0.001,1.906,0.002,2.858  C24.385,18.75,23.643,18.756,22.902,18.76z M21.855,18.767c-0.742,0.004-1.482,0.007-2.225,0.009c0-0.961,0-1.922,0-2.884  c0.741,0,1.482-0.001,2.225-0.002C21.855,16.849,21.855,17.808,21.855,18.767z M18.585,18.779c-0.743,0.001-1.486,0.001-2.229,0  c0-0.961,0-1.923,0-2.885c0.742,0,1.486,0,2.229,0C18.585,16.855,18.585,17.817,18.585,18.779z M15.31,18.777  c-0.742-0.002-1.483-0.005-2.225-0.009c0-0.959,0-1.918,0-2.877c0.742,0,1.483,0.001,2.225,0.002  C15.31,16.854,15.31,17.815,15.31,18.777z M12.039,18.76c-0.742-0.005-1.483-0.011-2.225-0.019c0-0.953,0-1.905,0.001-2.858  c0.742,0.001,1.483,0.004,2.224,0.004C12.039,16.845,12.039,17.803,12.039,18.76z M12.039,19.827c0,0.957-0.001,1.915-0.001,2.872  c-0.741-0.01-1.483-0.021-2.224-0.035c0-0.953,0-1.906,0-2.859C10.555,19.813,11.296,19.819,12.039,19.827z M8.768,22.64  c-0.741-0.018-1.482-0.035-2.223-0.057c0-0.943,0-1.887,0-2.831c0.741,0.013,1.482,0.025,2.223,0.036  C8.768,20.739,8.768,21.689,8.768,22.64z M8.767,23.697c0,0.944,0,1.89,0,2.832c-0.741-0.024-1.482-0.053-2.223-0.084  c0-0.938,0-1.873,0-2.811C7.284,23.658,8.026,23.679,8.767,23.697z M8.766,27.587c0,0.949-0.001,1.898-0.001,2.85  c-0.74-0.033-1.481-0.068-2.222-0.111c0-0.942,0-1.887,0-2.83C7.284,27.529,8.025,27.56,8.766,27.587z M8.765,31.494  c0,0.951-0.001,1.9-0.001,2.852c-0.74-0.04-1.481-0.087-2.221-0.139c0-0.943,0-1.887,0-2.831C7.283,31.42,8.023,31.459,8.765,31.494  z M8.763,35.404c0,0.949,0,1.899,0,2.851c-0.741-0.052-1.481-0.104-2.22-0.168c0-0.942,0-1.886,0-2.829  C7.282,35.31,8.022,35.361,8.763,35.404z M8.762,39.312c0,0.949,0,1.899-0.001,2.852c-0.741-0.059-1.48-0.123-2.219-0.195  c0-0.943,0-1.889,0-2.83C7.281,39.203,8.021,39.26,8.762,39.312z M8.76,43.219c0,0.944,0,1.888-0.001,2.832  c-0.74-0.065-1.479-0.14-2.218-0.224c0-0.938,0-1.875,0-2.812C7.281,43.092,8.02,43.16,8.76,43.219z M8.759,47.109  c0,0.951,0,1.9,0,2.851c-0.741-0.073-1.48-0.158-2.219-0.253c0-0.942,0-1.887,0-2.828C7.279,46.964,8.019,47.039,8.759,47.109z   M9.804,47.201c0.741,0.06,1.483,0.111,2.224,0.154c0,0.955,0,1.912,0,2.868c-0.742-0.045-1.484-0.103-2.225-0.166  C9.804,49.107,9.804,48.154,9.804,47.201z M12.027,51.291c0,0.957,0,1.916,0,2.873c-0.742-0.053-1.484-0.114-2.225-0.188  c0-0.951,0.001-1.904,0.001-2.857C10.544,51.187,11.285,51.244,12.027,51.291z M13.075,51.353c0.743,0.039,1.486,0.067,2.229,0.086  c0,0.961,0,1.922,0,2.885c-0.743-0.021-1.487-0.053-2.229-0.094C13.075,53.269,13.075,52.312,13.075,51.353z M16.353,51.459  c0.745,0.009,1.49,0.009,2.235,0c0,0.961,0,1.924,0,2.885c-0.745,0.013-1.491,0.013-2.235,0  C16.353,53.382,16.353,52.42,16.353,51.459z M19.639,51.439c0.741-0.019,1.485-0.049,2.229-0.086c0,0.959,0,1.92,0.001,2.877  c-0.743,0.041-1.485,0.072-2.229,0.094C19.639,53.361,19.639,52.4,19.639,51.439z M22.913,51.291  c0.743-0.047,1.483-0.104,2.226-0.172c0,0.953,0,1.906,0,2.857c-0.74,0.073-1.481,0.135-2.224,0.188  C22.914,53.205,22.914,52.248,22.913,51.291z M22.913,50.224c-0.001-0.956-0.001-1.912-0.001-2.869  c0.742-0.043,1.484-0.095,2.225-0.154c0,0.953,0,1.906,0.002,2.857C24.396,50.123,23.654,50.179,22.913,50.224z M26.184,47.109  c0.739-0.066,1.479-0.145,2.217-0.229c0,0.942,0,1.887,0,2.83c-0.736,0.092-1.478,0.177-2.217,0.252  C26.184,49.009,26.184,48.06,26.184,47.109z M26.184,46.051c-0.002-0.944-0.002-1.888-0.002-2.832  c0.739-0.06,1.48-0.127,2.219-0.202c0,0.938,0,1.873,0,2.811C27.662,45.912,26.923,45.986,26.184,46.051z M26.182,42.162  c0-0.95-0.002-1.9-0.002-2.85c0.74-0.052,1.48-0.109,2.219-0.176c0.002,0.943,0.002,1.887,0.002,2.83  C27.662,42.039,26.921,42.105,26.182,42.162z M26.18,38.253c0-0.95,0-1.9-0.002-2.852c0.742-0.041,1.482-0.093,2.221-0.146  c0,0.942,0,1.887,0,2.829C27.66,38.15,26.92,38.203,26.18,38.253z M26.178,34.345c0-0.949,0-1.898,0-2.852  c0.74-0.034,1.481-0.073,2.221-0.117c0,0.943,0,1.887,0,2.83C27.659,34.258,26.918,34.305,26.178,34.345z M26.177,30.437  c0-0.949,0-1.9-0.001-2.85c0.741-0.027,1.481-0.059,2.221-0.092c0,0.943,0.002,1.888,0.002,2.83  C27.659,30.367,26.918,30.404,26.177,30.437z M26.176,26.529c-0.001-0.942-0.001-1.888-0.001-2.832  c0.742-0.018,1.482-0.039,2.222-0.063c0,0.938,0,1.873,0,2.811C27.657,26.476,26.917,26.503,26.176,26.529z M26.174,22.64  c0-0.951-0.001-1.901-0.001-2.851c0.741-0.01,1.483-0.022,2.224-0.035c0,0.943,0,1.886,0,2.831  C27.657,22.605,26.915,22.623,26.174,22.64z M8.769,15.881c0,0.95,0,1.9-0.001,2.85c-0.741-0.008-1.482-0.018-2.223-0.028  c0-0.943,0-1.887,0-2.83C7.286,15.876,8.028,15.878,8.769,15.881z M6.54,50.758c0.738,0.097,1.478,0.183,2.218,0.258  c0,0.95,0,1.901,0,2.853c-0.741-0.084-1.48-0.178-2.218-0.28C6.54,52.646,6.54,51.701,6.54,50.758z M26.184,53.869  c0-0.95,0-1.899,0-2.853c0.739-0.075,1.479-0.163,2.217-0.259c0.002,0.941,0.002,1.889,0.002,2.83  C27.663,53.693,26.925,53.785,26.184,53.869z"/>
<path fill="#FFFFFF" id="svg1.highlight_2_" d="M0,0.943h5.497c0,0,6.847-0.943,11.974-0.943  C22.6,0,29.48,0.943,29.48,0.943h5.496v41.951c0,0-12.076-0.521-18.623-2.548C9.807,38.32,0,30.557,0,30.557V0.943z" enable-background="new    " opacity="0.17"/>
</svg>
      </g>
    </g>
    <g text-rendering="geometricPrecision" stroke-miterlimit="1.45" shape-rendering="geometricPrecision" transform="matrix(1,0,0,1,-15,-168)" stroke-linecap="butt">
      <rect fill="none" x="997" width="288" height="30" y="709" clip-path="url(#clipPath2)"/>
      <text x="1082.5645" xml:space="preserve" y="728.1543" clip-path="url(#clipPath2)" font-family="sans-serif" stroke="none">handle ssh session </text>
      <rect fill="none" x="30" width="146" height="56.232" y="482.5" clip-path="url(#clipPath2)"/>
      <text x="44.5205" xml:space="preserve" y="500.8015" clip-path="url(#clipPath2)" font-family="sans-serif" stroke="none">wait for data from </text>
      <text x="44.5205" xml:space="preserve" y="514.7703" clip-path="url(#clipPath2)" font-family="sans-serif" stroke="none">ssh session and </text>
      <text x="44.5205" xml:space="preserve" y="528.7391" clip-path="url(#clipPath2)" font-family="sans-serif" stroke="none">forwards it to client</text>
      <rect fill="none" x="36" width="146" height="70" y="254" clip-path="url(#clipPath2)"/>
      <text x="40.2373" xml:space="preserve" y="272.2012" clip-path="url(#clipPath2)" font-family="sans-serif" stroke="none">application client</text>
      <text x="40.2373" xml:space="preserve" y="286.1699" clip-path="url(#clipPath2)" font-family="sans-serif" stroke="none">asks for session create</text>
      <text x="40.2373" xml:space="preserve" y="300.1387" clip-path="url(#clipPath2)" font-family="sans-serif" stroke="none">uses session</text>
      <text x="40.2373" xml:space="preserve" y="314.1074" clip-path="url(#clipPath2)" font-family="sans-serif" stroke="none">closes session</text>
    </g>
    <g fill="rgb(153,204,255)" text-rendering="geometricPrecision" shape-rendering="geometricPrecision" transform="matrix(1,0,0,1,-15,-168)" stroke="rgb(153,204,255)">
      <rect x="221" y="816" clip-path="url(#clipPath2)" width="115" rx="4" ry="4" height="43" stroke="none"/>
    </g>
    <g text-rendering="geometricPrecision" stroke-miterlimit="1.45" stroke-width="2" shape-rendering="geometricPrecision" transform="matrix(1,0,0,1,-15,-168)" stroke-linecap="butt">
      <rect x="221" y="816" clip-path="url(#clipPath2)" fill="none" width="115" rx="4" ry="4" height="43"/>
      <text x="239.4385" y="834.6699" clip-path="url(#clipPath2)" font-family="sans-serif" stroke="none" stroke-width="1" xml:space="preserve">Service bean</text>
      <text x="227.9453" y="848.6387" clip-path="url(#clipPath2)" font-family="sans-serif" stroke="none" stroke-width="1" xml:space="preserve">(Single Instance)</text>
    </g>
    <g fill="rgb(255,204,0)" text-rendering="geometricPrecision" shape-rendering="geometricPrecision" transform="matrix(1,0,0,1,-15,-168)" stroke="rgb(255,204,0)">
      <rect x="221" y="865.116" clip-path="url(#clipPath2)" width="115" rx="4" ry="4" height="30" stroke="none"/>
    </g>
    <g text-rendering="geometricPrecision" stroke-miterlimit="1.45" shape-rendering="geometricPrecision" transform="matrix(1,0,0,1,-15,-168)" stroke-linecap="butt">
      <rect x="221" y="865.116" clip-path="url(#clipPath2)" fill="none" width="115" rx="4" ry="4" height="30"/>
      <text x="245.9688" xml:space="preserve" y="884.2703" clip-path="url(#clipPath2)" font-family="sans-serif" stroke="none">Akka Actor</text>
    </g>
    <g fill="rgb(255,204,0)" text-rendering="geometricPrecision" shape-rendering="geometricPrecision" transform="matrix(1,0,0,1,-15,-168)" stroke="rgb(255,204,0)">
      <rect x="221" y="901.232" clip-path="url(#clipPath2)" width="115" rx="4" ry="4" height="30" stroke="none"/>
    </g>
    <g text-rendering="geometricPrecision" stroke-miterlimit="1.45" stroke-width="2" shape-rendering="geometricPrecision" transform="matrix(1,0,0,1,-15,-168)" stroke-linecap="butt">
      <rect x="221" y="901.232" clip-path="url(#clipPath2)" fill="none" width="115" rx="4" ry="4" height="30"/>
      <text x="245.9688" y="913.4019" clip-path="url(#clipPath2)" font-family="sans-serif" stroke="none" stroke-width="1" xml:space="preserve">Akka Actor</text>
      <text x="227.9453" y="927.3707" clip-path="url(#clipPath2)" font-family="sans-serif" stroke="none" stroke-width="1" xml:space="preserve">(Single Instance)</text>
    </g>
    <g fill="rgb(153,204,255)" text-rendering="geometricPrecision" shape-rendering="geometricPrecision" transform="matrix(1,0,0,1,-15,-168)" stroke="rgb(153,204,255)">
      <rect x="221" y="937.348" clip-path="url(#clipPath2)" width="115" rx="4" ry="4" height="30" stroke="none"/>
    </g>
    <g text-rendering="geometricPrecision" stroke-miterlimit="1.45" shape-rendering="geometricPrecision" transform="matrix(1,0,0,1,-15,-168)" stroke-linecap="butt">
      <rect x="221" y="937.348" clip-path="url(#clipPath2)" fill="none" width="115" rx="4" ry="4" height="30"/>
      <text x="234.9561" xml:space="preserve" y="956.5023" clip-path="url(#clipPath2)" font-family="sans-serif" stroke="none">Wrapper Class</text>
      <path fill="none" d="M288 482.4824 L288 438.5174" stroke-width="2" clip-path="url(#clipPath2)"/>
      <path d="M288 429.5174 L282.375 443.0174 L288 439.6424 L293.625 443.0174 Z" stroke-width="2" clip-path="url(#clipPath2)" stroke="none"/>
      <text x="144.0508" xml:space="preserve" y="468.1543" clip-path="url(#clipPath2)" font-family="sans-serif" stroke="none">2. Get Leader Address</text>
      <path fill="none" d="M394.3959 386.5016 L407.25 384.5625 L425.6875 383.6445 L443.375 384.7031 L460.3125 387.7383 L476.5 392.75 L491.9375 399.7383 L506.625 408.7031 L520.5625 419.6445 L533.75 432.5625 L546.1875 447.457 L557.875 464.3281 L563.8893 474.6921" stroke-width="2" clip-path="url(#clipPath2)" stroke="red"/>
      <path fill="red" d="M568.4066 482.4763 L566.4958 467.9767 L563.3247 473.7191 L556.7656 473.6233 Z" stroke-width="2" clip-path="url(#clipPath2)" stroke="none"/>
      <text x="428.7838" xml:space="preserve" y="376.5765" clip-path="url(#clipPath2)" font-family="sans-serif" stroke="none">3. Create Session (Tell)</text>
      <path fill="none" d="M633.1484 525.4932 L637.475 526.9 L646.2413 529.3264 L654.5555 531.1111 L662.3531 532.1625 L669.5695 532.3889 L676.14 531.6986 L682 530 L687.093 527.2473 L691.3935 523.5787 L694.8844 519.1781 L697.5482 514.2296 L699.3675 508.9172 L700.325 503.425 L700.4034 497.9369 L699.5852 492.637 L697.8531 487.7094 L695.1898 483.338 L691.5779 479.7068 L687 477 L681.4553 475.3554 L675.0093 474.7268 L667.7438 475.0219 L659.7407 476.1481 L651.0822 478.0133 L644.1948 479.8871 L644.0994 479.9171" stroke-width="2" clip-path="url(#clipPath2)" stroke="red"/>
      <path fill="red" d="M635.487 482.5301 L650.0386 483.9934 L645.1759 479.5905 L646.7725 473.228 Z" stroke-width="2" clip-path="url(#clipPath2)" stroke="none"/>
      <text x="642.0645" xml:space="preserve" y="481.1543" clip-path="url(#clipPath2)" font-family="sans-serif" stroke="none">Circuit Breaker</text>
      <path fill="none" d="M668.0143 516.0671 L680.9888 518.8407 L713.588 528.1301 L745.4888 539.5907 L776.691 553.2225 L792.3818 561.3515" stroke-width="2" clip-path="url(#clipPath2)" stroke="red"/>
      <path fill="red" d="M800.3731 565.4915 L790.9737 554.287 L791.3829 560.834 L785.7987 564.2761 Z" stroke-width="2" clip-path="url(#clipPath2)" stroke="none"/>
      <text x="668.3209" xml:space="preserve" y="543.9772" clip-path="url(#clipPath2)" font-family="sans-serif" stroke="none">4. Create Session (Tell)</text>
      <path fill="none" d="M802.8843 608.5161 L789.9213 619.898 L765.3448 638.968 L742.2704 654.2099 L720.6982 665.6237 L700.6282 673.2095 L682.0604 676.9672 L664.9946 676.8967 L657.025 675.426 L649.431 672.9983 L642.2125 669.6135 L635.3696 665.2717 L622.8104 653.7172 L611.7532 638.3345 L602.1982 619.1237 L594.1454 596.0849 L587.5948 569.218 L582.5463 538.523 L582.1257 534.4286" stroke-width="2" clip-path="url(#clipPath2)" stroke="red"/>
      <path fill="red" d="M581.2061 525.4758 L576.99 539.4799 L582.2407 535.5478 L588.1812 538.3303 Z" stroke-width="2" clip-path="url(#clipPath2)" stroke="none"/>
      <text x="552.2269" xml:space="preserve" y="644.9822" clip-path="url(#clipPath2)" font-family="sans-serif" stroke="none">6. Confirm Session Create (Tell)</text>
      <path fill="none" d="M309.2613 386.493 L306.2188 381.625 L301.2734 368.4375 L299.625 355.25 L301.2734 342.0625 L305.0596 331.966 L305.1126 331.8812" stroke-width="2" clip-path="url(#clipPath2)"/>
      <path d="M309.3078 323.9187 L298.0385 333.2404 L304.5883 332.8765 L307.9916 338.4843 Z" stroke-width="2" clip-path="url(#clipPath2)" stroke="none"/>
      <text x="178.8197" xml:space="preserve" y="350.3289" clip-path="url(#clipPath2)" font-family="sans-serif" stroke="none">8. Session Created</text>
      <path fill="none" d="M342.7387 324.007 L345.7812 328.875 L350.7266 342.0625 L352.375 355.25 L350.7266 368.4375 L346.9404 378.534 L346.8874 378.6188" stroke-width="2" clip-path="url(#clipPath2)"/>
      <path d="M342.6922 386.5813 L353.9615 377.2596 L347.4117 377.6235 L344.0084 372.0157 Z" stroke-width="2" clip-path="url(#clipPath2)" stroke="none"/>
      <text x="333.416" xml:space="preserve" y="359.4043" clip-path="url(#clipPath2)" font-family="sans-serif" stroke="none">1. Create Session</text>
      <path fill="none" d="M844.8539 608.4958 L846.75 616.4062 L847.2188 629.6328 L844.75 641.875 L839.7015 652.3879 L839.6384 652.4656" stroke-width="2" clip-path="url(#clipPath2)"/>
      <path d="M834.1165 659.5724 L846.8412 652.3633 L840.3287 651.5772 L837.9576 645.4609 Z" stroke-width="2" clip-path="url(#clipPath2)" stroke="none"/>
      <text x="839.3387" xml:space="preserve" y="633.7142" clip-path="url(#clipPath2)" font-family="sans-serif" stroke="none">5. Create and initialize Session</text>
      <path fill="none" d="M529.4606 525.5032 L519.1875 528.1562 L505.2695 530.2988 L491.7656 530.8828 L478.6758 529.9082 L466 527.375 L453.7383 523.2832 L441.8906 517.6328 L430.457 510.4238 L419.4375 501.6562 L408.832 491.3301 L398.8994 479.7471 L398.8406 479.6663" stroke-width="2" clip-path="url(#clipPath2)" stroke="red"/>
      <path fill="red" d="M393.521 472.4067 L396.9633 486.6208 L399.5056 480.5737 L406.0377 479.9713 Z" stroke-width="2" clip-path="url(#clipPath2)" stroke="none"/>
      <text x="384.0381" xml:space="preserve" y="559.3763" clip-path="url(#clipPath2)" font-family="sans-serif" stroke="none">7. Confirm Session Create (Tell)</text>
      <path fill="none" d="M419.9495 469.2527 L422.125 470.075 L428.5226 472.1904 L434.5555 473.8148 L440.1719 474.8781 L445.3195 475.3102 L449.9462 475.0409 L454 474 L457.4375 472.1517 L460.25 469.5972 L462.4375 466.4719 L464 462.9111 L464.9375 459.0504 L465.25 455.025 L464.9375 450.9705 L464 447.0222 L462.4375 443.3156 L460.25 439.9861 L457.4375 437.1691 L454 435 L449.9462 433.5808 L445.3195 432.8796 L440.1719 432.8312 L434.5555 433.3704 L428.7387 434.3937 L428.6416 434.4178" stroke-width="2" clip-path="url(#clipPath2)" stroke="red"/>
      <path fill="red" d="M419.9048 436.5783 L434.3604 438.7981 L429.7337 434.1478 L431.6597 427.8771 Z" stroke-width="2" clip-path="url(#clipPath2)" stroke="none"/>
      <text x="449.2148" xml:space="preserve" y="458.571" clip-path="url(#clipPath2)" font-family="sans-serif" stroke="none">Circuit Breaker</text>
      <path fill="none" d="M176 408 L231.9937 408" clip-path="url(#clipPath2)"/>
      <path fill="none" d="M997 454.0814 L658 454 L612.9839 482.4912" clip-path="url(#clipPath2)"/>
      <path fill="none" d="M997 587 L926.0234 587" clip-path="url(#clipPath2)"/>
      <path fill="none" d="M997 681 L862.9594 681" clip-path="url(#clipPath2)"/>
      <path fill="none" d="M805.5 753.4709 L805.5 830.9023" clip-path="url(#clipPath2)"/>
      <path d="M805.5 745.4709 L800.5 757.4709 L805.5 754.4709 L810.5 757.4709 Z" clip-path="url(#clipPath2)" stroke="none"/>
      <path d="M805.5 838.9023 L810.5 826.9023 L805.5 829.9023 L800.5 826.9023 Z" clip-path="url(#clipPath2)" stroke="none"/>
      <text x="799.2539" xml:space="preserve" y="829.0539" clip-path="url(#clipPath2)" font-family="sans-serif" stroke="none">SSH session</text>
      <path fill="none" d="M997 724 L862.9594 724" clip-path="url(#clipPath2)"/>
      <path fill="none" d="M124.2228 482.5 L148 451 L339.0045 451" clip-path="url(#clipPath2)"/>
      <path fill="none" d="M181.9753 302.5 L232.0112 302.5" clip-path="url(#clipPath2)"/>
      <path fill="none" d="M413.9871 853 L531.9874 853" stroke-width="2" clip-path="url(#clipPath2)" stroke="red"/>
      <path fill="red" d="M540.9874 853 L527.4874 847.375 L530.8624 853 L527.4874 858.625 Z" stroke-width="2" clip-path="url(#clipPath2)" stroke="none"/>
      <text x="414.5762" xml:space="preserve" y="827.1543" clip-path="url(#clipPath2)" font-family="sans-serif" stroke="none">Akka Tell (Remoting)</text>
      <path fill="none" d="M413.9871 913 L531.9874 913" stroke-width="2" clip-path="url(#clipPath2)"/>
      <path d="M540.9874 913 L527.4874 907.375 L530.8624 913 L527.4874 918.625 Z" stroke-width="2" clip-path="url(#clipPath2)" stroke="none"/>
      <text x="441.8896" xml:space="preserve" y="887.1543" clip-path="url(#clipPath2)" font-family="sans-serif" stroke="none">Method Call</text>
    </g>
  </g>
</svg>
