<?xml version="1.0" encoding="UTF-8"?><svg xmlns="http://www.w3.org/2000/svg" xmlns:xlink="http://www.w3.org/1999/xlink" fill-opacity="1" color-rendering="auto" color-interpolation="auto" text-rendering="auto" stroke="black" stroke-linecap="square" width="1285" stroke-miterlimit="10" shape-rendering="auto" stroke-opacity="1" fill="black" stroke-dasharray="none" font-weight="normal" stroke-width="1" height="815" font-family="'Dialog'" font-style="normal" stroke-linejoin="miter" font-size="12px" stroke-dashoffset="0" image-rendering="auto">
  <!--Generated by ySVG 2.5-->
  <defs id="genericDefs"/>
  <g>
    <g fill="white" text-rendering="geometricPrecision" shape-rendering="geometricPrecision" transform="translate(-65,-218)" stroke="white">
      <rect x="65" width="1285" height="815" y="218" clip-path="url(#clipPath2)" stroke="none"/>
    </g>
    <g text-rendering="geometricPrecision" stroke-miterlimit="1.45" shape-rendering="geometricPrecision" transform="matrix(1,0,0,1,-65,-218)" stroke-linecap="butt">
      <rect x="256" y="307" clip-path="url(#clipPath2)" fill="none" width="234" rx="4" ry="4" height="520"/>
      <text x="262" xml:space="preserve" y="324.1387" clip-path="url(#clipPath2)" font-family="sans-serif" stroke="none">Cluster Node 1</text>
    </g>
    <g fill="rgb(153,204,255)" text-rendering="geometricPrecision" shape-rendering="geometricPrecision" transform="matrix(1,0,0,1,-65,-218)" stroke="rgb(153,204,255)">
      <rect x="282" y="436.5" clip-path="url(#clipPath2)" width="188" rx="4" ry="4" height="43" stroke="none"/>
    </g>
    <g text-rendering="geometricPrecision" stroke-miterlimit="1.45" stroke-width="2" shape-rendering="geometricPrecision" transform="matrix(1,0,0,1,-65,-218)" stroke-linecap="butt">
      <rect x="282" y="436.5" clip-path="url(#clipPath2)" fill="none" width="188" rx="4" ry="4" height="43"/>
      <text x="321.9033" y="462.1543" clip-path="url(#clipPath2)" font-family="sans-serif" stroke="none" stroke-width="1" xml:space="preserve">Ssh Client Service</text>
    </g>
    <g fill="rgb(255,204,0)" text-rendering="geometricPrecision" shape-rendering="geometricPrecision" transform="matrix(1,0,0,1,-65,-218)" stroke="rgb(255,204,0)">
      <rect x="282" y="532.5" clip-path="url(#clipPath2)" width="188" rx="4" ry="4" height="43" stroke="none"/>
    </g>
    <g text-rendering="geometricPrecision" stroke-miterlimit="1.45" stroke-width="2" shape-rendering="geometricPrecision" transform="matrix(1,0,0,1,-65,-218)" stroke-linecap="butt">
      <rect x="282" y="532.5" clip-path="url(#clipPath2)" fill="none" width="188" rx="4" ry="4" height="43"/>
      <text x="313.8525" y="558.1543" clip-path="url(#clipPath2)" font-family="sans-serif" stroke="none" stroke-width="1" xml:space="preserve">Ssh Cluster Manager</text>
      <rect x="514" y="307" clip-path="url(#clipPath2)" fill="none" width="234" rx="4" ry="4" height="520" stroke-width="1"/>
      <text x="520" y="324.1387" clip-path="url(#clipPath2)" font-family="sans-serif" stroke="none" stroke-width="1" xml:space="preserve">Cluster Node 2 (Leader Node)</text>
    </g>
    <g fill="rgb(153,204,255)" text-rendering="geometricPrecision" shape-rendering="geometricPrecision" transform="matrix(1,0,0,1,-65,-218)" stroke="rgb(153,204,255)">
      <rect x="540" y="436.5" clip-path="url(#clipPath2)" width="178" rx="4" ry="4" height="43" stroke="none"/>
    </g>
    <g text-rendering="geometricPrecision" stroke-miterlimit="1.45" stroke-width="2" shape-rendering="geometricPrecision" transform="matrix(1,0,0,1,-65,-218)" stroke-linecap="butt">
      <rect x="540" y="436.5" clip-path="url(#clipPath2)" fill="none" width="178" rx="4" ry="4" height="43"/>
      <text x="574.9033" y="462.1543" clip-path="url(#clipPath2)" font-family="sans-serif" stroke="none" stroke-width="1" xml:space="preserve">Ssh Client Service</text>
    </g>
    <g fill="rgb(255,204,0)" text-rendering="geometricPrecision" shape-rendering="geometricPrecision" transform="matrix(1,0,0,1,-65,-218)" stroke="rgb(255,204,0)">
      <rect x="540" y="532.5" clip-path="url(#clipPath2)" width="178" rx="4" ry="4" height="43" stroke="none"/>
    </g>
    <g text-rendering="geometricPrecision" stroke-miterlimit="1.45" stroke-width="2" shape-rendering="geometricPrecision" transform="matrix(1,0,0,1,-65,-218)" stroke-linecap="butt">
      <rect x="540" y="532.5" clip-path="url(#clipPath2)" fill="none" width="178" rx="4" ry="4" height="43"/>
      <text x="566.8525" y="551.1699" clip-path="url(#clipPath2)" font-family="sans-serif" stroke="none" stroke-width="1" xml:space="preserve">Ssh Cluster Manager</text>
      <text x="580.4375" y="565.1387" clip-path="url(#clipPath2)" font-family="sans-serif" stroke="none" stroke-width="1" xml:space="preserve">(Cluster Leader)</text>
      <rect x="772" y="307" clip-path="url(#clipPath2)" fill="none" width="234" rx="4" ry="4" height="520" stroke-width="1"/>
      <text x="778" y="324.1387" clip-path="url(#clipPath2)" font-family="sans-serif" stroke="none" stroke-width="1" xml:space="preserve">Cluster Node 3</text>
    </g>
    <g fill="rgb(153,204,255)" text-rendering="geometricPrecision" shape-rendering="geometricPrecision" transform="matrix(1,0,0,1,-65,-218)" stroke="rgb(153,204,255)">
      <rect x="798" y="436.5" clip-path="url(#clipPath2)" width="178" rx="4" ry="4" height="43" stroke="none"/>
    </g>
    <g text-rendering="geometricPrecision" stroke-miterlimit="1.45" stroke-width="2" shape-rendering="geometricPrecision" transform="matrix(1,0,0,1,-65,-218)" stroke-linecap="butt">
      <rect x="798" y="436.5" clip-path="url(#clipPath2)" fill="none" width="178" rx="4" ry="4" height="43"/>
      <text x="832.9033" y="462.1543" clip-path="url(#clipPath2)" font-family="sans-serif" stroke="none" stroke-width="1" xml:space="preserve">Ssh Client Service</text>
    </g>
    <g fill="rgb(255,204,0)" text-rendering="geometricPrecision" shape-rendering="geometricPrecision" transform="matrix(1,0,0,1,-65,-218)" stroke="rgb(255,204,0)">
      <rect x="798" y="532.5" clip-path="url(#clipPath2)" width="178" rx="4" ry="4" height="43" stroke="none"/>
    </g>
    <g text-rendering="geometricPrecision" stroke-miterlimit="1.45" stroke-width="2" shape-rendering="geometricPrecision" transform="matrix(1,0,0,1,-65,-218)" stroke-linecap="butt">
      <rect x="798" y="532.5" clip-path="url(#clipPath2)" fill="none" width="178" rx="4" ry="4" height="43"/>
      <text x="824.8525" y="558.1543" clip-path="url(#clipPath2)" font-family="sans-serif" stroke="none" stroke-width="1" xml:space="preserve">Ssh Cluster Manager</text>
    </g>
    <g fill="rgb(255,204,0)" text-rendering="geometricPrecision" shape-rendering="geometricPrecision" transform="matrix(1,0,0,1,-65,-218)" stroke="rgb(255,204,0)">
      <rect x="282" y="619.5" clip-path="url(#clipPath2)" width="188" rx="4" ry="4" height="43" stroke="none"/>
    </g>
    <g text-rendering="geometricPrecision" stroke-miterlimit="1.45" stroke-width="2" shape-rendering="geometricPrecision" transform="matrix(1,0,0,1,-65,-218)" stroke-linecap="butt">
      <rect x="282" y="619.5" clip-path="url(#clipPath2)" fill="none" width="188" rx="4" ry="4" height="43"/>
      <text x="294.6924" y="645.1543" clip-path="url(#clipPath2)" font-family="sans-serif" stroke="none" stroke-width="1" xml:space="preserve">Ssh Local Session Manager</text>
    </g>
    <g fill="rgb(255,204,0)" text-rendering="geometricPrecision" shape-rendering="geometricPrecision" transform="matrix(1,0,0,1,-65,-218)" stroke="rgb(255,204,0)">
      <rect x="540" y="617.5" clip-path="url(#clipPath2)" width="178" rx="4" ry="4" height="43" stroke="none"/>
    </g>
    <g text-rendering="geometricPrecision" stroke-miterlimit="1.45" stroke-width="2" shape-rendering="geometricPrecision" transform="matrix(1,0,0,1,-65,-218)" stroke-linecap="butt">
      <rect x="540" y="617.5" clip-path="url(#clipPath2)" fill="none" width="178" rx="4" ry="4" height="43"/>
      <text x="547.6924" y="643.1543" clip-path="url(#clipPath2)" font-family="sans-serif" stroke="none" stroke-width="1" xml:space="preserve">Ssh Local Session Manager</text>
    </g>
    <g fill="rgb(255,204,0)" text-rendering="geometricPrecision" shape-rendering="geometricPrecision" transform="matrix(1,0,0,1,-65,-218)" stroke="rgb(255,204,0)">
      <rect x="798" y="615.5" clip-path="url(#clipPath2)" width="178" rx="4" ry="4" height="43" stroke="none"/>
    </g>
    <g text-rendering="geometricPrecision" stroke-miterlimit="1.45" stroke-width="2" shape-rendering="geometricPrecision" transform="matrix(1,0,0,1,-65,-218)" stroke-linecap="butt">
      <rect x="798" y="615.5" clip-path="url(#clipPath2)" fill="none" width="178" rx="4" ry="4" height="43"/>
      <text x="803.5889" y="641.1543" clip-path="url(#clipPath2)" font-family="sans-serif" stroke="none" stroke-width="1" xml:space="preserve">Ssh Session Manager Agent</text>
    </g>
    <g fill="silver" text-rendering="geometricPrecision" shape-rendering="geometricPrecision" transform="matrix(1,0,0,1,-65,-218)" stroke="silver">
      <rect x="282" y="331" clip-path="url(#clipPath2)" width="188" rx="4" ry="4" height="43" stroke="none"/>
    </g>
    <g text-rendering="geometricPrecision" stroke-miterlimit="1.45" shape-rendering="geometricPrecision" transform="matrix(1,0,0,1,-65,-218)" stroke-linecap="butt">
      <rect x="282" y="331" clip-path="url(#clipPath2)" fill="none" width="188" rx="4" ry="4" height="43"/>
      <text x="333.8301" xml:space="preserve" y="349.6699" clip-path="url(#clipPath2)" font-family="sans-serif" stroke="none">Client Session</text>
      <text x="345.2002" xml:space="preserve" y="363.6387" clip-path="url(#clipPath2)" font-family="sans-serif" stroke="none">id=client1</text>
    </g>
    <g fill="rgb(255,204,0)" text-rendering="geometricPrecision" shape-rendering="geometricPrecision" transform="matrix(1,0,0,1,-65,-218)" stroke="rgb(255,204,0)">
      <rect x="798" y="709.5" clip-path="url(#clipPath2)" width="115" rx="4" ry="4" height="43" stroke="none"/>
    </g>
    <g text-rendering="geometricPrecision" stroke-miterlimit="1.45" shape-rendering="geometricPrecision" transform="matrix(1,0,0,1,-65,-218)" stroke-linecap="butt">
      <rect x="798" y="709.5" clip-path="url(#clipPath2)" fill="none" width="115" rx="4" ry="4" height="43"/>
      <text x="814.8066" xml:space="preserve" y="728.1699" clip-path="url(#clipPath2)" font-family="sans-serif" stroke="none">Session Actor</text>
      <text x="815.1553" xml:space="preserve" y="742.1387" clip-path="url(#clipPath2)" font-family="sans-serif" stroke="none">id = session1</text>
    </g>
    <g fill="rgb(153,204,255)" text-rendering="geometricPrecision" shape-rendering="geometricPrecision" transform="matrix(1,0,0,1,-65,-218)" stroke="rgb(153,204,255)">
      <rect x="798" y="752.5" clip-path="url(#clipPath2)" width="115" rx="4" ry="4" height="43" stroke="none"/>
    </g>
    <g text-rendering="geometricPrecision" stroke-miterlimit="1.45" shape-rendering="geometricPrecision" transform="matrix(1,0,0,1,-65,-218)" stroke-linecap="butt">
      <rect x="798" y="752.5" clip-path="url(#clipPath2)" fill="none" width="115" rx="4" ry="4" height="43"/>
      <text x="821.8701" xml:space="preserve" y="771.1699" clip-path="url(#clipPath2)" font-family="sans-serif" stroke="none">SshSession</text>
      <text x="818.9697" xml:space="preserve" y="785.1387" clip-path="url(#clipPath2)" font-family="sans-serif" stroke="none">id=session1</text>
    </g>
    <g fill="rgb(255,204,0)" text-rendering="geometricPrecision" shape-rendering="geometricPrecision" transform="matrix(1,0,0,1,-65,-218)" stroke="rgb(255,204,0)">
      <rect x="389" y="479.5" clip-path="url(#clipPath2)" width="81" rx="4" ry="4" height="43" stroke="none"/>
    </g>
    <g text-rendering="geometricPrecision" stroke-miterlimit="1.45" shape-rendering="geometricPrecision" transform="matrix(1,0,0,1,-65,-218)" stroke-linecap="butt">
      <rect x="389" y="479.5" clip-path="url(#clipPath2)" fill="none" width="81" rx="4" ry="4" height="43"/>
      <text x="418.7627" xml:space="preserve" y="491.1855" clip-path="url(#clipPath2)" font-family="sans-serif" stroke="none">Ssh</text>
      <text x="394.3291" xml:space="preserve" y="505.1543" clip-path="url(#clipPath2)" font-family="sans-serif" stroke="none">Client Actor</text>
      <text x="394.8857" xml:space="preserve" y="519.123" clip-path="url(#clipPath2)" font-family="sans-serif" stroke="none">id = client1</text>
      <text x="479.2021" font-size="22px" y="255.6162" clip-path="url(#clipPath2)" font-family="sans-serif" stroke="none" xml:space="preserve">Session Error message flow</text>
      <rect fill="none" x="80" width="146" height="30" y="443" clip-path="url(#clipPath2)"/>
      <text x="89.4844" xml:space="preserve" y="455.1699" clip-path="url(#clipPath2)" font-family="sans-serif" stroke="none">clean session related</text>
      <text x="89.4844" xml:space="preserve" y="469.1387" clip-path="url(#clipPath2)" font-family="sans-serif" stroke="none">data objects</text>
      <rect fill="none" x="1047" width="288" height="82.232" y="463" clip-path="url(#clipPath2)"/>
      <text x="1061.9473" xml:space="preserve" y="508.2703" clip-path="url(#clipPath2)" font-family="sans-serif" stroke="none">decrement session counter for target node</text>
      <rect fill="none" x="1047" width="288" height="30" y="716" clip-path="url(#clipPath2)"/>
      <text x="1105.8779" xml:space="preserve" y="728.1699" clip-path="url(#clipPath2)" font-family="sans-serif" stroke="none">wait for requests from client</text>
      <text x="1105.8779" xml:space="preserve" y="742.1387" clip-path="url(#clipPath2)" font-family="sans-serif" stroke="none">send data to client</text>
    </g>
    <g text-rendering="geometricPrecision" shape-rendering="geometricPrecision" transform="matrix(1,0,0,1,772.9524,670.458)">
      <g clip-path="url(#clipPath3)">
        <svg xml:space="preserve" opacity="1" writing-mode="lr-tb" stop-color="rgb(0, 0, 0)" shape-rendering="auto" glyph-orientation-horizontal="0deg" color-profile="auto" lighting-color="rgb(255, 255, 255)" color="rgb(0, 0, 0)" font-weight="400" alignment-baseline="auto" font-style="normal" version="1.1" color-interpolation-filters="linearrgb" text-anchor="start" stroke-linecap="butt" color-interpolation="srgb" font-variant="normal" word-spacing="normal" fill-opacity="1" text-rendering="auto" clip-path="none" text-decoration="none" letter-spacing="normal" viewBox="0 -0.741 36 57" glyph-orientation-vertical="auto" display="inline" font-size-adjust="none" overflow="hidden" fill="rgb(0, 0, 0)" font-stretch="normal" stroke-dasharray="none" stroke-miterlimit="4" stop-opacity="1" color-rendering="auto" font-size="12" pointer-events="visiblepainted" mask="none" direction="ltr" baseline-shift="baseline" enable-background="new 0 -0.741 36 57" fill-rule="nonzero" image-rendering="auto" stroke-dashoffset="0" width="36px" marker-end="none" clip="auto" cursor="auto" stroke="none" filter="none" visibility="visible" kerning="auto" stroke-width="1" font-family="&quot;Arial&quot;,&quot;Helvetica&quot;,sans-serif" flood-opacity="1" clip-rule="nonzero" src="none" height="57px" unicode-bidi="normal" stroke-linejoin="miter" stroke-opacity="1" flood-color="rgb(0, 0, 0)" dominant-baseline="auto" marker-start="none" x="0px" marker-mid="none" y="0px">
<defs>
<clipPath clipPathUnits="userSpaceOnUse" id="clipPath1">
              <path d="M0 0 L1285 0 L1285 815 L0 815 L0 0 Z"/>
            </clipPath>
            <clipPath clipPathUnits="userSpaceOnUse" id="clipPath2">
              <path d="M65 218 L1350 218 L1350 1033 L65 1033 L65 218 Z"/>
            </clipPath>
            <clipPath clipPathUnits="userSpaceOnUse" id="clipPath3">
              <path d="M-772.9523 -670.458 L512.0477 -670.458 L512.0477 144.542 L-772.9523 144.542 L-772.9523 -670.458 Z"/>
            </clipPath>
          </defs>
<linearGradient gradientTransform="matrix(1 0 0 1 -195.2002 -770.8008)" x1="230.1768" x2="180.3346" gradientUnits="userSpaceOnUse" y1="798.6021" y2="798.6021" id="svg1.SVGID_1_">
	<stop offset="0" style="stop-color:#4D4D4D"/>
	<stop offset="1" style="stop-color:#8D8D8D"/>
</linearGradient>
<rect fill="url(#svg1.SVGID_1_)" width="34.977" y="0.943" height="53.716"/>
<linearGradient gradientTransform="matrix(1 0 0 1 -195.2002 -770.8008)" x1="224.6807" x2="200.6973" gradientUnits="userSpaceOnUse" y1="798.6021" y2="798.6021" id="svg1.SVGID_2_">
	<stop offset="0.0319" style="stop-color:#848484"/>
	<stop offset="0.1202" style="stop-color:#8C8C8C"/>
	<stop offset="0.308" style="stop-color:#969696"/>
	<stop offset="0.5394" style="stop-color:#999999"/>
	<stop offset="0.5501" style="stop-color:#9C9C9C"/>
	<stop offset="0.6256" style="stop-color:#B0B0B0"/>
	<stop offset="0.7118" style="stop-color:#BEBEBE"/>
	<stop offset="0.8178" style="stop-color:#C7C7C7"/>
	<stop offset="1" style="stop-color:#C9C9C9"/>
</linearGradient>
<path fill="url(#svg1.SVGID_2_)" d="M5.497,0.943c7.945-1.258,16.04-1.258,23.983,0c0,17.905,0,35.811,0,53.716  c-7.943,1.258-16.039,1.258-23.983,0C5.497,36.753,5.497,18.848,5.497,0.943z"/>
<path fill="#515151" d="M5.497,14.621c7.995,0,15.989,0,23.983,0c0,13.346,0,26.693,0,40.037c-7.943,1.258-16.039,1.258-23.983,0  C5.497,41.314,5.497,27.967,5.497,14.621z"/>
<path fill="#565656" opacity="0.43" d="M5.497,4.745c7.982-0.628,16.001-0.628,23.983,0c0,2.707,0,5.413,0,8.12  c-7.994,0-15.989,0-23.983,0C5.497,10.158,5.497,7.452,5.497,4.745z"/>
<path fill="none" stroke-width="0.0999" d="M5.497,4.745  c7.982-0.628,16.001-0.628,23.983,0c0,2.707,0,5.413,0,8.12c-7.994,0-15.989,0-23.983,0C5.497,10.158,5.497,7.452,5.497,4.745z" stroke-miterlimit="10" opacity="0.43" stroke="#4D4D4D"/>
<polygon enable-background="new    " points="  6.496,5.746 9.869,5.606 9.869,6.661 6.496,6.799 " fill="#565656" opacity="0.43" stroke="#4D4D4D" stroke-width="0.0135" stroke-miterlimit="10"/>
<rect x="31.307" y="2.517" fill="#E7ED00" width="3.692" height="1.505" stroke="#717171" stroke-width="0.1926" stroke-miterlimit="10"/>
<rect x="31.307" y="5.8" fill="#C8FF00" width="3.692" height="1.507" stroke="#717171" stroke-width="0.1926" stroke-miterlimit="10"/>
<linearGradient y2="35.1235" id="svg1.SVGID_3_" x1="29.4414" gradientUnits="userSpaceOnUse" x2="5.4995" y1="35.1235">
	<stop offset="0" style="stop-color:#808080"/>
	<stop offset="0.1907" style="stop-color:#828282"/>
	<stop offset="0.2955" style="stop-color:#8A8A8A"/>
	<stop offset="0.3795" style="stop-color:#989898"/>
	<stop offset="0.4524" style="stop-color:#ACACAC"/>
	<stop offset="0.5175" style="stop-color:#C5C5C5"/>
	<stop offset="0.5273" style="stop-color:#C9C9C9"/>
	<stop offset="0.5914" style="stop-color:#C9C9C9"/>
	<stop offset="0.9681" style="stop-color:#C9C9C9"/>
</linearGradient>
<path fill="url(#svg1.SVGID_3_)" d="M5.5,14.822c0,13.22,0,26.438,0,39.66c7.931,1.256,16.012,1.256,23.941,0c0-13.222,0-26.439,0-39.66  C21.461,14.822,13.48,14.822,5.5,14.822z M28.396,18.703c-0.74,0.01-1.482,0.02-2.225,0.029c0-0.951,0-1.901-0.001-2.85  c0.742-0.003,1.483-0.005,2.224-0.008C28.396,16.817,28.396,17.76,28.396,18.703z M16.354,42.496c0-0.961,0-1.924,0-2.885  c0.744,0.006,1.489,0.006,2.233,0c0,0.961,0,1.924,0,2.885C17.843,42.503,17.098,42.503,16.354,42.496z M18.587,43.568  c0,0.955,0,1.91,0,2.866c-0.744,0.009-1.489,0.009-2.234,0c0-0.956,0-1.911,0-2.866C17.098,43.574,17.843,43.574,18.587,43.568z   M18.586,27.742c0,0.961,0,1.922,0,2.886c-0.744,0.004-1.488,0.004-2.231,0c0-0.964,0-1.925,0-2.886  C17.099,27.746,17.842,27.746,18.586,27.742z M16.354,26.671c0-0.955,0-1.91,0-2.865c0.743,0.002,1.487,0.002,2.23,0  c0,0.955,0,1.91,0,2.865C17.842,26.675,17.099,26.675,16.354,26.671z M16.354,34.583c0-0.961,0-1.924,0-2.885  c0.744,0.004,1.488,0.004,2.231,0c0,0.961,0,1.924,0,2.885C17.842,34.588,17.099,34.588,16.354,34.583z M18.586,35.656  c0,0.961,0,1.924,0.001,2.885c-0.745,0.008-1.489,0.008-2.233,0c0-0.961,0-1.924,0-2.885C17.099,35.66,17.842,35.66,18.586,35.656z   M15.307,30.619c-0.742-0.01-1.484-0.021-2.227-0.039c0-0.957,0-1.916,0-2.875c0.742,0.014,1.485,0.023,2.226,0.029  C15.307,28.695,15.307,29.656,15.307,30.619z M15.307,31.689c0,0.961,0,1.924,0,2.885c-0.742-0.012-1.485-0.025-2.227-0.047  c0-0.959,0.001-1.92,0.001-2.877C13.822,31.667,14.565,31.68,15.307,31.689z M15.307,35.644c0,0.959,0,1.922-0.001,2.883  c-0.742-0.012-1.485-0.031-2.228-0.056c0-0.959,0.001-1.918,0.001-2.877C13.821,35.617,14.564,35.633,15.307,35.644z M15.306,39.597  c0,0.96,0,1.922,0,2.883c-0.742-0.016-1.486-0.037-2.228-0.064c0-0.959,0-1.916,0.001-2.877  C13.82,39.564,14.563,39.585,15.306,39.597z M19.637,39.597c0.742-0.012,1.484-0.033,2.227-0.059c0,0.959,0,1.918,0,2.875  c-0.741,0.029-1.483,0.052-2.227,0.064C19.637,41.519,19.637,40.559,19.637,39.597z M19.637,38.527c0-0.961,0-1.924,0-2.883  c0.74-0.012,1.482-0.027,2.225-0.05c0,0.959,0,1.918,0.002,2.876C21.121,38.496,20.377,38.515,19.637,38.527z M19.637,34.572  c0-0.961,0-1.922-0.002-2.883c0.741-0.01,1.483-0.021,2.225-0.039c0.002,0.957,0.002,1.916,0.002,2.875  C21.119,34.547,20.376,34.564,19.637,34.572z M19.635,30.619c0-0.963,0-1.924,0-2.885c0.74-0.006,1.483-0.017,2.225-0.029  c0,0.959,0,1.916,0,2.875C21.118,30.599,20.376,30.609,19.635,30.619z M19.633,26.666c0-0.955,0-1.909,0-2.864  c0.741-0.005,1.483-0.013,2.227-0.021c0,0.951,0,1.903,0,2.856C21.118,26.65,20.375,26.66,19.633,26.666z M19.633,22.732  c-0.001-0.963-0.001-1.924-0.001-2.885c0.741-0.002,1.483-0.006,2.226-0.012c0,0.959,0.002,1.918,0.002,2.877  C21.116,22.72,20.374,22.728,19.633,22.732z M18.586,22.736c-0.744,0.002-1.487,0.002-2.23,0c0-0.963,0-1.924,0-2.887  c0.743,0.002,1.487,0.002,2.23,0C18.586,20.813,18.586,21.773,18.586,22.736z M15.309,22.732c-0.742-0.004-1.483-0.012-2.226-0.02  c0-0.959,0.001-1.918,0.001-2.877c0.742,0.006,1.484,0.01,2.226,0.012C15.31,20.808,15.309,21.769,15.309,22.732z M15.309,23.801  c0,0.955,0,1.91,0,2.864c-0.742-0.006-1.483-0.016-2.227-0.027c0-0.953,0-1.906,0-2.859C13.825,23.789,14.566,23.796,15.309,23.801z   M12.036,26.617c-0.742-0.017-1.483-0.033-2.225-0.055c0-0.947,0-1.895,0.001-2.841c0.741,0.019,1.483,0.031,2.225,0.042  C12.037,24.716,12.036,25.666,12.036,26.617z M12.035,27.683c0,0.957,0,1.916,0,2.873c-0.742-0.021-1.483-0.047-2.225-0.076  c0-0.953,0-1.904,0-2.857C10.552,27.646,11.293,27.667,12.035,27.683z M12.035,31.621c0,0.957-0.001,1.914-0.001,2.871  c-0.742-0.023-1.483-0.055-2.224-0.092c0-0.953,0-1.906,0-2.859C10.551,31.572,11.292,31.6,12.035,31.621z M12.033,35.56  c0,0.956-0.001,1.914-0.001,2.871c-0.742-0.031-1.484-0.066-2.225-0.111c0-0.953,0.001-1.906,0.001-2.858  C10.549,35.5,11.291,35.533,12.033,35.56z M12.031,39.498c0,0.955,0,1.914-0.001,2.869c-0.742-0.035-1.484-0.078-2.225-0.129  c0-0.953,0-1.904,0.001-2.857C10.547,39.426,11.289,39.465,12.031,39.498z M12.03,43.435c0,0.951-0.001,1.901-0.001,2.854  c-0.742-0.041-1.484-0.09-2.225-0.149c0-0.944,0.001-1.892,0.001-2.838C10.546,43.353,11.288,43.4,12.03,43.435z M13.077,43.482  c0.743,0.031,1.486,0.053,2.228,0.067c0,0.956,0,1.91,0,2.864c-0.742-0.016-1.486-0.041-2.229-0.074  C13.077,45.389,13.077,44.435,13.077,43.482z M15.305,47.486c0,0.961,0,1.922,0,2.883c-0.743-0.019-1.487-0.047-2.23-0.084  c0-0.959,0-1.918,0.001-2.875C13.818,47.443,14.562,47.468,15.305,47.486z M16.353,47.504c0.745,0.009,1.49,0.009,2.234,0  c0.001,0.96,0.001,1.924,0.001,2.883c-0.745,0.011-1.49,0.011-2.235,0C16.353,49.427,16.353,48.464,16.353,47.504z M19.639,47.486  c0.741-0.018,1.483-0.043,2.227-0.076c0,0.957,0.002,1.916,0.002,2.875c-0.742,0.037-1.486,0.065-2.229,0.084  C19.639,49.406,19.639,48.447,19.639,47.486z M19.637,46.414c0-0.954,0-1.908,0-2.864c0.742-0.015,1.484-0.036,2.229-0.067  c0,0.953,0,1.905,0,2.857C21.122,46.373,20.379,46.398,19.637,46.414z M22.911,43.435c0.741-0.035,1.483-0.082,2.224-0.135  c0,0.945,0,1.895,0.002,2.838c-0.74,0.059-1.482,0.107-2.226,0.15C22.911,45.336,22.911,44.386,22.911,43.435z M22.911,42.369  c-0.001-0.957-0.001-1.914-0.002-2.871c0.741-0.032,1.483-0.069,2.225-0.117c0,0.954,0.001,1.906,0.001,2.857  C24.395,42.289,23.652,42.333,22.911,42.369z M22.909,38.431c0-0.957-0.001-1.915-0.001-2.871c0.742-0.027,1.482-0.061,2.224-0.098  c0.001,0.951,0.001,1.904,0.001,2.857C24.393,38.363,23.65,38.4,22.909,38.431z M22.908,34.494c0-0.957-0.002-1.916-0.002-2.871  c0.742-0.021,1.482-0.051,2.225-0.079c0,0.952,0,1.903,0.001,2.856C24.391,34.437,23.648,34.468,22.908,34.494z M22.906,30.556  c0-0.957,0-1.916-0.002-2.873c0.742-0.016,1.484-0.037,2.226-0.061c0,0.953,0.001,1.904,0.001,2.857  C24.391,30.509,23.648,30.535,22.906,30.556z M22.904,26.617c0-0.951,0-1.901,0-2.854c0.74-0.011,1.482-0.025,2.224-0.042  c0,0.946,0.001,1.894,0.001,2.841C24.389,26.583,23.646,26.601,22.904,26.617z M22.902,22.699c0-0.957,0-1.916,0-2.874  c0.742-0.007,1.482-0.014,2.225-0.023c0.001,0.953,0.001,1.906,0.001,2.859C24.387,22.676,23.646,22.689,22.902,22.699z   M22.902,18.76C22.9,17.802,22.9,16.845,22.9,15.887c0.742,0,1.481-0.003,2.225-0.004c0.001,0.953,0.001,1.906,0.002,2.858  C24.385,18.75,23.643,18.756,22.902,18.76z M21.855,18.767c-0.742,0.004-1.482,0.007-2.225,0.009c0-0.961,0-1.922,0-2.884  c0.741,0,1.482-0.001,2.225-0.002C21.855,16.849,21.855,17.808,21.855,18.767z M18.585,18.779c-0.743,0.001-1.486,0.001-2.229,0  c0-0.961,0-1.923,0-2.885c0.742,0,1.486,0,2.229,0C18.585,16.855,18.585,17.817,18.585,18.779z M15.31,18.777  c-0.742-0.002-1.483-0.005-2.225-0.009c0-0.959,0-1.918,0-2.877c0.742,0,1.483,0.001,2.225,0.002  C15.31,16.854,15.31,17.815,15.31,18.777z M12.039,18.76c-0.742-0.005-1.483-0.011-2.225-0.019c0-0.953,0-1.905,0.001-2.858  c0.742,0.001,1.483,0.004,2.224,0.004C12.039,16.845,12.039,17.803,12.039,18.76z M12.039,19.827c0,0.957-0.001,1.915-0.001,2.872  c-0.741-0.01-1.483-0.021-2.224-0.035c0-0.953,0-1.906,0-2.859C10.555,19.813,11.296,19.819,12.039,19.827z M8.768,22.64  c-0.741-0.018-1.482-0.035-2.223-0.057c0-0.943,0-1.887,0-2.831c0.741,0.013,1.482,0.025,2.223,0.036  C8.768,20.739,8.768,21.689,8.768,22.64z M8.767,23.697c0,0.944,0,1.89,0,2.832c-0.741-0.024-1.482-0.053-2.223-0.084  c0-0.938,0-1.873,0-2.811C7.284,23.658,8.026,23.679,8.767,23.697z M8.766,27.587c0,0.949-0.001,1.898-0.001,2.85  c-0.74-0.033-1.481-0.068-2.222-0.111c0-0.942,0-1.887,0-2.83C7.284,27.529,8.025,27.56,8.766,27.587z M8.765,31.494  c0,0.951-0.001,1.9-0.001,2.852c-0.74-0.04-1.481-0.087-2.221-0.139c0-0.943,0-1.887,0-2.831C7.283,31.42,8.023,31.459,8.765,31.494  z M8.763,35.404c0,0.949,0,1.899,0,2.851c-0.741-0.052-1.481-0.104-2.22-0.168c0-0.942,0-1.886,0-2.829  C7.282,35.31,8.022,35.361,8.763,35.404z M8.762,39.312c0,0.949,0,1.899-0.001,2.852c-0.741-0.059-1.48-0.123-2.219-0.195  c0-0.943,0-1.889,0-2.83C7.281,39.203,8.021,39.26,8.762,39.312z M8.76,43.219c0,0.944,0,1.888-0.001,2.832  c-0.74-0.065-1.479-0.14-2.218-0.224c0-0.938,0-1.875,0-2.812C7.281,43.092,8.02,43.16,8.76,43.219z M8.759,47.109  c0,0.951,0,1.9,0,2.851c-0.741-0.073-1.48-0.158-2.219-0.253c0-0.942,0-1.887,0-2.828C7.279,46.964,8.019,47.039,8.759,47.109z   M9.804,47.201c0.741,0.06,1.483,0.111,2.224,0.154c0,0.955,0,1.912,0,2.868c-0.742-0.045-1.484-0.103-2.225-0.166  C9.804,49.107,9.804,48.154,9.804,47.201z M12.027,51.291c0,0.957,0,1.916,0,2.873c-0.742-0.053-1.484-0.114-2.225-0.188  c0-0.951,0.001-1.904,0.001-2.857C10.544,51.187,11.285,51.244,12.027,51.291z M13.075,51.353c0.743,0.039,1.486,0.067,2.229,0.086  c0,0.961,0,1.922,0,2.885c-0.743-0.021-1.487-0.053-2.229-0.094C13.075,53.269,13.075,52.312,13.075,51.353z M16.353,51.459  c0.745,0.009,1.49,0.009,2.235,0c0,0.961,0,1.924,0,2.885c-0.745,0.013-1.491,0.013-2.235,0  C16.353,53.382,16.353,52.42,16.353,51.459z M19.639,51.439c0.741-0.019,1.485-0.049,2.229-0.086c0,0.959,0,1.92,0.001,2.877  c-0.743,0.041-1.485,0.072-2.229,0.094C19.639,53.361,19.639,52.4,19.639,51.439z M22.913,51.291  c0.743-0.047,1.483-0.104,2.226-0.172c0,0.953,0,1.906,0,2.857c-0.74,0.073-1.481,0.135-2.224,0.188  C22.914,53.205,22.914,52.248,22.913,51.291z M22.913,50.224c-0.001-0.956-0.001-1.912-0.001-2.869  c0.742-0.043,1.484-0.095,2.225-0.154c0,0.953,0,1.906,0.002,2.857C24.396,50.123,23.654,50.179,22.913,50.224z M26.184,47.109  c0.739-0.066,1.479-0.145,2.217-0.229c0,0.942,0,1.887,0,2.83c-0.736,0.092-1.478,0.177-2.217,0.252  C26.184,49.009,26.184,48.06,26.184,47.109z M26.184,46.051c-0.002-0.944-0.002-1.888-0.002-2.832  c0.739-0.06,1.48-0.127,2.219-0.202c0,0.938,0,1.873,0,2.811C27.662,45.912,26.923,45.986,26.184,46.051z M26.182,42.162  c0-0.95-0.002-1.9-0.002-2.85c0.74-0.052,1.48-0.109,2.219-0.176c0.002,0.943,0.002,1.887,0.002,2.83  C27.662,42.039,26.921,42.105,26.182,42.162z M26.18,38.253c0-0.95,0-1.9-0.002-2.852c0.742-0.041,1.482-0.093,2.221-0.146  c0,0.942,0,1.887,0,2.829C27.66,38.15,26.92,38.203,26.18,38.253z M26.178,34.345c0-0.949,0-1.898,0-2.852  c0.74-0.034,1.481-0.073,2.221-0.117c0,0.943,0,1.887,0,2.83C27.659,34.258,26.918,34.305,26.178,34.345z M26.177,30.437  c0-0.949,0-1.9-0.001-2.85c0.741-0.027,1.481-0.059,2.221-0.092c0,0.943,0.002,1.888,0.002,2.83  C27.659,30.367,26.918,30.404,26.177,30.437z M26.176,26.529c-0.001-0.942-0.001-1.888-0.001-2.832  c0.742-0.018,1.482-0.039,2.222-0.063c0,0.938,0,1.873,0,2.811C27.657,26.476,26.917,26.503,26.176,26.529z M26.174,22.64  c0-0.951-0.001-1.901-0.001-2.851c0.741-0.01,1.483-0.022,2.224-0.035c0,0.943,0,1.886,0,2.831  C27.657,22.605,26.915,22.623,26.174,22.64z M8.769,15.881c0,0.95,0,1.9-0.001,2.85c-0.741-0.008-1.482-0.018-2.223-0.028  c0-0.943,0-1.887,0-2.83C7.286,15.876,8.028,15.878,8.769,15.881z M6.54,50.758c0.738,0.097,1.478,0.183,2.218,0.258  c0,0.95,0,1.901,0,2.853c-0.741-0.084-1.48-0.178-2.218-0.28C6.54,52.646,6.54,51.701,6.54,50.758z M26.184,53.869  c0-0.95,0-1.899,0-2.853c0.739-0.075,1.479-0.163,2.217-0.259c0.002,0.941,0.002,1.889,0.002,2.83  C27.663,53.693,26.925,53.785,26.184,53.869z"/>
<path fill="#FFFFFF" id="svg1.highlight_2_" d="M0,0.943h5.497c0,0,6.847-0.943,11.974-0.943  C22.6,0,29.48,0.943,29.48,0.943h5.496v41.951c0,0-12.076-0.521-18.623-2.548C9.807,38.32,0,30.557,0,30.557V0.943z" enable-background="new    " opacity="0.17"/>
</svg>
      </g>
    </g>
    <g text-rendering="geometricPrecision" stroke-miterlimit="1.45" shape-rendering="geometricPrecision" transform="matrix(1,0,0,1,-65,-218)" stroke-linecap="butt">
      <rect fill="none" x="1047" width="288" height="30" y="759" clip-path="url(#clipPath2)"/>
      <text x="1132.5645" xml:space="preserve" y="778.1543" clip-path="url(#clipPath2)" font-family="sans-serif" stroke="none">handle ssh session </text>
      <rect fill="none" x="80" width="146" height="56.232" y="532.5" clip-path="url(#clipPath2)"/>
      <text x="103.4355" xml:space="preserve" y="557.7859" clip-path="url(#clipPath2)" font-family="sans-serif" stroke="none">terminate when </text>
      <text x="103.4355" xml:space="preserve" y="571.7547" clip-path="url(#clipPath2)" font-family="sans-serif" stroke="none">session closes</text>
      <rect fill="none" x="86" width="146" height="70" y="304" clip-path="url(#clipPath2)"/>
      <text x="90.2373" xml:space="preserve" y="322.2012" clip-path="url(#clipPath2)" font-family="sans-serif" stroke="none">application client</text>
      <text x="90.2373" xml:space="preserve" y="336.1699" clip-path="url(#clipPath2)" font-family="sans-serif" stroke="none">asks for session create</text>
      <text x="90.2373" xml:space="preserve" y="350.1387" clip-path="url(#clipPath2)" font-family="sans-serif" stroke="none">uses session</text>
      <text x="90.2373" xml:space="preserve" y="364.1074" clip-path="url(#clipPath2)" font-family="sans-serif" stroke="none">closes session</text>
    </g>
    <g fill="rgb(153,204,255)" text-rendering="geometricPrecision" shape-rendering="geometricPrecision" transform="matrix(1,0,0,1,-65,-218)" stroke="rgb(153,204,255)">
      <rect x="271" y="866" clip-path="url(#clipPath2)" width="115" rx="4" ry="4" height="43" stroke="none"/>
    </g>
    <g text-rendering="geometricPrecision" stroke-miterlimit="1.45" stroke-width="2" shape-rendering="geometricPrecision" transform="matrix(1,0,0,1,-65,-218)" stroke-linecap="butt">
      <rect x="271" y="866" clip-path="url(#clipPath2)" fill="none" width="115" rx="4" ry="4" height="43"/>
      <text x="289.4385" y="884.6699" clip-path="url(#clipPath2)" font-family="sans-serif" stroke="none" stroke-width="1" xml:space="preserve">Service bean</text>
      <text x="277.9453" y="898.6387" clip-path="url(#clipPath2)" font-family="sans-serif" stroke="none" stroke-width="1" xml:space="preserve">(Single Instance)</text>
    </g>
    <g fill="rgb(255,204,0)" text-rendering="geometricPrecision" shape-rendering="geometricPrecision" transform="matrix(1,0,0,1,-65,-218)" stroke="rgb(255,204,0)">
      <rect x="271" y="915.116" clip-path="url(#clipPath2)" width="115" rx="4" ry="4" height="30" stroke="none"/>
    </g>
    <g text-rendering="geometricPrecision" stroke-miterlimit="1.45" shape-rendering="geometricPrecision" transform="matrix(1,0,0,1,-65,-218)" stroke-linecap="butt">
      <rect x="271" y="915.116" clip-path="url(#clipPath2)" fill="none" width="115" rx="4" ry="4" height="30"/>
      <text x="295.9688" xml:space="preserve" y="934.2703" clip-path="url(#clipPath2)" font-family="sans-serif" stroke="none">Akka Actor</text>
    </g>
    <g fill="rgb(255,204,0)" text-rendering="geometricPrecision" shape-rendering="geometricPrecision" transform="matrix(1,0,0,1,-65,-218)" stroke="rgb(255,204,0)">
      <rect x="271" y="951.232" clip-path="url(#clipPath2)" width="115" rx="4" ry="4" height="30" stroke="none"/>
    </g>
    <g text-rendering="geometricPrecision" stroke-miterlimit="1.45" stroke-width="2" shape-rendering="geometricPrecision" transform="matrix(1,0,0,1,-65,-218)" stroke-linecap="butt">
      <rect x="271" y="951.232" clip-path="url(#clipPath2)" fill="none" width="115" rx="4" ry="4" height="30"/>
      <text x="295.9688" y="963.4019" clip-path="url(#clipPath2)" font-family="sans-serif" stroke="none" stroke-width="1" xml:space="preserve">Akka Actor</text>
      <text x="277.9453" y="977.3707" clip-path="url(#clipPath2)" font-family="sans-serif" stroke="none" stroke-width="1" xml:space="preserve">(Single Instance)</text>
    </g>
    <g fill="rgb(153,204,255)" text-rendering="geometricPrecision" shape-rendering="geometricPrecision" transform="matrix(1,0,0,1,-65,-218)" stroke="rgb(153,204,255)">
      <rect x="271" y="987.348" clip-path="url(#clipPath2)" width="115" rx="4" ry="4" height="30" stroke="none"/>
    </g>
    <g text-rendering="geometricPrecision" stroke-miterlimit="1.45" shape-rendering="geometricPrecision" transform="matrix(1,0,0,1,-65,-218)" stroke-linecap="butt">
      <rect x="271" y="987.348" clip-path="url(#clipPath2)" fill="none" width="115" rx="4" ry="4" height="30"/>
      <text x="284.9561" xml:space="preserve" y="1006.5023" clip-path="url(#clipPath2)" font-family="sans-serif" stroke="none">Wrapper Class</text>
      <rect fill="none" x="1047" width="288" height="56.5" y="608.75" clip-path="url(#clipPath2)"/>
      <text x="1073.8125" xml:space="preserve" y="627.1855" clip-path="url(#clipPath2)" font-family="sans-serif" stroke="none">create new session actor and sessions</text>
      <text x="1073.8125" xml:space="preserve" y="641.1543" clip-path="url(#clipPath2)" font-family="sans-serif" stroke="none">holds active session count on the node</text>
      <text x="1073.8125" xml:space="preserve" y="655.123" clip-path="url(#clipPath2)" font-family="sans-serif" stroke="none">close sessions</text>
      <path fill="none" d="M976.0227 568.3517 L982.2961 569.5625 L1004.2875 574.75 L1021.3919 579.9375 L1033.6094 585.125 L1040.9398 590.3125 L1042.7725 592.9062 L1043.3833 595.5 L1042.7725 598.0938 L1040.9398 600.6875 L1033.6094 605.875 L1021.3919 611.0625 L1004.2875 616.25 L984.8387 620.8377 L984.7405 620.8566" stroke-width="2" clip-path="url(#clipPath2)"/>
      <path d="M975.9247 622.6684 L990.2807 625.4606 L985.8425 620.6302 L988.0161 614.4409 Z" stroke-width="2" clip-path="url(#clipPath2)" stroke="none"/>
      <text x="1048.8063" xml:space="preserve" y="582.4835" clip-path="url(#clipPath2)" font-family="sans-serif" stroke="none">2. Get leader address</text>
      <path fill="none" d="M798.0151 643.9309 L784.3672 647.625 L769.0293 650.4844 L754.3438 651.875 L740.3105 651.7969 L726.9297 650.25 L714.2012 647.2344 L702.125 642.75 L690.7012 636.7969 L679.9297 629.375 L669.8105 620.4844 L660.3438 610.125 L651.5293 598.2969 L643.3672 585 L642.6216 583.534" stroke-width="2" clip-path="url(#clipPath2)" stroke="red"/>
      <path fill="red" d="M638.5416 575.512 L639.6478 590.0951 L643.1316 584.5368 L649.6754 584.9951 Z" stroke-width="2" clip-path="url(#clipPath2)" stroke="none"/>
      <text x="643.2299" xml:space="preserve" y="616.6135" clip-path="url(#clipPath2)" font-family="sans-serif" stroke="none">3. Session Error (Tell)</text>
      <path fill="none" d="M359.2613 436.493 L356.2188 431.625 L351.2734 418.4375 L349.625 405.25 L351.2734 392.0625 L355.0596 381.966 L355.1126 381.8812" stroke-width="2" clip-path="url(#clipPath2)"/>
      <path d="M359.3078 373.9187 L348.0385 383.2404 L354.5883 382.8765 L357.9916 388.4843 Z" stroke-width="2" clip-path="url(#clipPath2)" stroke="none"/>
      <text x="237.8344" xml:space="preserve" y="400.3289" clip-path="url(#clipPath2)" font-family="sans-serif" stroke="none">5. Session Error</text>
      <path fill="none" d="M847.6461 709.5042 L845.75 701.5938 L845.2812 688.3672 L847.75 676.125 L852.7985 665.6121 L852.8616 665.5344" stroke-width="2" clip-path="url(#clipPath2)" stroke="red"/>
      <path fill="red" d="M858.3835 658.4276 L845.6588 665.6367 L852.1713 666.4228 L854.5424 672.5391 Z" stroke-width="2" clip-path="url(#clipPath2)" stroke="none"/>
      <text x="814.5475" xml:space="preserve" y="687.877" clip-path="url(#clipPath2)" font-family="sans-serif" stroke="none">1. Session Error (Tell)</text>
      <path fill="none" d="M579.4606 575.5032 L569.1875 578.1562 L555.2695 580.2988 L541.7656 580.8828 L528.6758 579.9082 L516 577.375 L503.7383 573.2832 L491.8906 567.6328 L480.457 560.4238 L469.4375 551.6562 L458.832 541.3301 L448.8994 529.7471 L448.8406 529.6663" stroke-width="2" clip-path="url(#clipPath2)" stroke="red"/>
      <path fill="red" d="M443.521 522.4067 L446.9632 536.6208 L449.5056 530.5737 L456.0377 529.9713 Z" stroke-width="2" clip-path="url(#clipPath2)" stroke="none"/>
      <text x="464.9053" xml:space="preserve" y="609.3763" clip-path="url(#clipPath2)" font-family="sans-serif" stroke="none">4. Session Error (Tell)</text>
      <path fill="none" d="M226 458 L281.9937 458" clip-path="url(#clipPath2)"/>
      <path fill="none" d="M1047 504.0814 L708 504 L662.9839 532.4912" clip-path="url(#clipPath2)"/>
      <path fill="none" d="M1047 731 L912.9594 731" clip-path="url(#clipPath2)"/>
      <path fill="none" d="M855.5 803.4709 L855.5 880.9023" clip-path="url(#clipPath2)"/>
      <path d="M855.5 795.4709 L850.5 807.4709 L855.5 804.4709 L860.5 807.4709 Z" clip-path="url(#clipPath2)" stroke="none"/>
      <path d="M855.5 888.9023 L860.5 876.9023 L855.5 879.9023 L850.5 876.9023 Z" clip-path="url(#clipPath2)" stroke="none"/>
      <text x="849.2539" xml:space="preserve" y="879.0539" clip-path="url(#clipPath2)" font-family="sans-serif" stroke="none">SSH session</text>
      <path fill="none" d="M1047 774 L912.9594 774" clip-path="url(#clipPath2)"/>
      <path fill="none" d="M174.2228 532.5 L198 501 L389.0045 501" clip-path="url(#clipPath2)"/>
      <path fill="none" d="M231.9753 352.5 L282.0113 352.5" clip-path="url(#clipPath2)"/>
      <path fill="none" d="M463.9871 903 L581.9874 903" stroke-width="2" clip-path="url(#clipPath2)" stroke="red"/>
      <path fill="red" d="M590.9874 903 L577.4874 897.375 L580.8624 903 L577.4874 908.625 Z" stroke-width="2" clip-path="url(#clipPath2)" stroke="none"/>
      <text x="464.5762" xml:space="preserve" y="877.1543" clip-path="url(#clipPath2)" font-family="sans-serif" stroke="none">Akka Tell (Remoting)</text>
      <path fill="none" d="M463.9871 963 L581.9874 963" stroke-width="2" clip-path="url(#clipPath2)"/>
      <path d="M590.9874 963 L577.4874 957.375 L580.8624 963 L577.4874 968.625 Z" stroke-width="2" clip-path="url(#clipPath2)" stroke="none"/>
      <text x="491.8896" xml:space="preserve" y="937.1543" clip-path="url(#clipPath2)" font-family="sans-serif" stroke="none">Method Call</text>
      <path fill="none" d="M976.0254 637 L1047 637" clip-path="url(#clipPath2)"/>
    </g>
  </g>
</svg>
